<?xml version="1.0" encoding="UTF-8"?><svg id="Animacion" xmlns="http://www.w3.org/2000/svg" viewBox="0 0 1600 900"><g id="botella_sola"><path d="M803.79,280c-9.16,12.41-14.54,26.89-21.19,40.69-7.78,16.13-16.18,31.96-24.79,47.66-16.55,30.19-33.95,59.94-49.51,90.67-14.65,28.94-27.78,58.73-38.3,89.43-5.16,15.07-9.69,30.36-13.44,45.84-3.06,12.62-6.51,27.37-1.22,39.84,9.86,23.27,44.43,31.63,66.75,34.62,22.26,2.99,46.08,2,57.59-20.27,6.42-12.42,9.01-27.18,11.46-40.81,2.96-16.46,5.08-33.14,6.9-49.77,3.72-34.01,5.18-68.19,8.36-102.24,2.82-30.27,7.26-60.83,14.01-90.51,5.27-23.17,15.35-44.77,22-67.45,2.39-8.13-10.29-11.61-12.67-3.49-6.34,21.61-15.57,42.24-21.3,64.13-3.98,15.19-6.21,31.2-8.73,46.7-9.76,60-9.86,121.01-18.41,181.18-1.99,13.99-4.32,27.97-8.1,41.61-3.5,12.61-8.35,25.26-22.58,28.35-13.15,2.86-28.85,0-41.58-3.29-12.4-3.21-28.45-7.71-37.48-17.56-10.22-11.15-4.61-28.54-1.37-41.42,3.56-14.16,7.76-28.15,12.49-41.96,10.15-29.65,22.83-58.35,36.98-86.3,15.25-30.12,32.26-59.29,48.51-88.86,8.3-15.09,16.41-30.29,23.98-45.76,7.31-14.94,13.06-30.95,23-44.41,5.03-6.81-6.37-13.37-11.35-6.63h0Z" fill="#1e2535"/><path d="M738.78,671.03c-5.72,0-11.44-.55-16.84-1.28-25.45-3.42-57.83-12.31-67.53-35.23-5.49-12.97-1.8-28.22,1.17-40.47,3.65-15.04,8.18-30.49,13.47-45.93,9.85-28.74,22.39-58.03,38.36-89.56,10.68-21.1,22.42-42.07,33.77-62.35,5.19-9.28,10.56-18.87,15.76-28.35,10.34-18.86,17.98-33.55,24.77-47.62,1.67-3.47,3.29-7.04,4.86-10.5,4.68-10.32,9.51-20.98,16.43-30.35l.8.59-.8-.59c1.73-2.35,4.38-3.51,7.28-3.18,2.96.33,5.56,2.13,6.63,4.57.91,2.09.57,4.37-.95,6.43-7.12,9.65-12.17,20.83-17.05,31.64-1.88,4.16-3.82,8.46-5.86,12.62-6.6,13.49-14.01,27.62-24,45.8-4.86,8.85-9.88,17.8-14.72,26.47-11.35,20.29-23.09,41.27-33.77,62.36-15.43,30.48-27.51,58.67-36.92,86.17-4.81,14.06-9.01,28.16-12.46,41.88-.25,1.01-.52,2.04-.79,3.1-3.18,12.26-7.13,27.52,1.93,37.4,8.53,9.31,23.57,13.79,36.99,17.27,17.27,4.47,30.72,5.54,41.11,3.28,13.89-3.02,18.55-15.85,21.83-27.64,3.94-14.17,6.29-28.92,8.08-41.48,3.99-28.04,6.17-56.75,8.28-84.52,2.42-31.78,4.92-64.64,10.13-96.68.42-2.57.83-5.16,1.24-7.75,2.05-12.94,4.18-26.32,7.51-39.03,3.16-12.06,7.44-23.91,11.57-35.37,3.38-9.38,6.88-19.07,9.73-28.78,1.38-4.7,5.82-6.06,9.49-4.99,3.44,1.01,6.5,4.27,5.1,9.04-2.77,9.45-6.19,18.85-9.49,27.94-4.64,12.76-9.43,25.96-12.5,39.45-6.25,27.51-10.96,57.92-13.99,90.38-1.37,14.68-2.44,29.63-3.47,44.09-1.36,19.08-2.77,38.8-4.89,58.16-2.21,20.17-4.34,35.54-6.91,49.84l-.11.6c-2.49,13.82-5.06,28.11-11.45,40.48-9.1,17.6-25.44,22.08-41.77,22.08ZM809.31,278.17c-1.33,0-3.24.42-4.72,2.42-6.79,9.19-11.58,19.76-16.21,29.98-1.57,3.47-3.2,7.06-4.88,10.55-6.81,14.1-14.46,28.82-24.82,47.71-5.2,9.48-10.57,19.08-15.76,28.36-11.34,20.26-23.06,41.21-33.73,62.28-15.92,31.45-28.43,60.66-38.25,89.31-5.27,15.38-9.78,30.77-13.42,45.75-2.9,11.96-6.51,26.85-1.27,39.21,9.83,23.21,45.54,31.28,65.96,34.02,20.18,2.71,44.86,2.92,56.57-19.74,6.25-12.1,8.8-26.24,11.26-39.92l.11-.61c2.56-14.25,4.69-29.57,6.89-49.7,2.12-19.32,3.52-39.03,4.88-58.09,1.03-14.47,2.1-29.43,3.47-44.13,3.04-32.55,7.76-63.05,14.03-90.64,3.1-13.61,7.91-26.87,12.57-39.69,3.29-9.06,6.69-18.43,9.45-27.82,1.02-3.48-1.15-5.8-3.75-6.56-2.64-.77-5.95.03-7.01,3.63-2.87,9.77-6.38,19.5-9.77,28.9-4.12,11.42-8.39,23.23-11.52,35.2-3.31,12.62-5.42,25.95-7.47,38.84-.41,2.6-.82,5.19-1.24,7.76-5.2,31.96-7.7,64.78-10.11,96.51-2.11,27.8-4.3,56.54-8.3,84.65-1.79,12.63-4.16,27.46-8.13,41.73-3.43,12.35-8.35,25.8-23.33,29.06-10.71,2.33-24.46,1.25-42.04-3.3-13.7-3.54-29.06-8.14-37.96-17.85-9.79-10.68-5.69-26.53-2.39-39.26.27-1.05.54-2.08.79-3.08,3.47-13.78,7.68-27.93,12.51-42.04,9.44-27.59,21.56-55.86,37.03-86.42,10.7-21.13,22.45-42.13,33.81-62.43,4.85-8.66,9.86-17.61,14.72-26.45,9.98-18.15,17.37-32.25,23.96-45.71,2.02-4.13,3.96-8.41,5.83-12.56,4.93-10.91,10.02-22.19,17.27-32,1.09-1.48,1.34-3.02.72-4.44-.77-1.77-2.79-3.13-5.02-3.38-.21-.02-.46-.04-.72-.04Z" fill="#1e2535"/><path d="M854.11,275.54c-5.52-8.89-14.66-14.89-24.99-17.69-11.12-3.01-27.08-2.55-29.34,11.59-2.7,16.87,12.13,19.28,23.95,25.03,7.19,3.5,10.41,4.32,19.09,5.61,9.17,1.36,12.5-5.63,13.7-11.37.95-4.54.04-9.23-2.41-13.17ZM823.48,282.59c-2.84-1.17-9.16-4.32-11.29-6.34-3.43-3.25-1.45-7.15,3.11-8.09,11.23-2.32,30.43,7.03,31.34,17.95.78,9.39-23.15-3.52-23.15-3.52Z" fill="#1e2535"/><path d="M845.03,301.25c-.76,0-1.54-.06-2.35-.18-8.67-1.29-12.06-2.14-19.38-5.7-2.03-.99-4.2-1.9-6.29-2.77-10.11-4.23-20.56-8.6-18.21-23.31.75-4.73,3.01-8.33,6.7-10.71,8.24-5.33,20.37-2.64,23.89-1.68,11.1,3,20.18,9.44,25.58,18.12h0c2.63,4.22,3.53,9.16,2.54,13.9-1.67,8.04-6.06,12.34-12.47,12.34ZM818.15,257.35c-3.91,0-8.14.68-11.57,2.9-3.19,2.06-5.15,5.21-5.81,9.35-2.1,13.16,6.75,16.86,17,21.15,2.12.89,4.31,1.8,6.4,2.82,7.13,3.47,10.24,4.25,18.8,5.52,6.67.99,10.9-2.57,12.57-10.59.88-4.23.07-8.65-2.28-12.44-5.13-8.25-13.8-14.38-24.4-17.25-1.81-.49-6.03-1.47-10.71-1.47ZM842.93,290.5c-6.6,0-18.17-6.09-19.88-7.01-2.83-1.17-9.27-4.35-11.55-6.52-1.74-1.65-2.4-3.59-1.87-5.47.61-2.12,2.65-3.74,5.46-4.32,6.98-1.44,17.32,1.45,24.58,6.88,4.79,3.58,7.62,7.83,7.96,11.97.18,2.13-.75,3.2-1.56,3.73-.8.52-1.87.74-3.13.74ZM819.04,268.8c-1.25,0-2.45.11-3.54.34-2.04.42-3.55,1.54-3.95,2.91-.32,1.13.15,2.36,1.32,3.47,1.99,1.88,8.21,5,10.99,6.14l.09.04c6.52,3.52,17.99,8.36,21.02,6.38.33-.22.77-.65.67-1.9-.29-3.56-2.84-7.3-7.16-10.53-5.68-4.25-13.3-6.86-19.43-6.86Z" fill="#1e2535"/></g></svg>