<?xml version="1.0" encoding="UTF-8"?><svg id="Logotipo" xmlns="http://www.w3.org/2000/svg" viewBox="0 0 1600 900"><g id="Logotipo_amarillo"><path d="M1322.15,410.52c5.8-.57,9.11-5.05,7.43-10.03-1.58-4.7-15.43-2.65-20.12-2.39-5.65.31-14.88,1.1-19.41.96-2.15-.07-3.8.08-7.42.6-6.97,1.01-10.88,14.2-12.57,19.58-5.66,18.02-7.06,37.01-9.93,55.5-1.25,8.06-11.48,36.11,5.55,33.97,6.37-.8,30.48-2.13,35.87-4.04,8.35-2.97,10.27-13.14.83-13.83-5.11-.38-27.16,2.05-28.23,2.07l6.47-36.06c7.17-4.66,29.82-4.27,30.88-13.42,1.61-13.84-25.95.27-28.66-1.85,2.02-4.94,2.8-22.94,6.95-25.7l32.34-5.37Z" fill="#ffbb02"/><path d="M1185.66,507.17c3.6,2.65,6.98-.73,9.2-3.02,16.4-17,28.14-65.25,29.59-87.5.08-1.2.65-2.24-1.24-1.9-6.63,1.2-24.82,12.54-28.15,2.15-2.82-8.79,12.47-11.83,18.83-14.54,7.9-3.37,28.03-12.21,35.5-12.76,4.92-.37,8.85,2.57,8.05,6.84-1.57,8.4-15.34,8.2-17.7,13.17-7.44,32.5-9.49,79.4-35.29,105.38-14.29,14.39-30.86,7.89-35.85-9.18-1.73-5.91-6.63-29.71,4.27-28.8,8.15.68,6.6,25.6,12.79,30.16Z" fill="#ffbb02"/><path d="M477.07,389.52c11.39-1.07,30.33,14.54,33.97,24.88,6.27,17.82-13.79,33.13-25.69,42.77-.41,3.22,29.84,32.44,31.05,41.86.82,6.4-5.54,10.76-11.59,7.31-4.92-2.8-18.98-23.24-24.63-29.29-2.26-2.42-15.33-15.65-17.48-15.53-2.41.13-2.45,4.06-2.86,5.93-1.54,6.88-2.6,15.01-3.61,22.06-1.09,7.63.93,25.33-12.39,21.97-9.86-2.49-3.63-28.32-2.45-35.92,3.19-20.62,6.62-41.87,14.4-61.25,3.92-9.77,9.12-23.64,21.28-24.79ZM466.13,442.13c-.26,1.32.79,2.55,2.14,2.49,4.14-.17,8.33-2.74,11.69-4.86,7.15-4.51,18.06-14.28,13.57-23.67-1.62-3.4-10.44-11.3-14.48-9.93-3.3,1.12-8.54,17.72-9.81,21.7-1.5,4.71-2.17,9.46-3.11,14.27Z" fill="#ffbb02"/><path d="M791.39,408.99s7.46-5.02,11.4-8.13c3.59-2.83,5.19-10.43,1.96-13.92-2.22-2.4-8.81-.01-12.72,2.36-12.72,7.71-45.62,29.04-48.04,43.85-1.73,10.61,6.75,15.25,15.67,17.46,3.14.77,15.16,3.38,21.17,6.65,2.51,1.37,3.25,4.61,1.62,6.96-.76,1.1-1.6,2.14-2.45,3.18-13.74,16.66-33.86,33.92-48.09,50.59-5.34,7.67-5.54,19.54,4.14,16.53,1.21-.38,6.47-4.97,7.91-6.21,10.89-9.45,49.68-47.58,56.17-58.44,7.08-11.85,2.94-22.3-9.96-26.8-3.23-1.12-18.96-5.54-25.3-8.84-1.57-.82-1.78-2.97-.39-4.06l26.9-21.17Z" fill="#ffbb02"/><path d="M1126.09,476.24c-4.48.72-19.55-7.95-22.2-6.69-.75.43-1.07,1.1-1.46,1.76-1.32,2.23-7.21,17.66-7.62,20.07-.85,5.01-2.42,12.01-6.52,15.93-3.09,2.95-5.13,4.06-10.23,2.36-8.14-2.73-1.25-17.4.72-22.94,7.55-21.18,30.11-76.5,46.97-91.21,9.57-8.35,19.05-7.22,20.64,5.46,1.41,11.21-.15,30.09-.64,42-.42,10.2.09,20.55-.07,30.77-.12,7.37,1.27,20.82.65,27.29-.3,3.12-2.81,7.33-6.45,8.43-16.66,5.04-12.74-25.58-13.8-33.23ZM1120.14,428.48c-1.8,3.26-9.21,18.09-10.5,23.98-.27,1.21.39,2.42,1.53,2.9,3.33,1.4,9.11,4.3,12.38,5.09,1.15.27,2.25-.59,2.29-1.77l1.27-37.8c.03-.99-1.23-1.42-1.81-.63l-5.15,8.22c-.09.12.07-.13,0,0Z" fill="#ffbb02"/><path d="M866.91,476.24c-4.48.72-19.55-7.95-22.2-6.69-.75.43-1.07,1.1-1.46,1.76-1.32,2.23-7.21,17.66-7.62,20.07-.85,5.01-2.42,12.01-6.52,15.93-3.09,2.95-5.13,4.06-10.23,2.36-8.14-2.73-1.25-17.4.72-22.94,7.55-21.18,30.11-76.5,46.97-91.21,9.57-8.35,19.05-7.22,20.64,5.46,1.41,11.21-.15,30.09-.64,42-.42,10.2.09,20.55-.07,30.77-.12,7.37,1.27,20.82.65,27.29-.3,3.12-2.81,7.33-6.45,8.43-16.66,5.04-12.74-25.58-13.8-33.23ZM860.96,428.48c-1.8,3.26-9.21,18.09-10.5,23.98-.27,1.21.39,2.42,1.53,2.9,3.33,1.4,9.11,4.3,12.38,5.09,1.15.27,2.25-.59,2.29-1.77l1.27-37.8c.03-.99-1.23-1.42-1.81-.63l-5.15,8.22c-.09.12.07-.13,0,0Z" fill="#ffbb02"/><path d="M934.4,390.26c3.49-2.52,9.61-.97,10.37,3.34,1.43,8.06-2.93,33.01-4.65,41.95-3.06,15.91-7.96,31.57-11.03,47.48-.59,3.06-3.37,12.54-.81,14.32,2.17,1.51,10.83,1.43,14.31,1.72,6.31.51,14.47-.09,20.4.63,9.85,1.2,9.19,12.34-1.02,13.84-5.61.83-35.27-.3-40.3-1.76-12.86-3.72-9.29-17.51-7.57-26.28,3.45-17.62,9.1-35.28,12.65-53.11,2.03-10.23,2.56-26.46,4.97-36.28.39-1.6,1.3-4.86,2.68-5.86Z" fill="#ffbb02"/><path d="M1019.37,462.68c2.61-2.48,4.78-6.27,6.62-9.29,10.89-17.83,20-36.55,30.52-54.56,6.51-8.52,18.83-4.34,15.02,6.25-17.92,29.41-33.15,61.02-52.02,89.91-2.21,3.39-5.9,10.01-8.58,12.61-3.51,3.42-10.01,3.6-12.05-.93-3.06-6.79,2.93-22.9,4.34-30.67,2.62-14.47,1.33-24.81-.73-39.19-1.16-8.13-4.89-19.89-5.18-27.29-.24-6.02,5.36-11.29,10.62-6.18,3.35,3.26,8.58,31.98,9.55,38.12,1.1,7.04,2.21,14.1,1.89,21.22Z" fill="#ffbb02"/><path d="M622.54,476.24c-4.48.72-19.55-7.95-22.2-6.69-.75.43-1.07,1.1-1.46,1.76-1.32,2.23-7.21,17.66-7.62,20.07-.85,5.01-2.42,12.01-6.52,15.93-3.09,2.95-5.13,4.06-10.23,2.36-8.14-2.73-1.25-17.4.72-22.94,7.55-21.18,30.11-76.5,46.97-91.21,9.57-8.35,19.05-7.22,20.64,5.46,1.41,11.21-.15,30.09-.64,42-.42,10.2.09,20.55-.07,30.77-.12,7.37,1.27,20.82.65,27.29-.3,3.12-2.81,7.33-6.45,8.43-16.66,5.04-12.74-25.58-13.8-33.23ZM616.59,428.48c-1.8,3.26-9.21,18.09-10.5,23.98-.27,1.21.39,2.42,1.53,2.9,3.33,1.4,9.11,4.3,12.38,5.09,1.15.27,2.25-.59,2.29-1.77l1.27-37.8c.03-.99-1.23-1.42-1.81-.63l-5.15,8.22c-.09.12.07-.13,0,0Z" fill="#ffbb02"/><path d="M550.83,487.29c-5.59,4.98-12.77-.14-12.75-5.75.04-10.29,3.87-37.42,6.32-49.77,1.48-7.44,2.77-21.93,5.28-27.89,2.48-5.88,14.43-5.75,13.59,1.54-1.76,15.43-5.44,50.02-8.05,63.1-.85,4.26-2.07,16.71-4.39,18.78Z" fill="#ffbb02"/><path d="M559.96,365.04c9.73-.97,12.52,15.1,1.62,16.09-11.13,1.01-12.63-15-1.62-16.09Z" fill="#ffbb02"/><path d="M420.89,405.27c5.8-.57,9.11-5.05,7.43-10.03-1.58-4.7-15.43-2.65-20.12-2.39-5.65.31-14.88,1.1-19.41.96-2.15-.07-3.8.08-7.42.6-6.97,1.01-10.88,14.2-12.57,19.58-5.66,18.02-7.06,37.01-9.93,55.5-1.25,8.06-11.48,36.11,5.55,33.97,6.37-.8,30.48-2.13,35.87-4.04,8.35-2.97,10.27-13.14.83-13.83-5.11-.38-27.16,2.05-28.23,2.07l6.47-36.06c7.17-4.66,29.82-4.27,30.88-13.42,1.61-13.84-25.95.27-28.66-1.85,2.02-4.94,2.8-22.94,6.95-25.7l32.34-5.37Z" fill="#ffbb02"/><path d="M289.66,492.64l6.99-40.73c7.75-5.04,32.21-4.61,33.35-14.49,1.74-14.95-28.03.29-30.96-1.99,2.18-5.34,3.02-24.78,7.51-27.76l34.94-5.81c6.26-.62,9.84-5.46,8.03-10.83-1.71-5.07-16.66-2.86-21.73-2.58-6.11.34-16.08,1.19-20.96,1.04-2.32-.07-4.1.08-8.01.65-7.52,1.09-11.75,15.34-13.58,21.15-6.11,19.47-7.62,39.98-10.72,59.94-1.35,8.7-12.41,43.46,6,41.15,0,0,6.15-3,9.16-19.75Z" fill="#ffbb02"/></g></svg>