<?xml version="1.0" encoding="UTF-8"?><svg id="Isotipo" xmlns="http://www.w3.org/2000/svg" viewBox="0 0 1600 900"><g id="Isotipo_oscuro"><path d="M803.79,280c-9.16,12.41-14.54,26.89-21.19,40.69-7.78,16.13-16.18,31.96-24.79,47.66-16.55,30.19-33.95,59.94-49.51,90.67-14.65,28.94-27.78,58.73-38.3,89.43-5.16,15.07-9.69,30.36-13.44,45.84-3.06,12.62-6.51,27.37-1.22,39.84,9.86,23.27,44.43,31.63,66.75,34.62,22.26,2.99,46.08,2,57.59-20.27,6.42-12.42,9.01-27.18,11.46-40.81,2.96-16.46,5.08-33.14,6.9-49.77,3.72-34.01,5.18-68.19,8.36-102.24,2.82-30.27,7.26-60.83,14.01-90.51,5.27-23.17,15.35-44.77,22-67.45,2.39-8.13-10.29-11.61-12.67-3.49-6.34,21.61-15.57,42.24-21.3,64.13-3.98,15.19-6.21,31.2-8.73,46.7-9.76,60-9.86,121.01-18.41,181.18-1.99,13.99-4.32,27.97-8.1,41.61-3.5,12.61-8.35,25.26-22.58,28.35-13.15,2.86-28.85,0-41.58-3.29-12.4-3.21-28.45-7.71-37.48-17.56-10.22-11.15-4.61-28.54-1.37-41.42,3.56-14.16,7.76-28.15,12.49-41.96,10.15-29.65,22.83-58.35,36.98-86.3,15.25-30.12,32.26-59.29,48.51-88.86,8.3-15.09,16.41-30.29,23.98-45.76,7.31-14.94,13.06-30.95,23-44.41,5.03-6.81-6.37-13.37-11.35-6.63h0Z" fill="#1e2535"/><path d="M738.78,671.03c-5.72,0-11.44-.55-16.84-1.28-25.45-3.42-57.83-12.31-67.53-35.23-5.49-12.97-1.8-28.22,1.17-40.47,3.65-15.04,8.18-30.49,13.47-45.93,9.85-28.74,22.39-58.03,38.36-89.56,10.68-21.1,22.42-42.07,33.77-62.35,5.19-9.28,10.56-18.87,15.76-28.35,10.34-18.86,17.98-33.55,24.77-47.62,1.67-3.47,3.29-7.04,4.86-10.5,4.68-10.32,9.51-20.98,16.43-30.35l.8.59-.8-.59c1.73-2.35,4.38-3.51,7.28-3.18,2.96.33,5.56,2.13,6.63,4.57.91,2.09.57,4.37-.95,6.43-7.12,9.65-12.17,20.83-17.05,31.64-1.88,4.16-3.82,8.46-5.86,12.62-6.6,13.49-14.01,27.62-24,45.8-4.86,8.85-9.88,17.8-14.72,26.47-11.35,20.29-23.09,41.27-33.77,62.36-15.43,30.48-27.51,58.67-36.92,86.17-4.81,14.06-9.01,28.16-12.46,41.88-.25,1.01-.52,2.04-.79,3.1-3.18,12.26-7.13,27.52,1.93,37.4,8.53,9.31,23.57,13.79,36.99,17.27,17.27,4.47,30.72,5.54,41.11,3.28,13.89-3.02,18.55-15.85,21.83-27.64,3.94-14.17,6.29-28.92,8.08-41.48,3.99-28.04,6.17-56.75,8.28-84.52,2.42-31.78,4.92-64.64,10.13-96.68.42-2.57.83-5.16,1.24-7.75,2.05-12.94,4.18-26.32,7.51-39.03,3.16-12.06,7.44-23.91,11.57-35.37,3.38-9.38,6.88-19.07,9.73-28.78,1.38-4.7,5.82-6.06,9.49-4.99,3.44,1.01,6.5,4.27,5.1,9.04-2.77,9.45-6.19,18.85-9.49,27.94-4.64,12.76-9.43,25.96-12.5,39.45-6.25,27.51-10.96,57.92-13.99,90.38-1.37,14.68-2.44,29.63-3.47,44.09-1.36,19.08-2.77,38.8-4.89,58.16-2.21,20.17-4.34,35.54-6.91,49.84l-.11.6c-2.49,13.82-5.06,28.11-11.45,40.48-9.1,17.6-25.44,22.08-41.77,22.08ZM809.31,278.17c-1.33,0-3.24.42-4.72,2.42-6.79,9.19-11.58,19.76-16.21,29.98-1.57,3.47-3.2,7.06-4.88,10.55-6.81,14.1-14.46,28.82-24.82,47.71-5.2,9.48-10.57,19.08-15.76,28.36-11.34,20.26-23.06,41.21-33.73,62.28-15.92,31.45-28.43,60.66-38.25,89.31-5.27,15.38-9.78,30.77-13.42,45.75-2.9,11.96-6.51,26.85-1.27,39.21,9.83,23.21,45.54,31.28,65.96,34.02,20.18,2.71,44.86,2.92,56.57-19.74,6.25-12.1,8.8-26.24,11.26-39.92l.11-.61c2.56-14.25,4.69-29.57,6.89-49.7,2.12-19.32,3.52-39.03,4.88-58.09,1.03-14.47,2.1-29.43,3.47-44.13,3.04-32.55,7.76-63.05,14.03-90.64,3.1-13.61,7.91-26.87,12.57-39.69,3.29-9.06,6.69-18.43,9.45-27.82,1.02-3.48-1.15-5.8-3.75-6.56-2.64-.77-5.95.03-7.01,3.63-2.87,9.77-6.38,19.5-9.77,28.9-4.12,11.42-8.39,23.23-11.52,35.2-3.31,12.62-5.42,25.95-7.47,38.84-.41,2.6-.82,5.19-1.24,7.76-5.2,31.96-7.7,64.78-10.11,96.51-2.11,27.8-4.3,56.54-8.3,84.65-1.79,12.63-4.16,27.46-8.13,41.73-3.43,12.35-8.35,25.8-23.33,29.06-10.71,2.33-24.46,1.25-42.04-3.3-13.7-3.54-29.06-8.14-37.96-17.85-9.79-10.68-5.69-26.53-2.39-39.26.27-1.05.54-2.08.79-3.08,3.47-13.78,7.68-27.93,12.51-42.04,9.44-27.59,21.56-55.86,37.03-86.42,10.7-21.13,22.45-42.13,33.81-62.43,4.85-8.66,9.86-17.61,14.72-26.45,9.98-18.15,17.37-32.25,23.96-45.71,2.02-4.13,3.96-8.41,5.83-12.56,4.93-10.91,10.02-22.19,17.27-32,1.09-1.48,1.34-3.02.72-4.44-.77-1.77-2.79-3.13-5.02-3.38-.21-.02-.46-.04-.72-.04Z" fill="#1e2535"/><path d="M854.11,275.54c-5.52-8.89-14.66-14.89-24.99-17.69-11.12-3.01-27.08-2.55-29.34,11.59-2.7,16.87,12.13,19.28,23.95,25.03,7.19,3.5,10.41,4.32,19.09,5.61,9.17,1.36,12.5-5.63,13.7-11.37.95-4.54.04-9.23-2.41-13.17ZM823.48,282.59c-2.84-1.17-9.16-4.32-11.29-6.34-3.43-3.25-1.45-7.15,3.11-8.09,11.23-2.32,30.43,7.03,31.34,17.95.78,9.39-23.15-3.52-23.15-3.52Z" fill="#1e2535"/><path d="M845.03,301.25c-.76,0-1.54-.06-2.35-.18-8.67-1.29-12.06-2.14-19.38-5.7-2.03-.99-4.2-1.9-6.29-2.77-10.11-4.23-20.56-8.6-18.21-23.31.75-4.73,3.01-8.33,6.7-10.71,8.24-5.33,20.37-2.64,23.89-1.68,11.1,3,20.18,9.44,25.58,18.12h0c2.63,4.22,3.53,9.16,2.54,13.9-1.67,8.04-6.06,12.34-12.47,12.34ZM818.15,257.35c-3.91,0-8.14.68-11.57,2.9-3.19,2.06-5.15,5.21-5.81,9.35-2.1,13.16,6.75,16.86,17,21.15,2.12.89,4.31,1.8,6.4,2.82,7.13,3.47,10.24,4.25,18.8,5.52,6.67.99,10.9-2.57,12.57-10.59.88-4.23.07-8.65-2.28-12.44-5.13-8.25-13.8-14.38-24.4-17.25-1.81-.49-6.03-1.47-10.71-1.47ZM842.93,290.5c-6.6,0-18.17-6.09-19.88-7.01-2.83-1.17-9.27-4.35-11.55-6.52-1.74-1.65-2.4-3.59-1.87-5.47.61-2.12,2.65-3.74,5.46-4.32,6.98-1.44,17.32,1.45,24.58,6.88,4.79,3.58,7.62,7.83,7.96,11.97.18,2.13-.75,3.2-1.56,3.73-.8.52-1.87.74-3.13.74ZM819.04,268.8c-1.25,0-2.45.11-3.54.34-2.04.42-3.55,1.54-3.95,2.91-.32,1.13.15,2.36,1.32,3.47,1.99,1.88,8.21,5,10.99,6.14l.09.04c6.52,3.52,17.99,8.36,21.02,6.38.33-.22.77-.65.67-1.9-.29-3.56-2.84-7.3-7.16-10.53-5.68-4.25-13.3-6.86-19.43-6.86Z" fill="#1e2535"/><path d="M666.8,297.29c-7.6-5.83-16.45-10.67-23.28-17.35s-13.01-15.45-18.16-23.59c-4.17-6.59-5.92-14.37,4.53-12.37,4.44.85,9.24,4.52,12.93,6.98,9.35,6.24,17.97,13.65,26.19,21.28,15.08,14,28.97,29.29,42.96,44.36,11.84,12.75,35.37,36.98,51.96,43.64,7.85,3.15,11.26-9.56,3.49-12.67-11.64-4.67-32.77-25.88-41.13-34.83-9.55-10.24-19.03-20.54-28.72-30.64-17.69-18.45-37.76-39.87-61.8-49.89-19.33-8.06-33.6,7.18-24.52,26.35,4.48,9.45,12.68,19.19,19.58,27.05,8.27,9.42,19.44,15.48,29.31,23.05,6.71,5.15,13.26-6.27,6.63-11.35h0Z" fill="#1e2535"/><path d="M766.34,361.74c-.86,0-1.79-.18-2.78-.57-12.22-4.9-29.83-19.67-52.32-43.89l-4.9-5.29c-12.15-13.12-24.72-26.68-38.01-39.02-6.77-6.29-15.86-14.38-26.07-21.19-.55-.37-1.13-.76-1.73-1.17-3.23-2.22-7.26-4.97-10.84-5.66-2.22-.42-5.09-.61-6.13.92-1.17,1.71-.15,5.52,2.64,9.94,6.46,10.21,12.35,17.87,18.01,23.41,4.28,4.19,9.48,7.72,14.51,11.14,2.9,1.97,5.89,4,8.67,6.14,4.07,3.12,3.87,8.41,1.33,11.72-1.98,2.59-5.59,3.96-9.18,1.21-3.04-2.33-6.27-4.56-9.39-6.72-7.02-4.85-14.27-9.87-20.06-16.46-7.69-8.76-15.4-18.12-19.73-27.28-4.42-9.33-3.69-18.77,1.9-24.63,5.57-5.84,14.51-6.99,23.9-3.07,23.51,9.8,43.18,30.34,60.54,48.45l1.6,1.67c7.3,7.61,14.6,15.46,21.66,23.06,2.36,2.53,4.71,5.07,7.07,7.6,10.09,10.82,30.03,30.28,40.77,34.59,4.7,1.89,5.92,6.98,4.39,10.82-.95,2.36-3.02,4.29-5.85,4.29ZM626.91,242.65c.95,0,2,.11,3.17.34,3.99.76,8.2,3.65,11.59,5.97.59.4,1.16.79,1.71,1.16,10.33,6.89,19.49,15.04,26.32,21.38,13.35,12.39,25.94,25.98,38.12,39.13l4.9,5.29c21.98,23.66,39.82,38.67,51.6,43.39,3.16,1.27,5.19-.51,6.02-2.6,1.17-2.92.27-6.8-3.27-8.22-13.62-5.46-38.67-32.06-41.49-35.08-2.36-2.53-4.72-5.06-7.07-7.6-7.05-7.59-14.35-15.43-21.63-23.03l-1.6-1.67c-17.22-17.97-36.74-38.35-59.86-47.99-8.6-3.59-16.71-2.61-21.69,2.6-5.08,5.33-5.66,13.7-1.54,22.39,4.23,8.93,11.84,18.17,19.43,26.82,5.63,6.41,12.78,11.35,19.7,16.14,3.14,2.17,6.39,4.42,9.47,6.78,2.66,2.04,5.04.9,6.37-.84,1.94-2.53,2.12-6.56-.96-8.92-2.74-2.1-5.71-4.12-8.58-6.07-5.1-3.47-10.38-7.05-14.79-11.37-5.86-5.73-11.67-13.29-18.3-23.77-1.57-2.49-4.98-8.65-2.6-12.13.95-1.39,2.62-2.09,4.99-2.09Z" fill="#1e2535"/><path d="M642.04,356.14c-3.96,15.53,12.1,26.67,24.33,32.57,13.08,6.31,28.88,10.77,42.77,4.68,7.73-3.39,1.05-14.72-6.63-11.35-7.82,3.43-18.49-.05-25.91-3.07-5.93-2.42-24.12-10.58-21.88-19.33,2.09-8.2-10.58-11.7-12.67-3.49h0Z" fill="#1e2535"/><path d="M694.74,397.27c-8.59,0-18.23-2.56-28.81-7.66-11.13-5.37-29.16-16.89-24.86-33.72h0c1.23-4.81,5.51-6.05,8.98-5.16,3.72.95,6.85,4.4,5.63,9.15-1.62,6.33,9.94,13.53,21.29,18.16,11.22,4.57,19.44,5.58,25.13,3.08,4.66-2.04,9.15.66,10.82,4.44,1.33,3.03.8,6.9-3.38,8.73-4.52,1.98-9.46,2.97-14.8,2.97ZM643.01,356.38c-3.94,15.45,13.22,26.32,23.79,31.42,16.61,8.01,30.72,9.58,41.94,4.66,3.11-1.36,3.25-4.05,2.35-6.1-1.27-2.89-4.67-4.95-8.18-3.42-8.28,3.63-19.2,0-26.69-3.06-7.55-3.08-24.84-11.23-22.48-20.51.93-3.65-1.52-6.04-4.19-6.72-2.61-.67-5.65.22-6.55,3.72h0Z" fill="#1e2535"/><path d="M633.84,314.61c-11.52,12.53-9.81,27.77,4.67,37.42,12.36,8.23,28.57,11.5,42.85,14.25,1.16-4.22,2.33-8.45,3.49-12.67-10.28-1.44-20.21-4.23-30.21-6.93-8.18-2.21-11.66,10.47-3.49,12.67,10,2.7,19.93,5.49,30.21,6.93,8.15,1.14,11.95-11.04,3.49-12.67-10.48-2.02-58.92-10.99-41.72-29.7,5.72-6.22-3.55-15.54-9.29-9.29h0Z" fill="#1e2535"/><path d="M682.08,367.43l-.88-.17c-9.63-1.35-19.1-3.92-28.25-6.4l-2.05-.55c-1.74-.47-3.04-1.38-3.92-2.51-3.15-1.42-6.18-3.05-9.02-4.94-7.34-4.89-11.67-11.23-12.52-18.35-.85-7.07,1.8-14.19,7.67-20.57,3.29-3.58,7.55-2.67,10.12-.31,2.82,2.59,4,7.31.65,10.96-3,3.26-4,6.24-3.06,9.1,2.44,7.4,17.16,13.75,43.74,18.85l.47.09,1.1.15-.03.12c3.7,1.19,4.92,4.47,4.43,7.4-.62,3.74-3.89,7.25-8.42,7.06l-.02.09ZM685.56,354.81l-2.9,10.53c3.17-.13,5.44-2.67,5.89-5.39.33-1.96-.32-4.24-2.99-5.14ZM648.3,356.19c10.46,4.63,22.27,6.98,32.34,8.92l2.95-10.69c-9.25-1.39-18.34-3.85-27.15-6.24l-2.06-.56c-3.57-.97-5.96,1.4-6.66,4.01-.4,1.49-.28,3.19.57,4.55ZM634.58,315.28h0c-5.46,5.94-7.94,12.51-7.16,18.98.79,6.52,4.81,12.37,11.65,16.93,2.1,1.4,4.32,2.65,6.61,3.78-.27-1.26-.22-2.6.11-3.85.77-2.87,3.06-5.35,6.27-5.68-6.46-2.93-11.65-6.61-13.15-11.15-1.17-3.56,0-7.29,3.49-11.08,2.5-2.72,1.63-6.15-.53-8.13-1.92-1.76-4.92-2.39-7.29.2Z" fill="#1e2535"/><path d="M639.66,282.62c-6.73,3.46-13.58,9.62-15.57,17.13-4.98,18.77,20.32,28.6,33.54,33.44,7.96,2.91,11.39-9.79,3.49-12.67-5.75-2.1-28.14-9.57-23.8-18.71,1.77-3.72,5.45-6.03,8.97-7.84,7.52-3.87.88-15.22-6.63-11.35h0Z" fill="#1e2535"/><path d="M659.91,334.63c-.85,0-1.73-.16-2.63-.49-11.82-4.32-39.52-14.45-34.16-34.63,1.83-6.88,7.84-13.52,16.08-17.77h0c4.45-2.29,8.73.12,10.5,3.56,1.58,3.06,1.33,7.36-2.95,9.57-3.29,1.69-6.87,3.89-8.53,7.38-.58,1.22-.61,2.42-.09,3.68,2.55,6.17,16.89,11.34,22.29,13.28l1.04.38c2.69.98,4.52,3.14,5,5.92.5,2.87-.54,5.96-2.6,7.68-1.14.95-2.5,1.44-3.96,1.44ZM640.12,283.51c-7.75,3.99-13.38,10.16-15.07,16.5-4.89,18.42,21.6,28.11,32.91,32.24,1.77.65,3.37.44,4.62-.6,1.52-1.28,2.29-3.61,1.91-5.8-.21-1.21-.98-3.39-3.72-4.39l-1.03-.37c-6.16-2.22-20.58-7.41-23.46-14.4-.74-1.79-.69-3.57.13-5.3,1.91-4.03,5.83-6.46,9.42-8.3,3.28-1.69,3.18-4.76,2.09-6.87-1.36-2.64-4.47-4.41-7.81-2.7h0Z" fill="#1e2535"/><path d="M963.31,376.51c11.01-6.04,27.95-13.69,28.19-28.38.4-24.31-38.05-15.26-51.7-12.65-22.16,4.24-44.12,10.74-65.89,16.63-19.92,5.39-39.95,10.97-58.95,19.11-6.72,2.88-.92,12.7,5.75,9.84,29.28-12.54,61.2-19.3,91.92-27.32,18.94-4.94,38.54-10.66,58.3-10.32,6.65.12,11.55,5.09,6.31,10.83-1.38,1.51-3.78,2.63-5.49,3.75-4.64,3.01-9.34,6.01-14.19,8.67-6.43,3.53-.69,13.38,5.75,9.84h0Z" fill="#1e2535"/><path d="M818.26,382.58c-1.49,0-2.96-.49-4.24-1.45-2.11-1.58-3.3-4.09-3.02-6.4.24-1.97,1.5-3.54,3.56-4.42,18.53-7.93,37.72-13.37,59.09-19.15,4.2-1.14,8.41-2.3,12.62-3.46,17.41-4.8,35.42-9.76,53.34-13.19.77-.15,1.62-.31,2.54-.5,12.21-2.41,34.95-6.91,45.21,1.67,3.5,2.92,5.23,7.12,5.14,12.48-.23,13.96-14.91,21.83-25.62,27.58-1.06.57-2.1,1.12-3.08,1.67-2.15,1.18-4.53,1.16-6.53-.05-2.16-1.31-3.57-3.84-3.52-6.3.05-2.23,1.23-4.09,3.33-5.24,5.02-2.76,9.93-5.9,14.13-8.63.5-.33,1.06-.65,1.63-.99,1.37-.8,2.78-1.63,3.67-2.6,1.79-1.96,2.36-3.87,1.65-5.52-.91-2.11-3.82-3.57-7.24-3.63-17.84-.32-35.68,4.39-52.92,8.94-1.71.45-3.41.9-5.11,1.34-6,1.57-12.16,3.11-18.12,4.61-24.67,6.19-50.17,12.6-73.67,22.66-.93.4-1.89.6-2.83.6ZM968.51,332.69c-9.39,0-19.65,2.03-25.98,3.28-.92.18-1.77.35-2.55.5-17.84,3.41-35.81,8.36-53.18,13.15-4.22,1.16-8.43,2.32-12.63,3.46-21.29,5.77-40.41,11.18-58.82,19.06-1.39.6-2.21,1.57-2.36,2.82-.19,1.59.71,3.42,2.23,4.57.89.67,2.73,1.63,5.09.62,23.64-10.12,49.22-16.55,73.97-22.76,5.95-1.49,12.1-3.04,18.1-4.6,1.7-.44,3.4-.89,5.1-1.34,17.38-4.58,35.35-9.33,53.47-9.01,4.26.08,7.81,1.98,9.04,4.84.6,1.39,1.13,4.23-2.01,7.66-1.09,1.19-2.71,2.14-4.13,2.97-.55.32-1.08.63-1.55.94-4.23,2.75-9.17,5.92-14.26,8.71-1.85,1.02-2.27,2.48-2.29,3.53-.04,1.77.99,3.59,2.56,4.55,1.39.84,3,.85,4.53,0,.99-.54,2.03-1.1,3.1-1.68,10.85-5.82,24.36-13.06,24.57-25.85.08-4.79-1.37-8.36-4.42-10.91-4.06-3.39-10.57-4.52-17.56-4.52Z" fill="#1e2535"/><path d="M900.96,414.46c7.32,1.01,26.34,2.38,25.2,13.06-1.1,10.34-21.31,9.21-28.82,9.36-22.31.47-42.13-4.54-59.12-19.26-5.52-4.78-13.62,3.25-8.06,8.06,11.58,10.03,23.53,16.94,38.7,20.15,15.84,3.36,35.79,4.72,51.55.19,11.27-3.24,19.32-10.88,16.54-23.27-3.36-14.97-19.83-17.49-32.96-19.29-7.17-.99-10.28,9.99-3.03,10.99h0Z" fill="#1e2535"/><path d="M897.35,449.93c-12.16,0-23.1-1.92-28.69-3.11-14.31-3.03-26.38-9.32-39.15-20.38-3.17-2.75-2.51-6.42-.56-8.68,2.28-2.63,6.53-3.83,9.93-.89,15.57,13.48,34.16,19.53,58.45,19.02.78-.02,1.69-.02,2.71-.02,8.47-.02,24.25-.07,25.14-8.45.94-8.81-14.14-10.69-22.24-11.7-.77-.1-1.48-.18-2.1-.27h0c-2.21-.3-3.83-1.47-4.57-3.29-.87-2.14-.39-4.87,1.23-6.96,1.62-2.09,4.04-3.09,6.64-2.73,12.76,1.75,30.23,4.15,33.8,20.06,2.61,11.63-3.67,20.54-17.24,24.45-7.57,2.18-15.69,2.94-23.34,2.94ZM834.43,417.15c-1.52,0-2.97.77-3.97,1.92-1.27,1.46-1.94,3.88.36,5.86,12.5,10.82,24.3,16.97,38.25,19.93,8.96,1.9,31.88,5.73,51.06.2,5.88-1.69,19.18-7.23,15.84-22.09-3.27-14.56-19.94-16.85-32.12-18.52-2.55-.35-4.1,1.09-4.79,1.97-1.17,1.51-1.56,3.51-.96,4.97.47,1.14,1.5,1.86,2.99,2.06.62.08,1.31.17,2.08.27,8.78,1.1,25.13,3.13,23.99,13.89-1.08,10.16-18.02,10.21-27.12,10.24-1,0-1.91,0-2.67.02-24.83.52-43.83-5.68-59.8-19.5-1-.86-2.09-1.23-3.14-1.23Z" fill="#1e2535"/><path d="M939.94,375.52c5.56-1.54,11.94-.29,17.41,1.14,2.1.55,6.52,1.3,8.05,3.06,3.48,4-2.07,6.51-5.1,7.49-11.06,3.55-20.01-.22-30.84-.5-7.34-.19-7.33,11.21,0,11.4,8.46.22,15.81,2.86,24.52,1.83,9.11-1.08,19.87-3.7,23.34-13.36,7.24-20.15-27.69-25.56-40.41-22.04-7.06,1.95-4.06,12.95,3.03,10.99h0Z" fill="#1e2535"/><path d="M949.85,401.17c-3.75,0-7.3-.53-10.76-1.04-3.11-.46-6.33-.94-9.65-1.03-2.45-.06-4.49-1.28-5.6-3.33-1.2-2.22-1.15-5.12.13-7.21,1.17-1.9,3.12-2.92,5.52-2.85,3.63.09,7.05.57,10.35,1.04,6.66.94,12.96,1.82,20.15-.49,3.05-.98,5.09-2.34,5.45-3.63.07-.25.28-1-.8-2.25-1.07-1.23-4.36-2-6.32-2.46-.46-.11-.88-.2-1.23-.3-5.36-1.39-11.55-2.62-16.89-1.14h0c-4.12,1.14-7.16-1.51-8.05-4.71-.89-3.22.37-7.07,4.49-8.21,9.9-2.74,30.61-.3,38.93,8.68,3.75,4.05,4.68,9.12,2.69,14.67-3.75,10.44-15.59,13-24.17,14.02-1.45.17-2.86.24-4.25.24ZM929.28,387.71c-2.01,0-3.07,1.03-3.6,1.9-.92,1.51-.96,3.6-.08,5.22.78,1.43,2.16,2.24,3.9,2.29,3.44.09,6.72.58,9.9,1.05,4.83.72,9.38,1.39,14.48.79,8.73-1.03,19.18-3.41,22.52-12.71,1.75-4.87.98-9.12-2.27-12.63-7.71-8.32-27.73-10.66-36.93-8.11-2.99.83-3.7,3.56-3.09,5.75.62,2.25,2.59,4.15,5.59,3.32,5.8-1.6,12.32-.33,17.93,1.13.34.09.74.18,1.18.28,2.48.58,5.88,1.37,7.37,3.09,1.19,1.37,1.6,2.74,1.22,4.1-.75,2.7-4.56,4.29-6.77,5-7.63,2.45-14.15,1.54-21.04.57-3.25-.46-6.62-.93-10.13-1.02-.05,0-.11,0-.16,0Z" fill="#1e2535"/><path d="M931.29,413.58c-5.04-.77-9.43,5.76-3.59,9.28h0c7.92,4.77,20.64,1.01,27.33-4.38,3.88-3.12,6.29-7.89,5.2-12.92-1.5-6.93-8.3-11.54-14.04-14.81-5.86-3.34-11.59,5.47-5.7,8.83,2.44,1.39,5.78,3.39,7.84,5.32,0,0,4.47,5.53-.19,8.1-2.66,1.47-4.91,1.68-7.66,2.27-.74.16-2.13.11-2.87-.04-1.95-.41-4.56-1.38-6.34-1.65Z" fill="#1e2535"/><path d="M936.54,426.05c-3.4,0-6.64-.71-9.35-2.33-2.8-1.69-3.9-4.27-2.95-6.91,1.04-2.87,4.14-4.69,7.2-4.22h0c1.05.16,2.34.54,3.59.91.97.28,1.97.58,2.8.75.66.14,1.9.16,2.45.04.53-.11,1.04-.21,1.54-.31,2.06-.4,3.83-.75,5.85-1.86.89-.49,1.4-1.11,1.55-1.9.33-1.7-1.02-3.88-1.62-4.64-2-1.87-5.29-3.82-7.59-5.13-1.91-1.09-2.97-2.79-2.98-4.81-.01-2.25,1.36-4.57,3.41-5.77,1.95-1.14,4.23-1.14,6.26.01,5.94,3.38,12.95,8.19,14.52,15.46,1.08,5.03-.99,10.23-5.56,13.91-4.92,3.96-12.33,6.79-19.13,6.79ZM930.46,414.51c-2.05,0-3.77,1.42-4.33,2.97-.61,1.7.15,3.34,2.1,4.51,7.14,4.29,19.3,1.24,26.19-4.3,3.96-3.19,5.78-7.65,4.85-11.93-1.4-6.5-7.98-10.98-13.56-14.15-1.9-1.08-3.48-.48-4.26-.03-1.46.85-2.43,2.48-2.42,4.04,0,1.29.69,2.35,1.97,3.08,2.42,1.38,5.88,3.44,8.03,5.47l.09.1c.11.13,2.65,3.32,2.07,6.33-.27,1.39-1.13,2.49-2.54,3.27-2.29,1.26-4.3,1.66-6.43,2.07-.49.1-.98.19-1.5.3-.9.19-2.45.13-3.28-.04-.91-.19-1.95-.5-2.95-.79-1.19-.35-2.42-.71-3.33-.85-.23-.04-.46-.05-.68-.05Z" fill="#1e2535"/></g></svg>