<?xml version="1.0" encoding="UTF-8"?><svg id="Isotipo" xmlns="http://www.w3.org/2000/svg" viewBox="0 0 1600 900"><g id="Isotipo_violeta"><path d="M803.8,280.01c-9.16,12.41-14.54,26.89-21.19,40.69-7.78,16.13-16.18,31.96-24.79,47.66-16.55,30.19-33.95,59.94-49.51,90.67-14.65,28.94-27.78,58.73-38.3,89.43-5.16,15.07-9.69,30.36-13.44,45.84-3.06,12.62-6.51,27.37-1.22,39.84,9.86,23.27,44.43,31.63,66.75,34.62,22.26,2.99,46.08,2,57.59-20.27,6.42-12.42,9.01-27.18,11.46-40.81,2.96-16.46,5.08-33.14,6.9-49.77,3.72-34.01,5.18-68.19,8.36-102.24,2.82-30.27,7.26-60.83,14.01-90.51,5.27-23.17,15.35-44.77,22-67.45,2.39-8.13-10.29-11.61-12.67-3.49-6.34,21.61-15.57,42.24-21.3,64.13-3.98,15.19-6.21,31.2-8.73,46.7-9.76,60-9.86,121.01-18.41,181.18-1.99,13.99-4.32,27.97-8.1,41.61-3.5,12.61-8.35,25.26-22.58,28.35-13.15,2.86-28.85,0-41.58-3.29-12.4-3.21-28.45-7.71-37.48-17.56-10.22-11.15-4.61-28.54-1.37-41.42,3.56-14.16,7.76-28.15,12.49-41.96,10.15-29.65,22.83-58.35,36.98-86.3,15.25-30.12,32.26-59.29,48.51-88.86,8.3-15.09,16.41-30.29,23.98-45.76,7.31-14.94,13.06-30.95,23-44.41,5.03-6.81-6.37-13.37-11.35-6.63h0Z" fill="#8f52bf"/><path d="M854.13,275.55c-5.52-8.89-14.66-14.89-24.99-17.69-11.12-3.01-27.08-2.55-29.34,11.59-2.7,16.87,12.13,19.28,23.95,25.03,7.19,3.5,10.41,4.32,19.09,5.61,9.17,1.36,12.5-5.63,13.7-11.37.95-4.54.04-9.23-2.41-13.17ZM823.49,282.6c-2.84-1.17-9.16-4.32-11.29-6.34-3.43-3.25-1.45-7.15,3.11-8.09,11.23-2.32,30.43,7.03,31.34,17.95.78,9.39-23.15-3.52-23.15-3.52Z" fill="#8f52bf"/><path d="M666.81,297.3c-7.6-5.83-16.45-10.67-23.28-17.35-6.87-6.73-13.01-15.45-18.16-23.59-4.17-6.59-5.92-14.37,4.53-12.37,4.44.85,9.24,4.52,12.93,6.98,9.35,6.24,17.97,13.65,26.19,21.28,15.08,14,28.97,29.29,42.96,44.36,11.84,12.75,35.37,36.98,51.96,43.64,7.85,3.15,11.26-9.56,3.49-12.67-11.64-4.67-32.77-25.88-41.13-34.83-9.55-10.24-19.03-20.54-28.72-30.64-17.69-18.45-37.76-39.87-61.8-49.89-19.33-8.06-33.6,7.18-24.52,26.35,4.48,9.45,12.68,19.19,19.58,27.05,8.27,9.42,19.44,15.48,29.31,23.05,6.71,5.15,13.26-6.27,6.63-11.35h0Z" fill="#8f52bf"/><path d="M642.06,356.15c-3.96,15.53,12.1,26.67,24.33,32.57,13.08,6.31,28.88,10.77,42.77,4.68,7.73-3.39,1.05-14.72-6.63-11.35-7.82,3.43-18.49-.05-25.91-3.07-5.93-2.42-24.12-10.58-21.88-19.33,2.09-8.2-10.58-11.7-12.67-3.49h0Z" fill="#8f52bf"/><path d="M633.86,314.62c-11.52,12.53-9.81,27.77,4.67,37.42,12.36,8.23,28.57,11.5,42.85,14.25,1.16-4.22,2.33-8.45,3.49-12.67-10.28-1.44-20.21-4.23-30.21-6.93-8.18-2.21-11.66,10.47-3.49,12.67,10,2.7,19.93,5.49,30.21,6.93,8.15,1.14,11.95-11.04,3.49-12.67-10.48-2.02-58.92-10.99-41.72-29.7,5.72-6.22-3.55-15.54-9.29-9.29h0Z" fill="#8f52bf"/><path d="M639.67,282.64c-6.73,3.46-13.58,9.62-15.57,17.13-4.98,18.77,20.32,28.6,33.54,33.44,7.96,2.91,11.39-9.79,3.49-12.67-5.75-2.1-28.14-9.57-23.8-18.71,1.77-3.72,5.45-6.03,8.97-7.84,7.52-3.87.88-15.22-6.63-11.35h0Z" fill="#8f52bf"/><path d="M963.32,376.52c11.01-6.04,27.95-13.69,28.19-28.38.4-24.31-38.05-15.26-51.7-12.65-22.16,4.24-44.12,10.74-65.89,16.63-19.92,5.39-39.95,10.97-58.95,19.11-6.72,2.88-.92,12.7,5.75,9.84,29.28-12.54,61.2-19.3,91.92-27.32,18.94-4.94,38.54-10.66,58.3-10.32,6.65.12,11.55,5.09,6.31,10.83-1.38,1.51-3.78,2.63-5.49,3.75-4.64,3.01-9.34,6.01-14.19,8.67-6.43,3.53-.69,13.38,5.75,9.84h0Z" fill="#8f52bf"/><path d="M900.98,414.47c7.32,1.01,26.34,2.38,25.2,13.06-1.1,10.34-21.31,9.21-28.82,9.36-22.31.47-42.13-4.54-59.12-19.26-5.52-4.78-13.62,3.25-8.06,8.06,11.58,10.03,23.53,16.94,38.7,20.15,15.84,3.36,35.79,4.72,51.55.19,11.27-3.24,19.32-10.88,16.54-23.27-3.36-14.97-19.83-17.49-32.96-19.29-7.17-.99-10.28,9.99-3.03,10.99h0Z" fill="#8f52bf"/><path d="M939.95,375.54c5.56-1.54,11.94-.29,17.41,1.14,2.1.55,6.52,1.3,8.05,3.06,3.48,4-2.07,6.51-5.1,7.49-11.06,3.55-20.01-.22-30.84-.5-7.34-.19-7.33,11.21,0,11.4,8.46.22,15.81,2.86,24.52,1.83,9.11-1.08,19.87-3.7,23.34-13.36,7.24-20.15-27.69-25.56-40.41-22.04-7.06,1.95-4.06,12.95,3.03,10.99h0Z" fill="#8f52bf"/><path d="M931.31,413.59c-5.04-.77-9.43,5.76-3.59,9.28h0c7.92,4.77,20.64,1.01,27.33-4.38,3.88-3.12,6.29-7.89,5.2-12.92-1.5-6.93-8.3-11.54-14.04-14.81-5.86-3.34-11.59,5.47-5.7,8.83,2.44,1.39,5.78,3.39,7.84,5.32,0,0,4.47,5.53-.19,8.1-2.66,1.47-4.91,1.68-7.66,2.27-.74.16-2.13.11-2.87-.04-1.95-.41-4.56-1.38-6.34-1.65Z" fill="#8f52bf"/></g></svg>