<?xml version="1.0" encoding="UTF-8"?><svg id="Isotipo" xmlns="http://www.w3.org/2000/svg" viewBox="0 0 1600 900"><g id="Isotipo_claro"><path d="M803.79,280c-9.16,12.41-14.54,26.89-21.19,40.69-7.78,16.13-16.18,31.96-24.79,47.66-16.55,30.19-33.95,59.94-49.51,90.67-14.65,28.94-27.78,58.73-38.3,89.43-5.16,15.07-9.69,30.36-13.44,45.84-3.06,12.62-6.51,27.37-1.22,39.84,9.86,23.27,44.43,31.63,66.75,34.62,22.26,2.99,46.08,2,57.59-20.27,6.42-12.42,9.01-27.18,11.46-40.81,2.96-16.46,5.08-33.14,6.9-49.77,3.72-34.01,5.18-68.19,8.36-102.24,2.82-30.27,7.26-60.83,14.01-90.51,5.27-23.17,15.35-44.77,22-67.45,2.39-8.13-10.29-11.61-12.67-3.49-6.34,21.61-15.57,42.24-21.3,64.13-3.98,15.19-6.21,31.2-8.73,46.7-9.76,60-9.86,121.01-18.41,181.18-1.99,13.99-4.32,27.97-8.1,41.61-3.5,12.61-8.35,25.26-22.58,28.35-13.15,2.86-28.85,0-41.58-3.29-12.4-3.21-28.45-7.71-37.48-17.56-10.22-11.15-4.61-28.54-1.37-41.42,3.56-14.16,7.76-28.15,12.49-41.96,10.15-29.65,22.83-58.35,36.98-86.3,15.25-30.12,32.26-59.29,48.51-88.86,8.3-15.09,16.41-30.29,23.98-45.76,7.31-14.94,13.06-30.95,23-44.41,5.03-6.81-6.37-13.37-11.35-6.63h0Z" fill="#eaeaea"/><path d="M738.78,671.03c-5.72,0-11.44-.55-16.84-1.28-25.45-3.42-57.83-12.31-67.54-35.23-5.5-12.98-1.8-28.22,1.17-40.47,3.65-15.04,8.18-30.49,13.47-45.93,9.85-28.74,22.39-58.03,38.36-89.56,10.68-21.1,22.42-42.07,33.77-62.35,5.19-9.28,10.56-18.87,15.76-28.35,10.33-18.85,17.97-33.54,24.77-47.62,1.67-3.47,3.3-7.05,4.86-10.51,4.68-10.31,9.51-20.98,16.43-30.34l.8.59-.8-.59c1.73-2.35,4.39-3.5,7.28-3.18,2.96.33,5.56,2.13,6.63,4.57.91,2.08.57,4.37-.95,6.43-7.12,9.65-12.17,20.83-17.06,31.64-1.88,4.16-3.82,8.46-5.85,12.61-6.6,13.49-14,27.61-24,45.8-4.86,8.85-9.87,17.8-14.72,26.46-11.36,20.29-23.1,41.27-33.77,62.36-15.43,30.49-27.51,58.67-36.92,86.17-4.81,14.06-9.01,28.15-12.46,41.88-.25,1.01-.52,2.04-.79,3.1-3.17,12.26-7.13,27.52,1.93,37.4,8.53,9.31,23.56,13.79,36.99,17.27,17.27,4.47,30.72,5.54,41.11,3.28,13.9-3.02,18.55-15.85,21.83-27.64,3.94-14.16,6.29-28.92,8.08-41.48,3.99-28.04,6.17-56.75,8.28-84.51,2.42-31.78,4.92-64.64,10.13-96.69.42-2.57.83-5.16,1.24-7.75,2.05-12.94,4.18-26.32,7.51-39.04,3.16-12.06,7.44-23.91,11.57-35.37,3.38-9.38,6.88-19.07,9.73-28.79.78-2.67,2.63-4.49,5.21-5.11,2.76-.67,5.92.24,7.86,2.26,1.75,1.84,2.3,4.29,1.53,6.91-2.77,9.45-6.19,18.85-9.49,27.94-4.63,12.76-9.43,25.96-12.5,39.45-6.25,27.5-10.96,57.91-13.99,90.38-1.37,14.68-2.44,29.63-3.47,44.1-1.36,19.07-2.77,38.8-4.89,58.16-2.21,20.18-4.34,35.55-6.91,49.84l-.11.61c-2.49,13.82-5.06,28.11-11.45,40.48-9.1,17.6-25.44,22.08-41.77,22.08ZM809.31,278.17c-1.33,0-3.24.42-4.72,2.42h0c-6.79,9.19-11.58,19.76-16.21,29.98-1.57,3.47-3.2,7.06-4.89,10.55-6.81,14.11-14.46,28.83-24.82,47.71-5.2,9.49-10.57,19.08-15.77,28.36-11.34,20.26-23.06,41.21-33.73,62.28-15.92,31.44-28.43,60.66-38.25,89.31-5.27,15.38-9.79,30.78-13.42,45.75-2.9,11.96-6.51,26.85-1.27,39.22,9.83,23.21,45.54,31.28,65.96,34.02,20.19,2.71,44.86,2.92,56.57-19.74,6.25-12.1,8.8-26.24,11.26-39.92l.11-.61c2.56-14.24,4.69-29.56,6.89-49.7,2.12-19.32,3.52-39.03,4.88-58.08,1.03-14.47,2.1-29.44,3.47-44.14,3.04-32.55,7.76-63.05,14.03-90.64,3.1-13.61,7.91-26.87,12.57-39.69,3.29-9.06,6.69-18.43,9.45-27.82.72-2.44-.18-4.05-1.06-4.97-1.46-1.52-3.84-2.21-5.94-1.7-1.85.45-3.18,1.78-3.76,3.73-2.87,9.77-6.38,19.5-9.77,28.9-4.12,11.42-8.38,23.23-11.52,35.2-3.31,12.62-5.42,25.96-7.47,38.85-.41,2.6-.82,5.18-1.24,7.76-5.2,31.97-7.7,64.79-10.11,96.52-2.11,27.8-4.3,56.54-8.3,84.64-1.8,12.63-4.17,27.46-8.13,41.73-3.43,12.35-8.35,25.8-23.33,29.06-10.71,2.32-24.46,1.25-42.04-3.3-13.7-3.54-29.06-8.14-37.96-17.85-9.79-10.68-5.69-26.53-2.39-39.25.27-1.05.54-2.08.79-3.08,3.47-13.78,7.68-27.93,12.51-42.04,9.44-27.58,21.56-55.85,37.03-86.42,10.7-21.13,22.45-42.13,33.81-62.44,4.84-8.66,9.85-17.61,14.71-26.45,9.98-18.16,17.37-32.26,23.96-45.71,2.02-4.12,3.96-8.41,5.83-12.56,4.93-10.91,10.02-22.19,17.27-32.01,1.09-1.48,1.34-3.02.72-4.44-.77-1.77-2.79-3.13-5.02-3.38-.21-.02-.46-.04-.72-.04Z" fill="#eaeaea"/><path d="M854.11,275.54c-5.52-8.89-14.66-14.89-24.99-17.69-11.12-3.01-27.08-2.55-29.34,11.59-2.7,16.87,12.13,19.28,23.95,25.03,7.19,3.5,10.41,4.32,19.09,5.61,9.17,1.36,12.5-5.63,13.7-11.37.95-4.54.04-9.23-2.41-13.17ZM823.47,282.59c-2.84-1.17-9.16-4.32-11.29-6.34-3.43-3.25-1.45-7.15,3.11-8.09,11.23-2.32,30.43,7.03,31.34,17.95.78,9.39-23.15-3.52-23.15-3.52Z" fill="#eaeaea"/><path d="M845.03,301.25c-.76,0-1.54-.06-2.35-.18-8.67-1.29-12.06-2.14-19.38-5.7-2.03-.99-4.2-1.89-6.29-2.77-10.11-4.23-20.56-8.6-18.21-23.31.75-4.72,3.01-8.33,6.7-10.71,8.24-5.33,20.37-2.64,23.89-1.68,11.1,3,20.18,9.44,25.58,18.12h0c2.63,4.23,3.53,9.16,2.54,13.9-1.67,8.03-6.06,12.34-12.47,12.34ZM818.15,257.35c-3.91,0-8.14.68-11.57,2.9-3.19,2.06-5.15,5.21-5.81,9.35-2.1,13.16,6.75,16.86,17,21.15,2.12.89,4.31,1.8,6.39,2.82,7.13,3.47,10.24,4.25,18.8,5.52,6.67.99,10.9-2.57,12.57-10.59.88-4.23.07-8.65-2.28-12.44h0c-5.13-8.25-13.8-14.38-24.4-17.25-1.81-.49-6.03-1.47-10.71-1.47ZM842.93,290.5c-6.6,0-18.17-6.09-19.88-7.01-2.83-1.17-9.27-4.35-11.55-6.52-1.74-1.65-2.4-3.59-1.87-5.47.6-2.12,2.65-3.74,5.46-4.33,6.99-1.44,17.32,1.45,24.58,6.88,4.79,3.58,7.62,7.83,7.96,11.97.18,2.13-.75,3.21-1.56,3.74-.79.52-1.87.74-3.13.74ZM819.04,268.8c-1.25,0-2.45.11-3.54.34-2.04.42-3.55,1.54-3.95,2.91-.32,1.13.15,2.36,1.32,3.47,1.99,1.88,8.21,5,10.99,6.14l.09.04c6.52,3.52,17.99,8.36,21.02,6.38.34-.22.77-.65.67-1.9-.29-3.56-2.84-7.3-7.17-10.53-5.68-4.25-13.3-6.86-19.43-6.86Z" fill="#eaeaea"/><path d="M666.8,297.29c-7.6-5.83-16.45-10.67-23.28-17.35-6.87-6.73-13.01-15.45-18.16-23.59-4.17-6.59-5.92-14.37,4.53-12.37,4.44.85,9.24,4.52,12.93,6.98,9.35,6.24,17.97,13.65,26.19,21.28,15.08,14,28.97,29.29,42.96,44.36,11.84,12.75,35.37,36.98,51.96,43.64,7.85,3.15,11.26-9.56,3.49-12.67-11.64-4.67-32.77-25.88-41.13-34.83-9.55-10.24-19.03-20.54-28.72-30.64-17.69-18.45-37.76-39.87-61.8-49.89-19.33-8.06-33.6,7.18-24.52,26.35,4.48,9.45,12.68,19.19,19.58,27.05,8.27,9.42,19.44,15.48,29.31,23.05,6.71,5.15,13.26-6.27,6.63-11.35h0Z" fill="#eaeaea"/><path d="M766.34,361.74c-.86,0-1.79-.18-2.78-.57-12.22-4.9-29.82-19.67-52.32-43.88l-4.88-5.26c-12.16-13.13-24.73-26.7-38.04-39.05-6.78-6.29-15.87-14.38-26.07-21.19-.55-.37-1.13-.77-1.73-1.17-3.23-2.22-7.26-4.97-10.84-5.66-2.22-.43-5.09-.61-6.13.92-1.17,1.71-.15,5.52,2.64,9.94,6.46,10.21,12.35,17.87,18.01,23.41,4.28,4.19,9.48,7.72,14.51,11.14,2.9,1.97,5.89,4,8.68,6.14,2.34,1.8,3.46,4.52,3.08,7.47-.39,2.96-2.21,5.53-4.63,6.53-2.06.85-4.29.47-6.29-1.06-3.04-2.33-6.27-4.56-9.39-6.72-7.02-4.85-14.28-9.87-20.07-16.46-7.69-8.76-15.4-18.13-19.73-27.28-4.42-9.33-3.69-18.77,1.9-24.63,5.57-5.84,14.5-6.99,23.9-3.07,23.51,9.8,43.18,30.33,60.53,48.45l1.6,1.67c7.3,7.62,14.6,15.47,21.67,23.07,2.35,2.53,4.7,5.06,7.06,7.59,10.09,10.82,30.04,30.28,40.77,34.59,4.71,1.89,5.92,6.98,4.39,10.82-.95,2.36-3.02,4.29-5.85,4.29ZM626.91,242.65c.95,0,2,.11,3.17.33,3.99.76,8.2,3.65,11.59,5.97.59.4,1.16.8,1.71,1.16,10.32,6.88,19.49,15.04,26.32,21.38,13.36,12.4,25.96,26,38.14,39.16l4.87,5.26c21.98,23.66,39.82,38.67,51.6,43.39,3.17,1.27,5.19-.51,6.02-2.6,1.17-2.92.27-6.79-3.27-8.22-13.61-5.46-38.67-32.06-41.49-35.08-2.36-2.53-4.71-5.06-7.06-7.59-7.06-7.59-14.35-15.44-21.64-23.04l-1.61-1.67c-17.22-17.97-36.74-38.34-59.86-47.99-8.6-3.59-16.71-2.61-21.68,2.6-5.08,5.33-5.66,13.7-1.54,22.4,4.23,8.93,11.84,18.17,19.43,26.82,5.63,6.41,12.78,11.35,19.7,16.14,3.14,2.17,6.39,4.42,9.47,6.78,1.43,1.1,2.92,1.38,4.31.8,1.75-.72,3.12-2.71,3.41-4.94.17-1.31.1-3.77-2.31-5.62h0c-2.74-2.1-5.71-4.12-8.58-6.07-5.1-3.46-10.38-7.05-14.78-11.36-5.86-5.74-11.67-13.29-18.3-23.78-1.57-2.49-4.98-8.65-2.6-12.13.95-1.39,2.62-2.09,4.99-2.09Z" fill="#eaeaea"/><path d="M642.04,356.14c-3.96,15.53,12.1,26.67,24.33,32.57,13.08,6.31,28.88,10.77,42.77,4.68,7.73-3.39,1.05-14.72-6.63-11.35-7.82,3.43-18.49-.05-25.91-3.07-5.93-2.42-24.12-10.58-21.88-19.33,2.09-8.2-10.58-11.7-12.67-3.49h0Z" fill="#eaeaea"/><path d="M694.74,397.27c-8.59,0-18.22-2.56-28.8-7.66-11.13-5.37-29.15-16.89-24.86-33.72h0c.67-2.63,2.39-4.46,4.83-5.15,2.69-.75,5.87.07,7.91,2.07,1.9,1.85,2.57,4.37,1.88,7.07-1.61,6.33,9.94,13.53,21.29,18.16,11.21,4.57,19.43,5.58,25.13,3.08,2.69-1.18,5.59-.86,7.95.88,2.4,1.77,3.77,4.61,3.48,7.24-.25,2.24-1.67,4.04-3.99,5.06-4.52,1.98-9.46,2.97-14.8,2.97ZM647.98,352.46c-.52,0-1.04.07-1.54.21-1.22.34-2.8,1.27-3.43,3.72h0c-3.94,15.45,13.22,26.32,23.79,31.42,16.61,8.01,30.72,9.58,41.94,4.66,1.67-.73,2.64-1.92,2.81-3.44.21-1.91-.86-4.08-2.67-5.41-1.04-.77-3.2-1.87-5.96-.66-8.27,3.63-19.19,0-26.69-3.06-7.55-3.08-24.84-11.23-22.48-20.51.51-1.98.03-3.81-1.34-5.15-1.17-1.14-2.82-1.78-4.43-1.78Z" fill="#eaeaea"/><path d="M633.84,314.61c-11.52,12.53-9.81,27.77,4.67,37.42,12.36,8.23,28.57,11.5,42.85,14.25,1.16-4.22,2.33-8.45,3.49-12.67-10.28-1.44-20.21-4.23-30.21-6.93-8.18-2.21-11.66,10.47-3.49,12.67,10,2.7,19.93,5.49,30.21,6.93,8.15,1.14,11.95-11.04,3.49-12.67-10.48-2.02-58.92-10.99-41.72-29.7,5.72-6.22-3.55-15.54-9.29-9.29h0Z" fill="#eaeaea"/><path d="M682.08,367.43l-.88-.17c-9.63-1.35-19.11-3.92-28.27-6.4l-2.04-.55c-1.74-.47-3.04-1.38-3.92-2.51-3.15-1.42-6.18-3.05-9.02-4.94-7.34-4.89-11.67-11.23-12.52-18.35-.85-7.07,1.8-14.19,7.67-20.57h0c1.82-1.97,4.14-2.76,6.55-2.23,2.69.6,5.07,2.85,5.93,5.59.8,2.57.18,5.22-1.71,7.28-3,3.26-4,6.24-3.06,9.1,2.44,7.41,17.16,13.75,43.74,18.85l.46.09,1.1.15-.03.12c3.7,1.19,4.92,4.47,4.43,7.4-.62,3.74-3.91,7.22-8.42,7.06l-.02.09ZM685.55,354.81l-2.9,10.53c3.17-.13,5.44-2.67,5.89-5.39.33-1.96-.33-4.24-2.99-5.14ZM648.25,356.18c10.47,4.64,22.29,7,32.38,8.94l2.95-10.69c-9.26-1.39-18.36-3.86-27.17-6.24l-2.03-.55c-3.57-.96-5.96,1.41-6.66,4.01-.41,1.52-.3,3.2.53,4.53ZM638.2,313.54c-1.07,0-2.37.39-3.62,1.74h0c-5.46,5.94-7.94,12.51-7.16,18.98.79,6.52,4.81,12.37,11.65,16.93,2.1,1.4,4.32,2.65,6.61,3.78-.27-1.26-.22-2.6.11-3.84.77-2.87,3.06-5.35,6.27-5.68-6.46-2.93-11.65-6.61-13.15-11.15-1.17-3.56,0-7.29,3.49-11.08,1.42-1.54,1.87-3.43,1.28-5.33-.65-2.09-2.45-3.79-4.46-4.24-.31-.07-.65-.11-1.02-.11Z" fill="#eaeaea"/><path d="M639.66,282.62c-6.73,3.46-13.58,9.62-15.57,17.13-4.98,18.77,20.32,28.6,33.54,33.44,7.96,2.91,11.39-9.79,3.49-12.67-5.75-2.1-28.14-9.57-23.8-18.71,1.77-3.72,5.45-6.03,8.97-7.84,7.52-3.87.88-15.22-6.63-11.35h0Z" fill="#eaeaea"/><path d="M659.94,334.64c-.82,0-1.71-.16-2.66-.5-11.82-4.32-39.52-14.45-34.16-34.63,1.83-6.88,7.84-13.52,16.08-17.77h0c2.5-1.29,5.26-1.19,7.55.29,2.43,1.56,3.97,4.45,3.84,7.18-.12,2.43-1.48,4.44-3.84,5.65-3.29,1.69-6.87,3.9-8.53,7.38-.58,1.22-.61,2.42-.09,3.68,2.54,6.17,16.89,11.33,22.29,13.28l1.04.38c4.81,1.76,5.96,6.67,4.6,10.4-.93,2.54-3.09,4.65-6.12,4.65ZM642.78,282.83c-.88,0-1.78.23-2.66.68h0c-7.75,3.99-13.38,10.16-15.07,16.5-4.89,18.42,21.6,28.11,32.92,32.24,3.34,1.22,5.43-.83,6.21-2.96,1.03-2.82.19-6.52-3.41-7.84l-1.03-.37c-6.16-2.22-20.57-7.41-23.46-14.4-.74-1.79-.69-3.57.13-5.3,1.91-4.03,5.83-6.46,9.42-8.3,2.18-1.12,2.7-2.78,2.76-3.97.1-2.04-1.08-4.21-2.93-5.4-.9-.58-1.88-.87-2.89-.87Z" fill="#eaeaea"/><path d="M963.31,376.51c11.01-6.04,27.95-13.69,28.19-28.38.4-24.31-38.05-15.26-51.7-12.65-22.16,4.24-44.12,10.74-65.89,16.63-19.92,5.39-39.95,10.97-58.95,19.11-6.72,2.88-.92,12.7,5.75,9.84,29.28-12.54,61.2-19.3,91.92-27.32,18.94-4.94,38.54-10.66,58.3-10.32,6.65.12,11.55,5.09,6.31,10.83-1.38,1.51-3.78,2.63-5.49,3.75-4.64,3.01-9.34,6.01-14.19,8.67-6.43,3.53-.69,13.38,5.75,9.84h0Z" fill="#eaeaea"/><path d="M818.26,382.58c-3.03,0-5.64-2.04-6.75-4.63-1.14-2.67-.64-6.06,3.05-7.64,18.53-7.94,37.72-13.37,59.09-19.15,4.2-1.14,8.41-2.3,12.62-3.46,17.41-4.8,35.42-9.76,53.34-13.19.77-.15,1.62-.32,2.54-.5,12.21-2.41,34.95-6.91,45.21,1.67,3.5,2.92,5.23,7.12,5.14,12.48-.23,13.96-14.91,21.83-25.62,27.58-1.06.57-2.1,1.12-3.08,1.67h0c-3.83,2.1-7.5.17-9.15-2.82-1.51-2.75-1.39-6.67,2.43-8.77,5.04-2.76,9.93-5.9,14.13-8.63.5-.33,1.06-.65,1.63-.99,1.37-.8,2.78-1.62,3.67-2.6,1.79-1.96,2.36-3.87,1.65-5.52-.91-2.11-3.82-3.57-7.24-3.63-17.82-.29-35.67,4.39-52.92,8.94-1.71.45-3.41.9-5.11,1.34-6,1.57-12.16,3.11-18.11,4.61-24.67,6.19-50.18,12.6-73.67,22.66-.96.41-1.92.6-2.84.6ZM968.51,332.69c-9.39,0-19.65,2.03-25.98,3.28-.92.18-1.78.35-2.55.5-17.84,3.41-35.81,8.37-53.18,13.16-4.22,1.16-8.43,2.32-12.63,3.46-21.29,5.76-40.41,11.18-58.82,19.06-3.25,1.39-2.35,4.19-2,5.02,1.06,2.48,3.95,4.27,6.96,2.98,23.64-10.12,49.23-16.55,73.98-22.76,5.95-1.49,12.1-3.04,18.09-4.6,1.7-.44,3.4-.89,5.11-1.34,17.37-4.58,35.3-9.31,53.46-9.01,4.26.08,7.81,1.98,9.04,4.84.6,1.39,1.13,4.23-2.01,7.66-1.09,1.19-2.71,2.14-4.13,2.97-.54.32-1.08.63-1.55.94-4.23,2.75-9.16,5.91-14.26,8.71-2.64,1.45-2.72,4.08-1.64,6.06,1.13,2.06,3.62,3.57,6.43,2.03.99-.54,2.03-1.1,3.1-1.67,10.85-5.82,24.36-13.06,24.57-25.85.08-4.79-1.37-8.36-4.42-10.91-4.06-3.39-10.57-4.52-17.56-4.52Z" fill="#eaeaea"/><path d="M900.96,414.46c7.32,1.01,26.34,2.38,25.2,13.06-1.1,10.34-21.31,9.21-28.82,9.36-22.31.47-42.13-4.54-59.12-19.26-5.52-4.78-13.62,3.25-8.06,8.06,11.58,10.03,23.53,16.94,38.7,20.15,15.84,3.36,35.79,4.72,51.55.19,11.27-3.24,19.32-10.88,16.54-23.27-3.36-14.97-19.83-17.49-32.96-19.29-7.17-.99-10.28,9.99-3.03,10.99h0Z" fill="#eaeaea"/><path d="M897.35,449.93c-12.16,0-23.1-1.92-28.69-3.11-14.31-3.04-26.38-9.32-39.15-20.38-1.76-1.52-2.51-3.5-2.11-5.58.45-2.34,2.38-4.48,4.81-5.32,2.33-.81,4.76-.32,6.67,1.33,15.57,13.48,34.13,19.51,58.45,19.01.78-.02,1.69-.02,2.71-.02,8.47-.02,24.25-.07,25.14-8.45.93-8.8-14.14-10.69-22.24-11.7-.77-.1-1.48-.18-2.1-.27-3.95-.54-5.32-3.65-4.93-6.5.5-3.67,3.73-7.1,8.23-6.48,12.76,1.75,30.23,4.15,33.8,20.06,2.61,11.63-3.67,20.54-17.24,24.45-7.57,2.18-15.7,2.94-23.34,2.94ZM834.45,417.16c-.64,0-1.19.13-1.59.27-1.77.61-3.18,2.14-3.5,3.81-.26,1.36.24,2.64,1.45,3.69,12.5,10.82,24.29,16.97,38.25,19.93,8.96,1.9,31.87,5.73,51.06.2,5.87-1.69,19.18-7.23,15.84-22.09-3.27-14.55-19.94-16.85-32.12-18.52-3.28-.44-5.61,2.07-5.98,4.77-.12.88-.24,3.77,3.22,4.24h0c.62.08,1.32.17,2.08.27,8.78,1.1,25.12,3.13,23.98,13.89-1.08,10.16-18.02,10.21-27.12,10.24-1,0-1.9,0-2.67.02-24.84.52-43.83-5.68-59.8-19.5-1.09-.94-2.19-1.22-3.11-1.22Z" fill="#eaeaea"/><path d="M939.94,375.52c5.56-1.54,11.94-.29,17.41,1.14,2.1.55,6.52,1.3,8.05,3.06,3.48,4-2.07,6.51-5.1,7.49-11.06,3.55-20.01-.22-30.84-.5-7.34-.19-7.33,11.21,0,11.4,8.46.22,15.81,2.86,24.52,1.83,9.11-1.08,19.87-3.7,23.34-13.36,7.24-20.15-27.69-25.56-40.41-22.04-7.06,1.95-4.06,12.95,3.03,10.99h0Z" fill="#eaeaea"/><path d="M949.85,401.17c-3.75,0-7.3-.53-10.76-1.04-3.11-.46-6.33-.94-9.66-1.03-4.37-.12-6.56-3.63-6.47-7.04.08-3.14,2.16-6.45,6.52-6.35,3.63.1,7.05.58,10.35,1.04,6.66.93,12.96,1.82,20.15-.49,3.05-.98,5.09-2.34,5.45-3.63.07-.25.28-1-.8-2.25-1.07-1.23-4.35-2-6.32-2.46-.46-.11-.88-.21-1.23-.3-5.35-1.39-11.55-2.61-16.89-1.14h0c-4.12,1.14-7.16-1.51-8.05-4.71-.89-3.22.37-7.07,4.49-8.21,9.9-2.74,30.61-.3,38.93,8.68,3.75,4.05,4.68,9.12,2.69,14.67-3.75,10.44-15.59,13-24.17,14.02-1.45.17-2.86.24-4.25.24ZM929.28,387.71c-2.9,0-4.26,2.2-4.32,4.41-.06,2.35,1.33,4.91,4.53,4.99,3.44.09,6.72.58,9.9,1.05,4.83.72,9.38,1.39,14.48.79,8.73-1.03,19.18-3.41,22.52-12.71,1.75-4.87.99-9.12-2.27-12.63-7.71-8.32-27.73-10.66-36.93-8.11-2.99.83-3.7,3.56-3.09,5.75.62,2.25,2.59,4.15,5.59,3.32,5.8-1.6,12.32-.33,17.93,1.13.34.09.74.18,1.18.29,2.48.58,5.88,1.38,7.37,3.09,1.19,1.37,1.6,2.74,1.22,4.1-.75,2.7-4.56,4.29-6.77,5-7.63,2.45-14.15,1.54-21.04.57-3.25-.46-6.62-.93-10.13-1.02-.05,0-.1,0-.15,0Z" fill="#eaeaea"/><path d="M931.29,413.58c-5.04-.77-9.43,5.76-3.59,9.28h0c7.92,4.77,20.64,1.01,27.33-4.38,3.88-3.12,6.29-7.89,5.2-12.92-1.5-6.93-8.3-11.54-14.04-14.81-5.86-3.34-11.59,5.47-5.7,8.83,2.44,1.39,5.78,3.39,7.84,5.32,0,0,4.47,5.53-.19,8.1-2.66,1.47-4.91,1.68-7.66,2.27-.74.16-2.13.11-2.87-.04-1.95-.41-4.56-1.38-6.34-1.65Z" fill="#eaeaea"/><path d="M936.54,426.05c-3.4,0-6.64-.71-9.35-2.33-2.8-1.69-3.9-4.27-2.95-6.91,1.04-2.87,4.14-4.68,7.2-4.21h0c1.05.16,2.34.54,3.59.91.97.28,1.97.58,2.8.75.66.14,1.9.16,2.45.04.53-.11,1.04-.21,1.54-.31,2.06-.4,3.83-.75,5.84-1.86.89-.49,1.39-1.11,1.55-1.9.33-1.69-1.02-3.88-1.62-4.64-2-1.86-5.29-3.82-7.59-5.13-1.91-1.09-2.97-2.79-2.98-4.8-.01-2.25,1.36-4.57,3.41-5.77,1.95-1.14,4.23-1.14,6.26.01,5.94,3.38,12.95,8.19,14.52,15.47,1.09,5.03-.99,10.23-5.55,13.91-4.92,3.96-12.33,6.79-19.13,6.79ZM930.46,414.51c-2.05,0-3.77,1.42-4.33,2.97-.61,1.7.15,3.34,2.1,4.52,7.14,4.29,19.3,1.24,26.19-4.3,3.96-3.19,5.78-7.65,4.85-11.93-1.4-6.5-7.98-10.98-13.55-14.15-1.9-1.08-3.48-.48-4.26-.03-1.46.85-2.43,2.48-2.42,4.04,0,1.29.69,2.35,1.97,3.08,2.42,1.38,5.88,3.44,8.03,5.47l.09.1c.11.13,2.65,3.32,2.07,6.33-.27,1.39-1.13,2.49-2.55,3.27-2.29,1.26-4.3,1.66-6.43,2.07-.49.09-.99.19-1.5.3-.9.19-2.45.13-3.28-.04-.91-.19-1.95-.5-2.95-.79-1.19-.35-2.42-.71-3.34-.85h0c-.23-.04-.46-.05-.68-.05Z" fill="#eaeaea"/></g></svg>