<?xml version="1.0" encoding="UTF-8"?><svg xmlns="http://www.w3.org/2000/svg" viewBox="0 0 1600 900"><g><path d="M638.77,278.04c-7.6-5.83-16.45-10.67-23.28-17.35-6.87-6.73-13.01-15.45-18.16-23.59-4.17-6.59-5.92-14.37,4.53-12.37,4.44.85,9.24,4.52,12.93,6.98,9.35,6.24,17.97,13.65,26.19,21.28,15.08,14,28.97,29.29,42.96,44.36,11.84,12.75,35.37,36.98,51.96,43.64,7.85,3.15,11.26-9.56,3.49-12.67-11.64-4.67-32.77-25.88-41.13-34.83-9.55-10.24-19.03-20.54-28.72-30.64-17.69-18.45-37.76-39.87-61.8-49.89-19.33-8.06-33.6,7.18-24.52,26.35,4.48,9.45,12.68,19.19,19.58,27.05,8.27,9.42,19.44,15.48,29.31,23.05,6.71,5.15,13.26-6.27,6.63-11.35h0Z" fill="#eaeaea"/><path d="M738.32,342.49c-.86,0-1.79-.18-2.78-.57-12.22-4.9-29.82-19.67-52.32-43.88l-4.88-5.26c-12.16-13.13-24.73-26.7-38.04-39.05-6.78-6.29-15.87-14.38-26.07-21.19-.55-.37-1.13-.77-1.73-1.17-3.23-2.22-7.26-4.97-10.84-5.66-2.22-.43-5.09-.61-6.13.92-1.17,1.71-.15,5.52,2.64,9.94,6.46,10.21,12.35,17.87,18.01,23.41,4.28,4.19,9.48,7.72,14.51,11.14,2.9,1.97,5.89,4,8.68,6.14,2.34,1.8,3.46,4.52,3.08,7.47-.39,2.96-2.21,5.53-4.63,6.53-2.06.85-4.29.47-6.29-1.06-3.04-2.33-6.27-4.56-9.39-6.72-7.02-4.85-14.28-9.87-20.07-16.46-7.69-8.76-15.4-18.13-19.73-27.28-4.42-9.33-3.69-18.77,1.9-24.63,5.57-5.84,14.5-6.99,23.9-3.07,23.51,9.8,43.18,30.33,60.53,48.45l1.6,1.67c7.3,7.62,14.6,15.47,21.67,23.07,2.35,2.53,4.7,5.06,7.06,7.59,10.09,10.82,30.04,30.28,40.77,34.59,4.71,1.89,5.92,6.98,4.39,10.82-.95,2.36-3.02,4.29-5.85,4.29ZM598.89,223.4c.95,0,2,.11,3.17.33,3.99.76,8.2,3.65,11.59,5.97.59.4,1.16.8,1.71,1.16,10.32,6.88,19.49,15.04,26.32,21.38,13.36,12.4,25.96,26,38.14,39.16l4.87,5.26c21.98,23.66,39.82,38.67,51.6,43.39,3.17,1.27,5.19-.51,6.02-2.6,1.17-2.92.27-6.79-3.27-8.22-13.61-5.46-38.67-32.06-41.49-35.08-2.36-2.53-4.71-5.06-7.06-7.59-7.06-7.59-14.35-15.44-21.64-23.04l-1.61-1.67c-17.22-17.97-36.74-38.34-59.86-47.99-8.6-3.59-16.71-2.61-21.68,2.6-5.08,5.33-5.66,13.7-1.54,22.4,4.23,8.93,11.84,18.17,19.43,26.82,5.63,6.41,12.78,11.35,19.7,16.14,3.14,2.17,6.39,4.42,9.47,6.78,1.43,1.1,2.92,1.38,4.31.8,1.75-.72,3.12-2.71,3.41-4.94.17-1.31.1-3.77-2.31-5.62h0c-2.74-2.1-5.71-4.12-8.58-6.07-5.1-3.46-10.38-7.05-14.78-11.36-5.86-5.74-11.67-13.29-18.3-23.78-1.57-2.49-4.98-8.65-2.6-12.13.95-1.39,2.62-2.09,4.99-2.09Z" fill="#eaeaea"/><path d="M614.02,336.89c-3.96,15.53,12.1,26.67,24.33,32.57,13.08,6.31,28.88,10.77,42.77,4.68,7.73-3.39,1.05-14.72-6.63-11.35-7.82,3.43-18.49-.05-25.91-3.07-5.93-2.42-24.12-10.58-21.88-19.33,2.09-8.2-10.58-11.7-12.67-3.49h0Z" fill="#eaeaea"/><path d="M666.72,378.02c-8.59,0-18.22-2.56-28.8-7.66-11.13-5.37-29.15-16.89-24.86-33.72h0c.67-2.63,2.39-4.46,4.83-5.15,2.69-.75,5.87.07,7.91,2.07,1.9,1.85,2.57,4.37,1.88,7.07-1.61,6.33,9.94,13.53,21.29,18.16,11.21,4.57,19.43,5.58,25.13,3.08,2.69-1.18,5.59-.86,7.95.88,2.4,1.77,3.77,4.61,3.48,7.24-.25,2.24-1.67,4.04-3.99,5.06-4.52,1.98-9.46,2.97-14.8,2.97ZM619.96,333.21c-.52,0-1.04.07-1.54.21-1.22.34-2.8,1.27-3.43,3.72h0c-3.94,15.45,13.22,26.32,23.79,31.42,16.61,8.01,30.72,9.58,41.94,4.66,1.67-.73,2.64-1.92,2.81-3.44.21-1.91-.86-4.08-2.67-5.41-1.04-.77-3.2-1.87-5.96-.66-8.27,3.63-19.19,0-26.69-3.06-7.55-3.08-24.84-11.23-22.48-20.51.51-1.98.03-3.81-1.34-5.15-1.17-1.14-2.82-1.78-4.43-1.78Z" fill="#eaeaea"/><path d="M605.82,295.36c-11.52,12.53-9.81,27.77,4.67,37.42,12.36,8.23,28.57,11.5,42.85,14.25,1.16-4.22,2.33-8.45,3.49-12.67-10.28-1.44-20.21-4.23-30.21-6.93-8.18-2.21-11.66,10.47-3.49,12.67,10,2.7,19.93,5.49,30.21,6.93,8.15,1.14,11.95-11.04,3.49-12.67-10.48-2.02-58.92-10.99-41.72-29.7,5.72-6.22-3.55-15.54-9.29-9.29h0Z" fill="#eaeaea"/><path d="M654.06,348.18l-.88-.17c-9.63-1.35-19.11-3.92-28.27-6.4l-2.04-.55c-1.74-.47-3.04-1.38-3.92-2.51-3.15-1.42-6.18-3.05-9.02-4.94-7.34-4.89-11.67-11.23-12.52-18.35-.85-7.07,1.8-14.19,7.67-20.57h0c1.82-1.97,4.14-2.76,6.55-2.23,2.69.6,5.07,2.85,5.93,5.59.8,2.57.18,5.22-1.71,7.28-3,3.26-4,6.24-3.06,9.1,2.44,7.41,17.16,13.75,43.74,18.85l.46.09,1.1.15-.03.12c3.7,1.19,4.92,4.47,4.43,7.4-.62,3.74-3.91,7.22-8.42,7.06l-.02.09ZM657.53,335.57l-2.9,10.53c3.17-.13,5.44-2.67,5.89-5.39.33-1.96-.33-4.24-2.99-5.14ZM620.23,336.93c10.47,4.64,22.29,7,32.38,8.94l2.95-10.69c-9.26-1.39-18.36-3.86-27.17-6.24l-2.03-.55c-3.57-.96-5.96,1.41-6.66,4.01-.41,1.52-.3,3.2.53,4.53ZM610.17,294.29c-1.07,0-2.37.39-3.62,1.74h0c-5.46,5.94-7.94,12.51-7.16,18.98.79,6.52,4.81,12.37,11.65,16.93,2.1,1.4,4.32,2.65,6.61,3.78-.27-1.26-.22-2.6.11-3.84.77-2.87,3.06-5.35,6.27-5.68-6.46-2.93-11.65-6.61-13.15-11.15-1.17-3.56,0-7.29,3.49-11.08,1.42-1.54,1.87-3.43,1.28-5.33-.65-2.09-2.45-3.79-4.46-4.24-.31-.07-.65-.11-1.02-.11Z" fill="#eaeaea"/><path d="M611.64,263.37c-6.73,3.46-13.58,9.62-15.57,17.13-4.98,18.77,20.32,28.6,33.54,33.44,7.96,2.91,11.39-9.79,3.49-12.67-5.75-2.1-28.14-9.57-23.8-18.71,1.77-3.72,5.45-6.03,8.97-7.84,7.52-3.87.88-15.22-6.63-11.35h0Z" fill="#eaeaea"/><path d="M631.91,315.39c-.82,0-1.71-.16-2.66-.5-11.82-4.32-39.52-14.45-34.16-34.63,1.83-6.88,7.84-13.52,16.08-17.77h0c2.5-1.29,5.26-1.19,7.55.29,2.43,1.56,3.97,4.45,3.84,7.18-.12,2.43-1.48,4.44-3.84,5.65-3.29,1.69-6.87,3.9-8.53,7.38-.58,1.22-.61,2.42-.09,3.68,2.54,6.17,16.89,11.33,22.29,13.28l1.04.38c4.81,1.76,5.96,6.67,4.6,10.4-.93,2.54-3.09,4.65-6.12,4.65ZM614.76,263.58c-.88,0-1.78.23-2.66.68h0c-7.75,3.99-13.38,10.16-15.07,16.5-4.89,18.42,21.6,28.11,32.92,32.24,3.34,1.22,5.43-.83,6.21-2.96,1.03-2.82.19-6.52-3.41-7.84l-1.03-.37c-6.16-2.22-20.57-7.41-23.46-14.4-.74-1.79-.69-3.57.13-5.3,1.91-4.03,5.83-6.46,9.42-8.3,2.18-1.12,2.7-2.78,2.76-3.97.1-2.04-1.08-4.21-2.93-5.4-.9-.58-1.88-.87-2.89-.87Z" fill="#eaeaea"/></g></svg>