<?xml version="1.0" encoding="UTF-8"?><svg xmlns="http://www.w3.org/2000/svg" viewBox="0 0 1600 900"><g><path d="M617.43,279.08c-7.6-5.83-16.45-10.67-23.28-17.35-6.87-6.73-13.01-15.45-18.16-23.59-4.17-6.59-5.92-14.37,4.53-12.37,4.44.85,9.24,4.52,12.93,6.98,9.35,6.24,17.97,13.65,26.19,21.28,15.08,14,28.97,29.29,42.96,44.36,11.84,12.75,35.37,36.98,51.96,43.64,7.85,3.15,11.26-9.56,3.49-12.67-11.64-4.67-32.77-25.88-41.13-34.83-9.55-10.24-19.03-20.54-28.72-30.64-17.69-18.45-37.76-39.87-61.8-49.89-19.33-8.06-33.6,7.18-24.52,26.35,4.48,9.45,12.68,19.19,19.58,27.05,8.27,9.42,19.44,15.48,29.31,23.05,6.71,5.15,13.26-6.27,6.63-11.35h0Z" fill="#ffbb02"/><path d="M592.67,337.92c-3.96,15.53,12.1,26.67,24.33,32.57,13.08,6.31,28.88,10.77,42.77,4.68,7.73-3.39,1.05-14.72-6.63-11.35-7.82,3.43-18.49-.05-25.91-3.07-5.93-2.42-24.12-10.58-21.88-19.33,2.09-8.2-10.58-11.7-12.67-3.49h0Z" fill="#ffbb02"/><path d="M584.48,296.39c-11.52,12.53-9.81,27.77,4.67,37.42,12.36,8.23,28.57,11.5,42.85,14.25,1.16-4.22,2.33-8.45,3.49-12.67-10.28-1.44-20.21-4.23-30.21-6.93-8.18-2.21-11.66,10.47-3.49,12.67,10,2.7,19.93,5.49,30.21,6.93,8.15,1.14,11.95-11.04,3.49-12.67-10.48-2.02-58.92-10.99-41.72-29.7,5.72-6.22-3.55-15.54-9.29-9.29h0Z" fill="#ffbb02"/><path d="M590.29,264.41c-6.73,3.46-13.58,9.62-15.57,17.13-4.98,18.77,20.32,28.6,33.54,33.44,7.96,2.91,11.39-9.79,3.49-12.67-5.75-2.1-28.14-9.57-23.8-18.71,1.77-3.72,5.45-6.03,8.97-7.84,7.52-3.87.88-15.22-6.63-11.35h0Z" fill="#ffbb02"/></g></svg>