<?xml version="1.0" encoding="UTF-8"?><svg xmlns="http://www.w3.org/2000/svg" viewBox="0 0 1600 900"><g><path d="M935.28,357.26c11.01-6.04,27.95-13.69,28.19-28.38.4-24.31-38.05-15.26-51.7-12.65-22.16,4.24-44.12,10.74-65.89,16.63-19.92,5.39-39.95,10.97-58.95,19.11-6.72,2.88-.92,12.7,5.75,9.84,29.28-12.54,61.2-19.3,91.92-27.32,18.94-4.94,38.54-10.66,58.3-10.32,6.65.12,11.55,5.09,6.31,10.83-1.38,1.51-3.78,2.63-5.49,3.75-4.64,3.01-9.34,6.01-14.19,8.67-6.43,3.53-.69,13.38,5.75,9.84h0Z" fill="#eaeaea"/><path d="M790.24,363.33c-3.03,0-5.64-2.04-6.75-4.63-1.14-2.67-.64-6.06,3.05-7.64,18.53-7.94,37.72-13.37,59.09-19.15,4.2-1.14,8.41-2.3,12.62-3.46,17.41-4.8,35.42-9.76,53.34-13.19.77-.15,1.62-.32,2.54-.5,12.21-2.41,34.95-6.91,45.21,1.67,3.5,2.92,5.23,7.12,5.14,12.48-.23,13.96-14.91,21.83-25.62,27.58-1.06.57-2.1,1.12-3.08,1.67h0c-3.83,2.1-7.5.17-9.15-2.82-1.51-2.75-1.39-6.67,2.43-8.77,5.04-2.76,9.93-5.9,14.13-8.63.5-.33,1.06-.65,1.63-.99,1.37-.8,2.78-1.62,3.67-2.6,1.79-1.96,2.36-3.87,1.65-5.52-.91-2.11-3.82-3.57-7.24-3.63-17.82-.29-35.67,4.39-52.92,8.94-1.71.45-3.41.9-5.11,1.34-6,1.57-12.16,3.11-18.11,4.61-24.67,6.19-50.18,12.6-73.67,22.66-.96.41-1.92.6-2.84.6ZM940.49,313.44c-9.39,0-19.65,2.03-25.98,3.28-.92.18-1.78.35-2.55.5-17.84,3.41-35.81,8.37-53.18,13.16-4.22,1.16-8.43,2.32-12.63,3.46-21.29,5.76-40.41,11.18-58.82,19.06-3.25,1.39-2.35,4.19-2,5.02,1.06,2.48,3.95,4.27,6.96,2.98,23.64-10.12,49.23-16.55,73.98-22.76,5.95-1.49,12.1-3.04,18.09-4.6,1.7-.44,3.4-.89,5.11-1.34,17.37-4.58,35.3-9.31,53.46-9.01,4.26.08,7.81,1.98,9.04,4.84.6,1.39,1.13,4.23-2.01,7.66-1.09,1.19-2.71,2.14-4.13,2.97-.54.32-1.08.63-1.55.94-4.23,2.75-9.16,5.91-14.26,8.71-2.64,1.45-2.72,4.08-1.64,6.06,1.13,2.06,3.62,3.57,6.43,2.03.99-.54,2.03-1.1,3.1-1.67,10.85-5.82,24.36-13.06,24.57-25.85.08-4.79-1.37-8.36-4.42-10.91-4.06-3.39-10.57-4.52-17.56-4.52Z" fill="#eaeaea"/><path d="M872.94,395.21c7.32,1.01,26.34,2.38,25.2,13.06-1.1,10.34-21.31,9.21-28.82,9.36-22.31.47-42.13-4.54-59.12-19.26-5.52-4.78-13.62,3.25-8.06,8.06,11.58,10.03,23.53,16.94,38.7,20.15,15.84,3.36,35.79,4.72,51.55.19,11.27-3.24,19.32-10.88,16.54-23.27-3.36-14.97-19.83-17.49-32.96-19.29-7.17-.99-10.28,9.99-3.03,10.99h0Z" fill="#eaeaea"/><path d="M869.33,430.68c-12.16,0-23.1-1.92-28.69-3.11-14.31-3.04-26.38-9.32-39.15-20.38-1.76-1.52-2.51-3.5-2.11-5.58.45-2.34,2.38-4.48,4.81-5.32,2.33-.81,4.76-.32,6.67,1.33,15.57,13.48,34.13,19.51,58.45,19.01.78-.02,1.69-.02,2.71-.02,8.47-.02,24.25-.07,25.14-8.45.93-8.8-14.14-10.69-22.24-11.7-.77-.1-1.48-.18-2.1-.27-3.95-.54-5.32-3.65-4.93-6.5.5-3.67,3.73-7.1,8.23-6.48,12.76,1.75,30.23,4.15,33.8,20.06,2.61,11.63-3.67,20.54-17.24,24.45-7.57,2.18-15.7,2.94-23.34,2.94ZM806.43,397.91c-.64,0-1.19.13-1.59.27-1.77.61-3.18,2.14-3.5,3.81-.26,1.36.24,2.64,1.45,3.69,12.5,10.82,24.29,16.97,38.25,19.93,8.96,1.9,31.87,5.73,51.06.2,5.87-1.69,19.18-7.23,15.84-22.09-3.27-14.55-19.94-16.85-32.12-18.52-3.28-.44-5.61,2.07-5.98,4.77-.12.88-.24,3.77,3.22,4.24h0c.62.08,1.32.17,2.08.27,8.78,1.1,25.12,3.13,23.98,13.89-1.08,10.16-18.02,10.21-27.12,10.24-1,0-1.9,0-2.67.02-24.84.52-43.83-5.68-59.8-19.5-1.09-.94-2.19-1.22-3.11-1.22Z" fill="#eaeaea"/><path d="M911.92,356.27c5.56-1.54,11.94-.29,17.41,1.14,2.1.55,6.52,1.3,8.05,3.06,3.48,4-2.07,6.51-5.1,7.49-11.06,3.55-20.01-.22-30.84-.5-7.34-.19-7.33,11.21,0,11.4,8.46.22,15.81,2.86,24.52,1.83,9.11-1.08,19.87-3.7,23.34-13.36,7.24-20.15-27.69-25.56-40.41-22.04-7.06,1.95-4.06,12.95,3.03,10.99h0Z" fill="#eaeaea"/><path d="M921.83,381.92c-3.75,0-7.3-.53-10.76-1.04-3.11-.46-6.33-.94-9.66-1.03-4.37-.12-6.56-3.63-6.47-7.04.08-3.14,2.16-6.45,6.52-6.35,3.63.1,7.05.58,10.35,1.04,6.66.93,12.96,1.82,20.15-.49,3.05-.98,5.09-2.34,5.45-3.63.07-.25.28-1-.8-2.25-1.07-1.23-4.35-2-6.32-2.46-.46-.11-.88-.21-1.23-.3-5.35-1.39-11.55-2.61-16.89-1.14h0c-4.12,1.14-7.16-1.51-8.05-4.71-.89-3.22.37-7.07,4.49-8.21,9.9-2.74,30.61-.3,38.93,8.68,3.75,4.05,4.68,9.12,2.69,14.67-3.75,10.44-15.59,13-24.17,14.02-1.45.17-2.86.24-4.25.24ZM901.26,368.46c-2.9,0-4.26,2.2-4.32,4.41-.06,2.35,1.33,4.91,4.53,4.99,3.44.09,6.72.58,9.9,1.05,4.83.72,9.38,1.39,14.48.79,8.73-1.03,19.18-3.41,22.52-12.71,1.75-4.87.99-9.12-2.27-12.63-7.71-8.32-27.73-10.66-36.93-8.11-2.99.83-3.7,3.56-3.09,5.75.62,2.25,2.59,4.15,5.59,3.32,5.8-1.6,12.32-.33,17.93,1.13.34.09.74.18,1.18.29,2.48.58,5.88,1.38,7.37,3.09,1.19,1.37,1.6,2.74,1.22,4.1-.75,2.7-4.56,4.29-6.77,5-7.63,2.45-14.15,1.54-21.04.57-3.25-.46-6.62-.93-10.13-1.02-.05,0-.1,0-.15,0Z" fill="#eaeaea"/><path d="M903.27,394.33c-5.04-.77-9.43,5.76-3.59,9.28h0c7.92,4.77,20.64,1.01,27.33-4.38,3.88-3.12,6.29-7.89,5.2-12.92-1.5-6.93-8.3-11.54-14.04-14.81-5.86-3.34-11.59,5.47-5.7,8.83,2.44,1.39,5.78,3.39,7.84,5.32,0,0,4.47,5.53-.19,8.1-2.66,1.47-4.91,1.68-7.66,2.27-.74.16-2.13.11-2.87-.04-1.95-.41-4.56-1.38-6.34-1.65Z" fill="#eaeaea"/><path d="M908.51,406.8c-3.4,0-6.64-.71-9.35-2.33-2.8-1.69-3.9-4.27-2.95-6.91,1.04-2.87,4.14-4.68,7.2-4.21h0c1.05.16,2.34.54,3.59.91.97.28,1.97.58,2.8.75.66.14,1.9.16,2.45.04.53-.11,1.04-.21,1.54-.31,2.06-.4,3.83-.75,5.84-1.86.89-.49,1.39-1.11,1.55-1.9.33-1.69-1.02-3.88-1.62-4.64-2-1.86-5.29-3.82-7.59-5.13-1.91-1.09-2.97-2.79-2.98-4.8-.01-2.25,1.36-4.57,3.41-5.77,1.95-1.14,4.23-1.14,6.26.01,5.94,3.38,12.95,8.19,14.52,15.47,1.09,5.03-.99,10.23-5.55,13.91-4.92,3.96-12.33,6.79-19.13,6.79ZM902.43,395.27c-2.05,0-3.77,1.42-4.33,2.97-.61,1.7.15,3.34,2.1,4.52,7.14,4.29,19.3,1.24,26.19-4.3,3.96-3.19,5.78-7.65,4.85-11.93-1.4-6.5-7.98-10.98-13.55-14.15-1.9-1.08-3.48-.48-4.26-.03-1.46.85-2.43,2.48-2.42,4.04,0,1.29.69,2.35,1.97,3.08,2.42,1.38,5.88,3.44,8.03,5.47l.09.1c.11.13,2.65,3.32,2.07,6.33-.27,1.39-1.13,2.49-2.55,3.27-2.29,1.26-4.3,1.66-6.43,2.07-.49.09-.99.19-1.5.3-.9.19-2.45.13-3.28-.04-.91-.19-1.95-.5-2.95-.79-1.19-.35-2.42-.71-3.34-.85h0c-.23-.04-.46-.05-.68-.05Z" fill="#eaeaea"/></g></svg>