<?xml version="1.0" encoding="UTF-8"?><svg xmlns="http://www.w3.org/2000/svg" viewBox="0 0 1600 900"><g><path d="M1442.58,488.12c5.8-.57,9.11-5.05,7.43-10.03-1.58-4.7-15.43-2.65-20.12-2.39-5.65.31-14.88,1.1-19.41.96-2.15-.07-3.8.08-7.42.6-6.97,1.01-10.88,14.2-12.57,19.58-5.66,18.02-7.06,37.01-9.93,55.5-1.25,8.06-11.48,36.11,5.55,33.97,6.37-.8,30.48-2.13,35.87-4.04,8.35-2.97,10.27-13.14.83-13.83-5.11-.38-27.16,2.05-28.23,2.07l6.47-36.06c7.17-4.66,29.82-4.27,30.88-13.42,1.61-13.84-25.95.27-28.66-1.85,2.02-4.94,2.8-22.94,6.95-25.7l32.34-5.37Z" fill="#eaeaea"/><path d="M1305.09,584.77c3.6,2.65,6.98-.73,9.2-3.02,16.4-17,28.14-65.25,29.59-87.5.08-1.2.65-2.24-1.24-1.9-6.63,1.2-24.82,12.54-28.15,2.15-2.82-8.79,12.47-11.83,18.83-14.54,7.9-3.37,28.03-12.21,35.5-12.76,4.92-.37,8.85,2.57,8.05,6.84-1.57,8.4-15.34,8.2-17.7,13.17-7.44,32.5-9.49,79.4-35.29,105.38-14.29,14.39-30.86,7.89-35.85-9.18-1.73-5.91-6.63-29.71,4.27-28.8,8.15.68,6.6,25.6,12.79,30.16Z" fill="#eaeaea"/><path d="M905.82,486.58s7.46-5.02,11.4-8.13c3.59-2.83,5.19-10.43,1.96-13.92-2.22-2.4-8.81-.01-12.72,2.36-12.72,7.71-45.62,29.04-48.04,43.85-1.73,10.61,6.75,15.25,15.67,17.46,3.14.77,15.16,3.38,21.17,6.65,2.51,1.37,3.25,4.61,1.62,6.96-.76,1.1-1.6,2.14-2.45,3.18-13.74,16.66-33.86,33.92-48.09,50.59-5.34,7.67-5.54,19.54,4.14,16.53,1.21-.38,6.47-4.97,7.91-6.21,10.89-9.45,49.68-47.58,56.17-58.44,7.08-11.85,2.94-22.3-9.96-26.8-3.23-1.12-18.96-5.54-25.3-8.84-1.57-.82-1.78-2.97-.39-4.06l26.9-21.17Z" fill="#eaeaea"/><path d="M1244.51,553.83c-4.48.72-19.55-7.95-22.2-6.69-.75.43-1.07,1.1-1.46,1.76-1.32,2.23-7.21,17.66-7.62,20.07-.85,5.01-2.42,12.01-6.52,15.93-3.09,2.95-5.13,4.06-10.23,2.36-8.14-2.73-1.25-17.4.72-22.94,7.55-21.18,30.11-76.5,46.97-91.21,9.57-8.35,19.05-7.22,20.64,5.46,1.41,11.21-.15,30.09-.64,42-.42,10.2.09,20.55-.07,30.77-.12,7.37,1.27,20.82.65,27.29-.3,3.12-2.81,7.33-6.45,8.43-16.66,5.04-12.74-25.58-13.8-33.23ZM1238.57,506.07c-1.8,3.26-9.21,18.09-10.5,23.98-.27,1.21.39,2.42,1.53,2.9,3.33,1.4,9.11,4.3,12.38,5.09,1.15.27,2.25-.59,2.29-1.77l1.27-37.8c.03-.99-1.23-1.42-1.81-.63l-5.15,8.22c-.09.12.07-.13,0,0Z" fill="#eaeaea"/><path d="M982.34,553.83c-4.48.72-19.55-7.95-22.2-6.69-.75.43-1.07,1.1-1.46,1.76-1.32,2.23-7.21,17.66-7.62,20.07-.85,5.01-2.42,12.01-6.52,15.93-3.09,2.95-5.13,4.06-10.23,2.36-8.14-2.73-1.25-17.4.72-22.94,7.55-21.18,30.11-76.5,46.97-91.21,9.57-8.35,19.05-7.22,20.64,5.46,1.41,11.21-.15,30.09-.64,42-.42,10.2.09,20.55-.07,30.77-.12,7.37,1.27,20.82.65,27.29-.3,3.12-2.81,7.33-6.45,8.43-16.66,5.04-12.74-25.58-13.8-33.23ZM976.39,506.07c-1.8,3.26-9.21,18.09-10.5,23.98-.27,1.21.39,2.42,1.53,2.9,3.33,1.4,9.11,4.3,12.38,5.09,1.15.27,2.25-.59,2.29-1.77l1.27-37.8c.03-.99-1.23-1.42-1.81-.63l-5.15,8.22c-.09.12.07-.13,0,0Z" fill="#eaeaea"/><path d="M1050.83,467.85c3.49-2.52,9.61-.97,10.37,3.34,1.43,8.06-2.93,33.01-4.65,41.95-3.06,15.91-7.96,31.57-11.03,47.48-.59,3.06-3.37,12.54-.81,14.32,2.17,1.51,10.83,1.43,14.31,1.72,6.31.51,14.47-.09,20.4.63,9.85,1.2,9.19,12.34-1.02,13.84-5.61.83-35.27-.3-40.3-1.76-12.86-3.72-9.29-17.51-7.57-26.28,3.45-17.62,9.1-35.28,12.65-53.11,2.03-10.23,2.56-26.46,4.97-36.28.39-1.6,1.3-4.86,2.68-5.86Z" fill="#eaeaea"/><path d="M1136.79,540.27c2.61-2.48,4.78-6.27,6.62-9.29,10.89-17.83,20-36.55,30.52-54.56,6.51-8.52,18.83-4.34,15.02,6.25-17.92,29.41-33.15,61.02-52.02,89.91-2.21,3.39-5.9,10.01-8.58,12.61-3.51,3.42-10.01,3.6-12.05-.93-3.06-6.79,2.93-22.9,4.34-30.67,2.62-14.47,1.33-24.81-.73-39.19-1.16-8.13-4.89-19.89-5.18-27.29-.24-6.02,5.36-11.29,10.62-6.18,3.35,3.26,8.58,31.98,9.55,38.12,1.1,7.04,2.21,14.1,1.89,21.22Z" fill="#eaeaea"/><path d="M399.34,467.11c11.39-1.07,30.33,14.54,33.97,24.88,6.27,17.82-13.79,33.13-25.69,42.77-.41,3.22,29.84,32.44,31.05,41.86.82,6.4-5.54,10.76-11.59,7.31-4.92-2.8-18.98-23.24-24.63-29.29-2.26-2.42-15.33-15.65-17.48-15.53-2.41.13-2.45,4.06-2.86,5.93-1.54,6.88-2.6,15.01-3.61,22.06-1.09,7.63.93,25.33-12.39,21.97-9.86-2.49-3.63-28.32-2.45-35.92,3.19-20.62,6.62-41.87,14.4-61.25,3.92-9.77,9.12-23.64,21.28-24.79ZM388.4,519.73c-.26,1.32.79,2.55,2.14,2.49,4.14-.17,8.33-2.74,11.69-4.86,7.15-4.51,18.06-14.28,13.57-23.67-1.62-3.4-10.44-11.3-14.48-9.93-3.3,1.12-8.54,17.72-9.81,21.7-1.5,4.71-2.17,9.46-3.11,14.27Z" fill="#eaeaea"/><path d="M544.81,553.83c-4.48.72-19.55-7.95-22.2-6.69-.75.43-1.07,1.1-1.46,1.76-1.32,2.23-7.21,17.66-7.62,20.07-.85,5.01-2.42,12.01-6.52,15.93-3.09,2.95-5.13,4.06-10.23,2.36-8.14-2.73-1.25-17.4.72-22.94,7.55-21.18,30.11-76.5,46.97-91.21,9.57-8.35,19.05-7.22,20.64,5.46,1.41,11.21-.15,30.09-.64,42-.42,10.2.09,20.55-.07,30.77-.12,7.37,1.27,20.82.65,27.29-.3,3.12-2.81,7.33-6.45,8.43-16.66,5.04-12.74-25.58-13.8-33.23ZM538.86,506.07c-1.8,3.26-9.21,18.09-10.5,23.98-.27,1.21.39,2.42,1.53,2.9,3.33,1.4,9.11,4.3,12.38,5.09,1.15.27,2.25-.59,2.29-1.77l1.27-37.8c.03-.99-1.23-1.42-1.81-.63l-5.15,8.22c-.09.12.07-.13,0,0Z" fill="#eaeaea"/><path d="M473.1,564.89c-5.59,4.98-12.77-.14-12.75-5.75.04-10.29,3.87-37.42,6.32-49.77,1.48-7.44,2.77-21.93,5.28-27.89,2.48-5.88,14.43-5.75,13.59,1.54-1.76,15.43-5.44,50.02-8.05,63.1-.85,4.26-2.07,16.71-4.39,18.78Z" fill="#eaeaea"/><path d="M482.23,442.64c9.73-.97,12.52,15.1,1.62,16.09-11.13,1.01-12.63-15-1.62-16.09Z" fill="#eaeaea"/><path d="M343.16,482.87c5.8-.57,9.11-5.05,7.43-10.03-1.58-4.7-15.43-2.65-20.12-2.39-5.65.31-14.88,1.1-19.41.96-2.15-.07-3.8.08-7.42.6-6.97,1.01-10.88,14.2-12.57,19.58-5.66,18.02-7.06,37.01-9.93,55.5-1.25,8.06-11.48,36.11,5.55,33.97,6.37-.8,30.48-2.13,35.87-4.04,8.35-2.97,10.27-13.14.83-13.83-5.11-.38-27.16,2.05-28.23,2.07l6.47-36.06c7.17-4.66,29.82-4.27,30.88-13.42,1.61-13.84-25.95.27-28.66-1.85,2.02-4.94,2.8-22.94,6.95-25.7l32.34-5.37Z" fill="#eaeaea"/><path d="M211.92,570.23l6.99-40.73c7.75-5.04,32.21-4.61,33.35-14.49,1.74-14.95-28.03.29-30.96-1.99,2.18-5.34,3.02-24.78,7.51-27.76l34.94-5.81c6.26-.62,9.84-5.46,8.03-10.83-1.71-5.07-16.66-2.86-21.73-2.58-6.11.34-16.08,1.19-20.96,1.04-2.32-.07-4.1.08-8.01.65-7.52,1.09-11.75,15.34-13.58,21.15-6.11,19.47-7.62,39.98-10.72,59.94-1.35,8.7-12.41,43.46,6,41.15,0,0,6.15-3,9.16-19.75Z" fill="#eaeaea"/><path d="M775.76,260.75c-9.16,12.41-14.54,26.89-21.19,40.69-7.78,16.13-16.18,31.96-24.79,47.66-16.55,30.19-33.95,59.94-49.51,90.67-14.65,28.94-27.78,58.73-38.3,89.43-5.16,15.07-9.69,30.36-13.44,45.84-3.06,12.62-6.51,27.37-1.22,39.84,9.86,23.27,44.43,31.63,66.75,34.62,22.26,2.99,46.08,2,57.59-20.27,6.42-12.42,9.01-27.18,11.46-40.81,2.96-16.46,5.08-33.14,6.9-49.77,3.72-34.01,5.18-68.19,8.36-102.24,2.82-30.27,7.26-60.83,14.01-90.51,5.27-23.17,15.35-44.77,22-67.45,2.39-8.13-10.29-11.61-12.67-3.49-6.34,21.61-15.57,42.24-21.3,64.13-3.98,15.19-6.21,31.2-8.73,46.7-9.76,60-9.86,121.01-18.41,181.18-1.99,13.99-4.32,27.97-8.1,41.61-3.5,12.61-8.35,25.26-22.58,28.35-13.15,2.86-28.85,0-41.58-3.29-12.4-3.21-28.45-7.71-37.48-17.56-10.22-11.15-4.61-28.54-1.37-41.42,3.56-14.16,7.76-28.15,12.49-41.96,10.15-29.65,22.83-58.35,36.98-86.3,15.25-30.12,32.26-59.29,48.51-88.86,8.3-15.09,16.41-30.29,23.98-45.76,7.31-14.94,13.06-30.95,23-44.41,5.03-6.81-6.37-13.37-11.35-6.63h0Z" fill="#eaeaea"/><path d="M710.76,651.78c-5.72,0-11.44-.55-16.84-1.28-25.45-3.42-57.83-12.31-67.54-35.23-5.5-12.98-1.8-28.22,1.17-40.47,3.65-15.04,8.18-30.49,13.47-45.93,9.85-28.74,22.39-58.03,38.36-89.56,10.68-21.1,22.42-42.07,33.77-62.35,5.19-9.28,10.56-18.87,15.76-28.35,10.33-18.85,17.97-33.54,24.77-47.62,1.67-3.47,3.3-7.05,4.86-10.51,4.68-10.31,9.51-20.98,16.43-30.34l.8.59-.8-.59c1.73-2.35,4.39-3.5,7.28-3.18,2.96.33,5.56,2.13,6.63,4.57.91,2.08.57,4.37-.95,6.43-7.12,9.65-12.17,20.83-17.06,31.64-1.88,4.16-3.82,8.46-5.85,12.61-6.6,13.49-14,27.61-24,45.8-4.86,8.85-9.87,17.8-14.72,26.46-11.36,20.29-23.1,41.27-33.77,62.36-15.43,30.49-27.51,58.67-36.92,86.17-4.81,14.06-9.01,28.15-12.46,41.88-.25,1.01-.52,2.04-.79,3.1-3.17,12.26-7.13,27.52,1.93,37.4,8.53,9.31,23.56,13.79,36.99,17.27,17.27,4.47,30.72,5.54,41.11,3.28,13.9-3.02,18.55-15.85,21.83-27.64,3.94-14.16,6.29-28.92,8.08-41.48,3.99-28.04,6.17-56.75,8.28-84.51,2.42-31.78,4.92-64.64,10.13-96.69.42-2.57.83-5.16,1.24-7.75,2.05-12.94,4.18-26.32,7.51-39.04,3.16-12.06,7.44-23.91,11.57-35.37,3.38-9.38,6.88-19.07,9.73-28.79.78-2.67,2.63-4.49,5.21-5.11,2.76-.67,5.92.24,7.86,2.26,1.75,1.84,2.3,4.29,1.53,6.91-2.77,9.45-6.19,18.85-9.49,27.94-4.63,12.76-9.43,25.96-12.5,39.45-6.25,27.5-10.96,57.91-13.99,90.38-1.37,14.68-2.44,29.63-3.47,44.1-1.36,19.07-2.77,38.8-4.89,58.16-2.21,20.18-4.34,35.55-6.91,49.84l-.11.61c-2.49,13.82-5.06,28.11-11.45,40.48-9.1,17.6-25.44,22.08-41.77,22.08ZM781.29,258.92c-1.33,0-3.24.42-4.72,2.42h0c-6.79,9.19-11.58,19.76-16.21,29.98-1.57,3.47-3.2,7.06-4.89,10.55-6.81,14.11-14.46,28.83-24.82,47.71-5.2,9.49-10.57,19.08-15.77,28.36-11.34,20.26-23.06,41.21-33.73,62.28-15.92,31.44-28.43,60.66-38.25,89.31-5.27,15.38-9.79,30.78-13.42,45.75-2.9,11.96-6.51,26.85-1.27,39.22,9.83,23.21,45.54,31.28,65.96,34.02,20.19,2.71,44.86,2.92,56.57-19.74,6.25-12.1,8.8-26.24,11.26-39.92l.11-.61c2.56-14.24,4.69-29.56,6.89-49.7,2.12-19.32,3.52-39.03,4.88-58.08,1.03-14.47,2.1-29.44,3.47-44.14,3.04-32.55,7.76-63.05,14.03-90.64,3.1-13.61,7.91-26.87,12.57-39.69,3.29-9.06,6.69-18.43,9.45-27.82.72-2.44-.18-4.05-1.06-4.97-1.46-1.52-3.84-2.21-5.94-1.7-1.85.45-3.18,1.78-3.76,3.73-2.87,9.77-6.38,19.5-9.77,28.9-4.12,11.42-8.38,23.23-11.52,35.2-3.31,12.62-5.42,25.96-7.47,38.85-.41,2.6-.82,5.18-1.24,7.76-5.2,31.97-7.7,64.79-10.11,96.52-2.11,27.8-4.3,56.54-8.3,84.64-1.8,12.63-4.17,27.46-8.13,41.73-3.43,12.35-8.35,25.8-23.33,29.06-10.71,2.32-24.46,1.25-42.04-3.3-13.7-3.54-29.06-8.14-37.96-17.85-9.79-10.68-5.69-26.53-2.39-39.25.27-1.05.54-2.08.79-3.08,3.47-13.78,7.68-27.93,12.51-42.04,9.44-27.58,21.56-55.85,37.03-86.42,10.7-21.13,22.45-42.13,33.81-62.44,4.84-8.66,9.85-17.61,14.71-26.45,9.98-18.16,17.37-32.26,23.96-45.71,2.02-4.12,3.96-8.41,5.83-12.56,4.93-10.91,10.02-22.19,17.27-32.01,1.09-1.48,1.34-3.02.72-4.44-.77-1.77-2.79-3.13-5.02-3.38-.21-.02-.46-.04-.72-.04Z" fill="#eaeaea"/><path d="M826.09,256.29c-5.52-8.89-14.66-14.89-24.99-17.69-11.12-3.01-27.08-2.55-29.34,11.59-2.7,16.87,12.13,19.28,23.95,25.03,7.19,3.5,10.41,4.32,19.09,5.61,9.17,1.36,12.5-5.63,13.7-11.37.95-4.54.04-9.23-2.41-13.17ZM795.45,263.34c-2.84-1.17-9.16-4.32-11.29-6.34-3.43-3.25-1.45-7.15,3.11-8.09,11.23-2.32,30.43,7.03,31.34,17.95.78,9.39-23.15-3.52-23.15-3.52Z" fill="#eaeaea"/><path d="M817.01,282c-.76,0-1.54-.06-2.35-.18-8.67-1.29-12.06-2.14-19.38-5.7-2.03-.99-4.2-1.89-6.29-2.77-10.11-4.23-20.56-8.6-18.21-23.31.75-4.72,3.01-8.33,6.7-10.71,8.24-5.33,20.37-2.64,23.89-1.68,11.1,3,20.18,9.44,25.58,18.12h0c2.63,4.23,3.53,9.16,2.54,13.9-1.67,8.03-6.06,12.34-12.47,12.34ZM790.13,238.1c-3.91,0-8.14.68-11.57,2.9-3.19,2.06-5.15,5.21-5.81,9.35-2.1,13.16,6.75,16.86,17,21.15,2.12.89,4.31,1.8,6.39,2.82,7.13,3.47,10.24,4.25,18.8,5.52,6.67.99,10.9-2.57,12.57-10.59.88-4.23.07-8.65-2.28-12.44h0c-5.13-8.25-13.8-14.38-24.4-17.25-1.81-.49-6.03-1.47-10.71-1.47ZM814.91,271.25c-6.6,0-18.17-6.09-19.88-7.01-2.83-1.17-9.27-4.35-11.55-6.52-1.74-1.65-2.4-3.59-1.87-5.47.6-2.12,2.65-3.74,5.46-4.33,6.99-1.44,17.32,1.45,24.58,6.88,4.79,3.58,7.62,7.83,7.96,11.97.18,2.13-.75,3.21-1.56,3.74-.79.52-1.87.74-3.13.74ZM791.02,249.55c-1.25,0-2.45.11-3.54.34-2.04.42-3.55,1.54-3.95,2.91-.32,1.13.15,2.36,1.32,3.47,1.99,1.88,8.21,5,10.99,6.14l.09.04c6.52,3.52,17.99,8.36,21.02,6.38.34-.22.77-.65.67-1.9-.29-3.56-2.84-7.3-7.17-10.53-5.68-4.25-13.3-6.86-19.43-6.86Z" fill="#eaeaea"/></g></svg>