<?xml version="1.0" encoding="UTF-8"?><svg id="Capa_1" xmlns="http://www.w3.org/2000/svg" viewBox="0 0 264.702 438.034"><path d="M139.557,106.632c5.543-.637,8.678-.361,12.483,3.946,10.221,11.57,20.915,36.437,27.024,51.002,10.496,25.027,18.171,44.607,3.543,70.389-9.51,16.762-24.151,24.186-22.024,46.479,1.111,11.643,5.904,24.949,8.059,36.565,1.238,6.671,3.013,14.866,7.004,20.407,10.037,13.936,34.974,3.261,43.148,13.784,9.797,12.612-18.29,23.316-26.645,26.36-17.866,6.509-51.444,14.178-69.949,10.862-12.262-2.197-15.029-11.119-6.024-19.846,7.969-7.723,17.214-10.671,22.561-21.605,7.356-15.04,3.992-44.603-.958-60.324-7.38-23.434-23.886-21.312-42.204-30.686-34.057-17.428-38.892-53.187-39.21-88.217-.094-10.366-.223-24.924,1.99-34.924,1.878-8.485,10.096-9.158,17.276-11.062,19.556-5.187,43.928-10.832,63.928-13.13ZM213.487,358.702c4.997-6.157-2.549-8.623-7.136-8.951-6.24-.447-13.105-1.773-19.48-2.862-14.802-2.528-19.114-10.452-22.049-23.968-3.158-14.547-7.213-29.844-9.914-44.523-2.452-27.235,18.087-35.231,26.584-57.079,8.254-21.222.7-37.76-7.437-57.213-5.987-14.311-12.996-29.945-21.413-42.946-2.086-3.222-5.501-9.58-9.79-9.416-22.377,3.737-44.77,7.798-66.693,13.62-2.327.618-8.297,1.839-9.997,2.938-1.221.789-2.084,2.444-2.401,3.835-1.112,4.884-1.532,13.351-1.796,18.539-1.535,30.21.671,73.738,27.382,92.935,11.681,8.395,22.344,9.464,34.296,15.234,18.964,9.154,22.321,31.303,24.19,50.146,1.58,15.927,1.681,34.141-9.58,46.836-5.039,5.68-11.943,9.039-17.353,14.153-2.868,2.711-7.012,6.933-1.801,9.601,8.96,4.588,32.397.547,42.469-1.462,11.876-2.368,44.397-10.148,51.92-19.417Z"/><path d="M87.307,45.978c2.077-.562,3.364.823,3.682,2.761,1.651,10.032,2.126,20.64,3.658,30.736-.179,3.852-5.055,4.021-5.699-.384-1.459-9.968-1.959-20.135-3.647-30.086-.157-1.213.841-2.711,2.006-3.027Z"/><path d="M53.594,73.094c.859-.3,2.161-.238,2.928.283l17.525,14.478c2.195,2.359-.276,5.852-3.193,4.498-5.372-4.555-11.126-8.737-16.427-13.367-1.491-1.302-2.745-2.101-2.18-4.413.094-.383.974-1.349,1.347-1.479Z"/><path d="M128.861,65.153c2.138-.515,4.011,1.782,3.164,3.807l-8.886,17.498c-1.82,2.928-6.011,1.189-5.034-2.176l9.043-17.96c.343-.499,1.152-1.034,1.713-1.169Z"/><path d="M162.775,233.927c-3.136,3.587-6.976,8.607-10.111,12.213-2.251,2.589-6.241,7.62-9.485,8.052-2.461.328-7.495-2.259-10.043-3.131-20.562-7.031-40.076-12.604-50.373-33.948-1.377-2.854-3.354-6.593.193-8.772,2.763-1.698,12.32-2.232,16.133-2.564,23.954-2.09,45.159-9.712,68.042-15.006,2.336-.54,4.962-1.69,6.773.62,2.243,2.861,1.66,11.996,1.196,15.673-1.246,9.87-5.816,19.418-12.325,26.863Z"/></svg>