<?xml version="1.0" encoding="UTF-8"?><svg id="Capa_1" xmlns="http://www.w3.org/2000/svg" viewBox="0 0 386.933 429.283"><path d="M151.48,245.461c-6.845,3.929-13.252,8.663-18.633,14.444,2.318.966,4.767,1.384,7.069,2.429,7.204,3.273,12.116,10.234,9.638,18.312-.303.989-1.715,3.005-1.65,3.703.051.551,2.171,3.1,2.661,4.266,1.909,4.539,1.275,8.263-.473,12.681-.293.74-1.396,1.986-1.403,2.486-.004.304,2.005,4.109,2.321,5.598,3.175,14.952-17.144,33.71-30.785,22.785-8.016,11.022-17.683,20.892-29.458,27.905-1.054.627-4.027,2.563-4.991,2.711-1.597.246-3.035-1.811-2.593-3.33.309-1.061,10.45-7.109,12.336-8.523,6.624-4.969,12.46-11.031,17.569-17.531,4.629-5.889,8.23-13.669,15.635-16.541,1.741-.675,4.512-1.902,5.953-.278,3.236,3.649-3.462,4.469-5.469,5.515-2.145,1.118-7.337,5.004-4.425,7.306,8.333,6.587,29.218-12.45,18.851-23.975-3.014-3.351-10.576-6.138-15.011-6.215-2.203-.038-6.304,1.586-6.053-2.373.201-3.157,6.279-2.549,8.578-2.327,5.125.494,9.719,3.015,14.117,5.437,3.787-7.798-.003-13.085-7.473-15.739-2.529-.898-6.882-1.813-9.521-1.813-2.233,0-7.635,1.921-8.982-.157-2.53-3.902,4.118-4.441,6.427-4.593,6.147-.405,12.346,1.045,17.873,3.626,2.663-3.226,1.941-7.279-.521-10.386-4.766-6.016-14.953-6.946-22.103-6.402-2.106.16-6.555,2.093-7.676-.376-.897-1.975.048-3.086,1.858-3.615,3.635-1.063,8.082-.814,11.842-1.319,5.506-6.777,12.443-12.135,19.774-16.788,6.423-4.077,14.46-7.617,20.409-12.131,2.244-1.702,6.911-6.522,3.314-9.101-2.406-1.725-11.574.959-14.614,1.82-19.158,5.427-41.858,18.324-58.829,28.919-22.397,13.982-32.628,33.964-42.426,57.759-3.603,2.332-5.107-.218-3.844-3.845,2.213-6.351,6.962-15.54,10.221-21.59,14.487-26.893,29.996-35.332,55.879-49.422,9.537-5.191,19.221-10.234,29.49-13.848l-9.862-46.614c-1.244-11.753,1.897-22.116,7.609-32.236,2.98-5.28,7.29-10.244,10.001-15.594,10.822-21.351-2.098-51.544-5.357-73.763-.571-2.282-2.94-2.135-4.289-4.121-2.317-3.41-3.231-10.959-.817-14.494,4.534-6.639,23.09-11.644,30.493-8.973,5.355,1.932,7.629,8.603,7.341,13.896-.11,2.014-1.302,2.908-1.481,4.039-.301,1.905,4.282,16.532,5.089,19.748,3.194,12.728,5.548,28.143,10.352,40.109,5.962,14.851,15.639,17.905,27.294,26.819,15.581,11.916,19.681,22.234,24.793,40.657,4.981,17.947,8.853,36.286,12.787,54.495,6.542,30.283,14.091,62.14,19.374,92.519,2.994,17.219,2.861,33.227-13.442,43.37-16.591,10.321-59.514,18.632-77.246,10.043-6.314-3.059-11.026-8.862-12.919-15.601l-24.602-109.782ZM175.212,45.106c-2.748-.727-21.553,4.46-21.794,5.977,1.436,6.243,2.878,12.504,4.168,18.781,2.804,13.637,6.525,28.315,5.593,42.302-1.527,22.912-23.433,33.851-21.947,59.259l9.595,47.081c.599,1.374,4.631-.736,5.799-1.063l-5.848-29.999c-.056-.603.043-1.64.584-1.984,1.247-.794,12.746-.219,15.308-.322,22.492-.9,47.446-5.94,66.704-17.781l1.104-.008,1.175,1.05,25.784,114.643c.143.551.135,1.089.017,1.644-.325,1.528-6.049,5.284-7.638,6.271-18.05,11.205-50.862,18.34-71.699,14.368-2.892-.551-5.385-.475-6.402-3.47-3.426-10.093-5.864-23.468-8.332-34.084-2.146-9.23-4.127-18.515-6.031-27.796l-5.35,3.095,24.61,109.471c1.418,6.259,5.359,11.332,11.207,14.022,16.299,7.497,59.292-.855,73.849-11.46,16.58-12.079,9.402-34.796,5.981-51.569-6.832-33.492-13.632-67.184-21.269-100.497-4.145-18.081-9.09-46.836-21.203-60.703-11.333-12.973-28.434-17.039-36.58-33.255-5.408-10.766-7.36-25.126-10.286-36.884-2.254-9.058-4.721-18.068-7.098-27.088ZM257.466,283.8l-24.826-111.475c-23.157,13.266-51.107,16.623-77.5,16.822l5.296,27.064c.592.809,5.904-.77,7.316-.765,10.621.035,11.113,11.401,4.012,17.57-1.549,1.346-5.498,3.18-6.384,4.218-.293.344-.464.594-.389,1.072,4.216,20.9,9.289,41.604,14.349,62.297,12.832,3.332,27.283,1.842,40.156-.827,13.515-2.802,26.789-7.863,37.971-15.976Z"/><path d="M277.149,95.991c.617.654.604,2.3.175,3.097-5.275,8.157-9.435,17.791-14.774,25.81-.839,1.261-1.286,2.535-3.024,2.476-2.51-.086-2.853-2.438-1.721-4.297,5.424-7.913,9.398-17.966,14.902-25.683,1.054-1.478,2.57-3.387,4.442-1.402Z"/><path d="M300.18,125.962c2.967-.599,4.092,2.332,2.055,4.256l-26.452,14.894c-3.179.204-4.105-3.336-1.217-4.906l25.615-14.244Z"/><path d="M303.84,161.815c1.713,1.625.336,4.237-1.951,4.259-6.67-.504-15.089,1.647-21.554.783-2.777-.371-2.679-4.261.404-4.751,3.498-.557,8.742-.241,12.424-.371,1.985-.07,9.439-1.094,10.677.08Z"/><path d="M225.823,219.199c2.675,2.678-4.886,7.216-6.974,8.02-2.647,1.02-6.136,1.034-8.085,3.249-2.118,2.407-1.487,4.104-.222,6.759,2.216.138,4.093.449,6.019,1.619,7.631-12.608,23.364,1.284,12.28,10.456,3.31,4.726,1.856,10.725-3.324,13.18,4.845,12.689-13.23,17.954-16.104,4.944-5.971.674-10.238-3.233-10.191-9.186-15.191-.609-9.152-22.522,4.381-15.361.524-1.928,2.206-3.172,3.291-4.545-.886-4.063-3.753-6.632-7.893-7.117-1.332-.156-5.2.456-5.75-.856-1.862-4.441,7.919-2.83,10.247-1.814,1.108.483,2.016,1.278,3.031,1.899,2.242-6.46,10.033-5.01,14.268-8.59,1.22-1.031,3.128-4.555,5.025-2.656ZM228.968,242.242c0-2.531-2.052-4.584-4.582-4.584s-4.582,2.052-4.582,4.584,2.052,4.584,4.582,4.584,4.582-2.052,4.582-4.584ZM216.322,245.916c0-2.622-2.125-4.748-4.747-4.748s-4.747,2.126-4.747,4.748,2.125,4.748,4.747,4.748,4.747-2.126,4.747-4.748ZM203.391,249.825c0-2.585-2.095-4.681-4.68-4.681s-4.68,2.096-4.68,4.681,2.095,4.681,4.68,4.681,4.68-2.096,4.68-4.681ZM226.753,254.705c0-2.55-2.066-4.616-4.615-4.616s-4.615,2.067-4.615,4.616,2.066,4.616,4.615,4.616,4.615-2.067,4.615-4.616ZM212.31,259.085c0-2.517-2.04-4.558-4.557-4.558s-4.557,2.041-4.557,4.558,2.04,4.558,4.557,4.558,4.557-2.041,4.557-4.558ZM222.479,266.678c0-2.488-2.016-4.504-4.503-4.504s-4.503,2.017-4.503,4.504,2.016,4.504,4.503,4.504,4.503-2.017,4.503-4.504Z"/><path d="M185.602,214.012c-.241,1.689-1.795,6.62-3.56,6.887-.952.153-2.102-.68-2.201-1.637-.037-.356,2.028-5.14,2.362-6.269.887-2.994.996-6.497,1.809-9.161.414-1.358,1.422-1.936,2.804-1.464,2.077.709-.39,9.539,3.351,10.413,1.83.011,4.099-4.425,4.884-5.952.659-1.282,2.116-5.936,3.232-6.277,2.958-.906,3.172,3.54,4.559,5.537,4.571,6.583,5.628-7.169,9.653-7.432,2.826-.185,4.356,7.366,7.923,2.097,1.217-1.797,1.211-5.437,4.038-4.604,3.328.98-1.614,8.077-3.413,9.252-2.92,1.906-5.985.674-8.208-1.622-2.195,3.68-4.601,9.96-10.015,7.452-2.053-.951-2.223-2.709-3.872-3.8-2.757,5.337-7.021,13.22-13.345,6.581Z"/></svg>