<?xml version="1.0" encoding="UTF-8"?><svg id="Capa_1" xmlns="http://www.w3.org/2000/svg" viewBox="0 0 452.377 390.432"><path d="M135.972,192.62c.562-3.136,1.599-5.164.308-8.294-1.433-3.473-5.199-5.966-7.591-8.739-15.095-17.499-7.187-33.145,3.725-49.882,6.67-10.232,14.781-19.8,23.241-28.584.906-.617,2.056-.362,3.056-.175,8.789,1.641,24.744,8.106,33.237,11.844,2.502,1.101,7.67,2.784,8.194,5.646-.467,9.779-2.592,19.477-3.817,29.198l25.385-2.479c5.148.358,10.35-1.043,15.437-.005-3.118-9.053-6.586-17.999-9.127-27.253-.759-2.764-3.37-10.891-2.401-13.202.6-1.43,12.81-7.85,15.073-9.066,4.786-2.573,9.907-5.188,14.791-7.573,2.725-1.331,9.38-5.001,11.837-5.554,2.639-.594,3.963,1.294,5.873,3.01,4.347,3.906,9.165,9.133,13.131,13.492,14.22,15.632,32.368,35.151,19.759,57.389-2.55,4.497-8.096,8.479-6.448,13.961,4.479-.685,9.892-2.902,14.38-2.869,14.287.105,22.202,4.43,33,12.816,14.461,11.231,27.242,24.802,43.734,33.316l.44.013c.479-1.703,2.047-2.002,3.595-1.584,1.892.512,10.587,6.399,11.499,8.026,1.545,2.756-.458,10.437-1.242,13.609-2.534,10.261-8.411,24.103-15.765,31.8-3.281,3.433-4.682,2.072-8.586.412-1.758-.748-8.16-3.848-9.15-5.048-.408-.495-.786-1.574-.788-2.224-.009-2.474,2.275-6.561,2.299-8.3.021-1.455-8.926-6.877-10.575-7.746-1.714-.903-3.541-1.749-5.338-2.472-1.541-.62-6.544-2.713-7.797-2.133-.614.284-4.08,3.916-5.166,4.781-8.197,6.527-25.186,16.482-35.847,15.273-3.671-.416-5.261-3.266-4.629-6.763,1.306-7.224,14.547-10.1,8.834-19.169-5.023,1.095-13.092.942-16.044-4.114-.665-1.139-.786-3.545-1.475-4.205-.43-.411-2.564-1.045-3.429-1.54-3.734-2.138-4.735-5.514-4.175-9.644-6.549-2.597-7.77-8.419-5.503-14.675-7.996-5.128-5.563-15.886,2.441-19.429-1.739-6.421-8.934-4.736-13.998-5.299-11.021-1.226-20.84-6.882-27.16-15.966,3.022,9.575,6.947,19.313,8.984,29.17,2.416,11.689.018,23.461-8.635,32.055-2.049,2.035-6.869,4.576-8.008,6.901-1.063,2.169-.862,4.782-.867,7.123,9.27.464,19.066,2.937,27.226,7.386,16.99,9.265,24.472,34.722,34.261,50.577,4.157,6.734,10.425,15.368,16.43,20.486,3.559,3.034,8.354,3.4,6.389,9.21-3.39,10.021-24.16,23.086-34.409,23.451-7.153.255-2.836-4.53-5.578-8.652-1.428-2.146-7.699-8.128-9.876-10.003-3.588-3.089-7.567-4.965-11.72-7.131l-.69.029c-3.433,2.78-7.8,4.096-12.078,4.99-10.039,2.098-22.385,2.218-32.234-.806-4.181-1.283-9.16-3.002-8.165-8.353,1.038-5.583,10.581-5.677,14.805-7.912,4.176-2.21,5.257-6.304,4.474-10.819-4.801-1.62-10.999-4.923-10.87-10.809.022-1.008.861-2.95.7-3.498-.144-.489-1.017-.68-1.382-1.119-1.677-2.02-3.078-4.666-2.751-7.359.162-1.333,1.552-3.98,1.279-4.984-.131-.483-1.88-1.99-2.369-2.983-2.051-4.168-.381-8.63,2.74-11.698-5.453-6.816-1.394-17.144,7.11-18.614-.15-7.772-6.052-8.048-11.574-10.558-6.663-3.028-11.841-6.742-15.565-13.188-6.373-11.032-4.215-22.759-3.015-34.789l-4.785,6.746c-5.047,5.77-11.265,9.57-18.704,11.469-3.43.876-8.494.758-10.742,3.813-.501.68-2.144,3.784-1.658,4.424.408.536,1.724,1.035,2.336,1.595,5.018,4.588,5.364,11.062-.071,15.428,3.187,4.942,1.852,10.325-3.139,13.304,2.321,4.949.246,9.837-4.44,12.321,2.406,9.04-4.832,14.989-13.429,13.992-.821,3.36-2.19,6.646-.711,10.045,2.779,6.385,19.702,6.24,15.192,15.968-3.646,7.866-23.259,5.038-30.072,3.523-7.225-1.607-14.705-3.843-20.468-8.624-8.1,2.923-15.434,9.493-20.769,16.152-.798.996-2.424,2.807-2.921,3.824-.816,1.67-.245,3.484-2.402,3.979-13.703,3.141-30.318-12.171-31.265-25.546-.559-7.896,2.693-6.429,7.726-9.693,10.302-6.682,17.987-21.508,25.013-31.427,11.768-16.611,26.52-30.157,45.996-37.068,2.012-.714,8.104-2.928,9.851-2.928h7.633ZM297.855,174.162c-.383-2.534-2.047-4.831-2.393-7.367-1.131-8.285,3.244-9.942,6.802-16.087,7.366-12.719,3.924-22.923-3.764-34.158-8.335-12.18-19.302-22.745-29.56-33.273l-1.05-.34c-13.089,6.04-26.032,12.474-38.395,19.886,2.632,10.843,5.861,21.616,9.873,32.03,5.925,15.379,12.184,27.587,30.306,30.04,6.883.932,12.658-1.16,17.321,5.398,1.955,2.749,2.765,6.06,4.647,8.834,1.23-2.775,2.718-5.35,6.213-4.964ZM148.008,195.781c1.939-9.647,9.772-8.636,17.072-10.794,19.974-5.903,24.599-26.918,27.589-44.825,1.188-7.112,2.911-16.282,3.305-23.337.037-.667.134-1.211-.358-1.766-.367-.413-3.779-1.745-4.63-2.113-10.541-4.565-21.551-8.128-32.516-11.54l-.942.052c-8.977,9.1-17.534,19.529-24.192,30.494-8.369,13.785-13.792,26.301-1.97,40.248,2.057,2.427,4.63,4.348,6.526,6.963,3.433,4.734,3.761,8.553,2.13,14.185l7.984,2.434ZM235.325,145.106c-13.025-.067-26.088.921-38.943,2.854-1.307,6.673-2.888,13.316-3.905,20.051-2.496,16.517-5.347,35.69,11.548,45.482,4.351,2.522,11.934,4.017,15.027,7.692,3.068,3.646,3.091,8.871,4.591,13.175,2.904-.794,5.158-.585,7.65,1.206-.08-5.12-1.72-10.122.109-15.148,1.6-4.395,7.207-6.702,10.351-10.237,11.339-12.749,7.13-25.809,2.671-40.275-2.594-8.418-5.839-16.634-9.1-24.799ZM313.12,195.463c3.283,4.072,4.591,9.093,6.796,13.611,1.377,2.822,3.113,5.446,4.514,8.265,1.36,2.737,1.421,5.394,4.333,7.381,5.475,3.734,12.562-.348,18.372,1.153,2.92.754,2.596,3.079,3.621,3.833.421.31,4.635,1.252,5.769,1.686,8.181,3.132,15.65,7.878,22.139,13.736.6.108,1.787-1.795,2.196-2.349,4.247-5.745,7.526-13.38,9.122-20.34.302-1.315,1.541-7.06,1.071-7.817-7.249-4.198-14.436-8.608-21.096-13.698-11.795-9.014-30.502-29.002-44.4-31.92-8.336-1.75-16.05-1.603-24.158,1.077-.534.337.097,1.393.295,1.841,3.878,8.771,16.227,3.405,22.974,3.641,2.898.101,3.777,1.82,1.695,3.854-7.438.506-13.605,2.587-21.052.6-2.742-.732-9.342-4.518-9.6.726-.308,6.246,8.318,10.492,13.685,10.804,2.109.122,3.854-.451,5.987-.3,9.185.65,8.767,7.912,15.516,12.169.997.629,4.149,1.847,4.612,2.485.973,1.341.058,3.327-1.615,3.364-2.019.045-7.926-4.244-9.425-5.812-3.691-3.86-4.374-9.393-11.352-7.991ZM286.49,178.068c-2.215.445-4.3,2.67-5.037,4.717-2.253,6.251,4.043,9.273,9.032,10.638,1.531.419,8.823,2.222,8.801-.271-1.011-1.585-2.833-2.86-4.28-4.249-1.62-1.555-4.414-3.806-5.662-5.342-1.239-1.525-2.181-3.65-2.854-5.493ZM285.991,196.2c-2.97,5.675.692,8.126,5.819,9.385,4.92,1.208,10.579,1.212,15.159-1.191,3.294-1.728,3.906-4.92-.145-5.657-5.709-1.039-10.316.278-16.292-1.103-1.551-.358-3.007-1.029-4.541-1.435ZM113.482,261.71c3.002-2.791,6.672-9.679,9.458-11.308,1.727-1.01,10.789-3.199,12.179-2.091.513.409.409,1.531,1.078,1.769,6.857.231,10.091-8.549,2.712-11.237-4.679-1.705-8.294-1.2-12.956.019-1.738.454-5.277,2.84-6.159.276-.939-2.731,3.126-3.511,5.173-4.101,4.313-1.245,8.363-1.751,12.783-.714,1.349.317,6.13,2.661,6.476,2.615,1.71-.23,3.695-2.711,3.805-4.431.258-4.015-8.444-7.64-11.686-8.137-6.426-.986-11.637,1.752-17.592,3.426-4.198-1.924-1.332-3.539,1.416-4.655,7.477-3.038,13.885-4.379,21.577-1.33,1.176.466,5.596,3.085,6.116,3.086,2.216.005,4.306-3.27,4.016-5.382-.664-4.837-12.897-9.677-17.207-9.828-6.185-.218-13.683,3.788-19.528,5.562-3.455-1.338-2.121-3.145.469-4.474,10.463-5.367,19.358-6.422,30.186-1.888,2.898,1.214,6.994,4.923,8.125-.63,1.218-5.979-8.067-8.945-12.548-10.21-9.543-2.696-14.665-1.366-23.602,2.111-17.964,6.989-31.509,20.149-42.44,35.655-7.981,11.321-15.626,26.285-28.096,33.314-2.524,1.423-3.848.303-3.524,4.198.532,6.405,6.362,14.375,11.564,17.903,2.416,1.639,11.442,5.712,13.783,3.622.271-.242,2.308-3.863,3.022-4.787,5.489-7.107,12.743-13.554,20.809-17.529,6.221-3.065,15.564-6.147,20.593-10.823ZM291.48,209.665c-.685,1.709.054,3.564,1.493,4.696,2.287,1.799,8.185,2.204,11.05,1.993,2.62-.192,9.604-1.972,9.828-5.105.391-5.455-7.197-2.205-9.889-1.698-4.327.815-8.135,1.117-12.482.113ZM346.491,229.893c-2.681-.93-5.335.209-7.992.348-6.518.341-12.106-.241-15.723-6.279l-5.392-10.752c-.936,1.973.185,1.634.85,2.516,2.9,3.847,2.052,7.975-1.946,10.49,2.318,5.539,2.487,9.036-1.404,13.779-2.62,3.193-14.311,11.993-1.337,9.667,8.206-1.471,18.357-6.961,25.094-11.825,1.136-.82,8.958-6.648,7.849-7.944ZM402.474,217.924c-.235-.294-5.565-4.136-6.08-4.387-.431-.21-.724-.45-1.266-.328-.375,13.069-6.256,27.617-15.085,37.272-1.005,1.099-3.53,2.906-4.095,3.717-.285.409-.528.258.016.706.974.801,8.479,4.418,9.407,4.325,8.315-8.943,13.651-21.014,16.327-32.885.399-1.77,1.792-7.147.775-8.42ZM299.631,220.307c.77,4.672,6.941,4.886,10.667,4.098,2.264-.478,5.979-1.818,5.693-4.64-.372-3.684-7.41-.3-9.531.093-2.169.402-4.622.465-6.83.448ZM284.363,335.309c6.508-.787,13.355-4.372,18.785-8.019,4.875-3.275,10.356-7.544,12.073-13.402-9.734-6.22-17.354-16.616-23.333-26.389-8.254-13.491-13.298-30.241-24.199-41.824-7.898-8.392-21.019-12.47-32.317-12.947-.292.297.653,5.753,1.229,6.405,1.956,2.214,11.758,5.22,14.987,6.667,2.057.922,9.764,3.815,6.769,6.711-1.312,1.269-5.556-1.781-7.124-2.451-4.34-1.856-9.232-3.271-13.39-5.424-2.565-1.328-7.994-5.834-9.907-6.419-3.588-1.096-4.18,2.018-3.761,4.825.649,4.357,4.105,8.318,7.289,11.166,4.546,4.066,12.124,7.279,6.064,14.501,3.109,2.725,3.608,8.198-.031,10.699,1.221,1.865,2.304,3.204,2.054,5.577-.149,1.413-1.318,3.177-1.313,4.31.005,1.217,1.26,7.019,1.79,8.173,2.322,5.05,12.32,6.462,16.123,9.791,4.29,3.755,6.966,4.399,11.499,7.315,3.817,2.455,15.033,12.698,16.261,16.752.407,1.344.564,2.578.453,3.984ZM223.302,251.894c-.934-2.712-2.708-5.164-3.101-8.076-.194-1.435-.008-9.641-1.36-9.989-4.467.6-7.567,5.397-6.208,9.748,1.148,3.677,7.057,7.474,10.67,8.318ZM213.615,251.579c-7.968,7.367,6.229,13.652,12.357,14.153,2.493.204,12.227.851,8.875-3.551-.61-.801-5.56-4.818-6.438-5.275-1.912-.995-5.228-.683-7.687-1.542-2.572-.899-4.594-2.818-7.106-3.786ZM129.225,252.962c-.209-.204-2.629.42-3.119.604-2.529.954-5.552,6.602-7.702,8.982-4.807,5.323-10.523,7.801-16.866,10.819.563,1.256,6.693,3.63,8.245,4.18,8.264,2.926,21.007,5.62,29.535,3.427,1.908-.491,6.42-1.925,4.264-4.568-1.324-1.623-7.929-3.82-10.282-5.334-7.009-4.51-6.078-10.901-4.075-18.11ZM214.244,265.78c-3.665,5.773,3.366,9.128,7.992,10.43,2.945.829,16.648,2.67,13.444-3.506-1.772-3.416-10.278-2.867-13.949-3.798-2.596-.659-5.151-1.851-7.488-3.126ZM217.434,278.566c-2.625,3.419,2.259,6.544,5.067,7.674,2.869,1.154,9.875,2.396,12.183-.073,1.755-1.877.672-3.244-1.345-4.02-3.234-1.244-6.693-1.006-10.048-1.666-1.955-.385-4.014-1.158-5.856-1.915ZM227.917,291.647c.202,6.711-2.161,11.789-8.525,14.371-2.426.984-10.513,2.204-11.218,4.79-.406,1.487,4.15,2.93,5.273,3.297,8.157,2.665,19.267,2.613,27.681,1.223,4.206-.695,8.945-1.699,12.35-4.337.153-.595-1.664-1.547-2.115-1.786-5.282-2.798-12.71-4.146-15.195-10.364-1.01-2.529-1.161-5.3-1.864-7.903l-6.388.711Z"/><path d="M210.414,39.71c.619-.189,1.368-.123,2.004-.011.433.148.654.583.786.987.489,1.504.212,6.791.177,8.731-.019,1.012-.359,1.869-.387,2.808-.133,4.579.249,10.873-.374,15.243-.501,3.515-4.622,3.14-4.609-.677.028-8.312,1.266-16.809,1.114-25.179.112-.701.581-1.686,1.29-1.903Z"/><path d="M194.464,75.407c-1.866.901-2.566.608-3.758-.868-3.078-3.81-9.406-13.802-11.605-18.21-.499-1.001-1.225-2.749.06-3.586,1.681-1.095,2.805-.065,3.752,1.192,3.301,4.383,8.827,12.935,11.338,17.766.788,1.517,1.211,2.024.213,3.706Z"/><path d="M241.666,53.539c1.133-.178,2.529,1.126,2.546,2.243l-10.098,18.271c-2.265,1.904-4.875.073-3.789-2.724,3.446-4.869,5.93-11.45,9.367-16.19.449-.619,1.194-1.477,1.974-1.599Z"/><path d="M245.4,267.952c3.944-1.744,3.297,1.469,4.254,3.917,1.06,2.712,2.628,4.66,4.703,6.656,1.791,1.723,5.799,3.09,2.661,5.85-1.932.867-6.393-3.69-7.625-5.146-2.423-2.862-5.126-7.517-3.992-11.278Z"/><path d="M294.565,131.299c1.034-.197,2.273-.195,3.295.088,1.673.835.936,6.764.608,8.427-1.373,6.963-9.113,17.387-16.51,18.277-11.968,1.441-24.204-1.171-30.678-12.078-7.532-12.69,4.527-7.068,11.978-7.683,7.248-.595,14.52-1.325,21.538-3.312,2.996-.848,7.32-3.252,9.769-3.719Z"/><path d="M132.86,149.402c.655-.428,1.419-.503,2.183-.424,2.479.255,6.737,2.176,9.73,2.721,12.271,2.231,20.122.079,31.85-.602,7.08-.411,7.157,1.847,5.156,7.995-2.674,8.215-9.447,15.892-17.848,18.36-8.97,2.635-13.356,2.675-20.509-3.46-6.719-5.762-13.747-15.336-10.563-24.588Z"/><path d="M239.553,185.61c4.909-.138,3.047,8.192,2.264,11.145-1.785,6.725-8.22,12.871-14.366,15.807-4.263,2.037-8.71.477-12.942-1.034-7.725-2.759-14.012-7.671-16.574-15.728-3.683-11.577,4.194-6.815,11.349-6.378,6.36.389,13.098-.117,19.353-1.23,2.983-.531,8.508-2.514,10.916-2.582Z"/></svg>