<?xml version="1.0" encoding="UTF-8"?><svg id="Capa_1" xmlns="http://www.w3.org/2000/svg" viewBox="0 0 666.878 456.453"><path d="M490.122,357.105c4.552-18.759,11.741-39.284,13.998-58.223-.718-.424-2.339-.682-2.77.289l-14.483,57.703c-15.115-2.335-30.695-.198-45.722.934-4.042.056-8.101-1.035-12.102-.28l-.498,1.607-9.186-1.311c.073-6.238,3.693-12.249,3.619-18.666-.064-5.572-3.648-11.223-4.241-16.566-1.462-13.164,5.449-19.702,9.405-31.08.472-1.356,3.234-8.799,1.563-9.227l-2.099.295c-2.04,13.297-13.278,24.314-12.165,38.115,4.115,19.936,6.826,14.902.352,36.564-24.818-1.804-28.629-22.399-61.818-20.703,2.557-5.668,9.437-7.599,13.695-12.029,12.506-13.553,4.974-35.39-2.116-49.777-2.056-.928-9.712-.697-12.333-.016-1.755-.017-1.018-3.733-1.267-5.272-1.449-8.309-3.814-11.79-10.493-15.94-.695-1.123-1.101-5.803-2.04-7.87-2.255-4.962-3.86-3.073-7.882-2.975-.855.021-1.684-.477-2.761-.442-3.088.099-3.57,1.845-5.294,2.302-12.362,2.514-29.311,3.966-42.202,3.748-1.809-11.437-4.724-22.603-9.534-33.143,3.932-2.117,6.225-6.302,5.666-10.879-.364-2.983-2.888-5.988-2.582-9.266.401-4.289,5.353-6.674,5.891-11.106.565-4.658-3.434-8.14-2.681-13.052,1.026-6.696,8.77-8.929,7.328-17.929-.375-2.344-2.237-4.675-2.608-6.83-.936-5.448,1.876-10.656,2.658-15.992,1.427-9.74-.77-19.399-4.183-28.479,6.163,3.35,10.372,8.912,9.907,16.269-.266,4.209-2.893,8.906-2.791,13.143.18,7.475,7.327,12.111,6.524,19.841-.686,6.607-6.662,9.88-3.814,17.593,1.156,3.13,5.035,6.661,5.265,9.875.366,5.112-6.015,9.918-6.135,15.063-.136,5.809,5.871,7.999,4.527,14.397-.336,1.6-3.156,4.875-1.705,5.897,2.647,1.864,5.122-5.775,5.187-7.649.206-5.962-5.337-8.007-4.697-13.621.33-2.894,3.67-5.921,4.814-8.871,4.068-10.488-6.26-12.95-4.693-21.202.433-2.28,2.683-5.087,3.418-7.435,3.938-12.595-6.856-16.299-5.306-27.002,5.003-13.591,2.066-22.59-10.203-30.199-.377-1.623.265-3.096.193-4.838-.308-7.503-5.639-14.355-13.648-13.981-1.744-5.665-7.341-9.461-13.302-8.146-3.529-7.227-11.61-11.193-19.558-10.139-3.664.486-6.66,3.803-10.429,4.206-6.542.698-10.757-2.946-18.449-.496-9.436,3.006-10.124,12.725-17.072,16.445-6.763,3.621-14.208,1.061-20.938,7.394-6.784,6.384-4.837,14.533-9.92,20.758-5.389,6.599-15.159,4.611-20.034,13.958-2.807,5.383-1.219,9.476-2.761,14.227-3.246,10-18.458,7.423-22.564,19.924-1.963,5.977,1.118,12.016-4.003,16.289-3.941,3.288-9.158,4.764-10.143,11.1-.294,1.893,0,4.996,0,7.077,0,.2,1.162,1.252,1.654,1.193l1.227-.694c.599-.751-.163-4.031.008-5.638.876-8.211,8.452-8.145,11.845-13.641,4.614-7.474-2.121-14.216,7.784-21.476,4.928-3.612,10.597-3.466,14.786-8.821,4.879-6.237,1.527-13.422,5.474-19.066,5.049-7.221,13.724-5.799,19.341-12.763,5.468-6.779,2.993-14.881,10.617-21.006,5.927-4.761,13.251-2.753,19.341-6.158,6.63-3.707,8.298-12.863,15.015-15.669,8.275-3.457,14.345,2.095,22.118-.554,2.056-.701,3.609-2.226,5.557-2.941,7.037-2.584,14.735,1.457,18.273,7.631-3.089-1.27-6.038.596-8.726.499-2.402-.087-3.657-1.425-6.985-.851-3.901.673-5.787,4.842-8.722,5.439-5.01,1.018-8.976-1.186-14.268,1.79-7.377,4.148-7.035,12.782-13.02,17.189-4.916,3.62-11.145,1.954-16.069,7.067-5.876,6.101-4.708,15.833-10.195,20.955-4.889,4.563-12.427,3.479-17.422,8.547-7.381,7.49-2.148,15.612-8.312,22.836-4.831,5.662-12.827,3.323-17.291,11.037-2.566,4.78-2.33,10.215-4.921,14.942-.255,1.622.927,3.072-.149,4.53-.519.703-9.48,5.922-11.24,7.17-7.962,5.648-15.611,12.146-22.811,18.733-17.158,15.7-50.213,47.342-37.722,73.075,10.386,21.399,38.06,12.801,55.201,5.956-2.247,20.808-4.434,41.853-7.545,62.516-.097,1.544-.57,4.246,1.644,4.035,1.444-.138,1.364-2.773,1.587-4.107,3.508-20.89,4.424-42.239,7.653-63.178.095-1.493-1.442-1.586-1.365-3.142.1-2.024,4.205-16.063,5.226-17.952.154-.689,6.026-6.001,5.481-3.499-1.688,13.576-.925,51.048,17.317,52.59,34.515-6.767,69.806-10.404,104.24-17.505,24.049-4.305,23.607-15.733,40.06-24.856l8.757,66.984c-12.2,9.384-31.855,15.233-45.918,6.88,2.149-10.721,6.546-33.373,6.397-43.126-.473-.739-2.522-.512-2.669.739-2.139,17.278-4.755,34.512-8.923,51.407l.386,1.503c4.033,1.828,2.808-6.659,4.441-7.008,12.629,5.864,27.742,3.576,39.659-2.826,1.342,0,.21,10.1,4.273,6.109l-1.121-7.257c2.187-2.239,6.864-3.323,6.568-7.119l-8.994-67.064c-.141-.607.051-.916.448-1.347,1.561-1.698,15.396-4.964,18.421-5.664,5.12-1.186,15.312-3.843,20.106-4.016,2.367-.085,3.57,1.207,6.536.901,2.137-.221,2.979-1.268,4.417-1.718,1.621-.508,3.384.043,5.073-1.539,2.259,4.018,2.892,8.65,2.606,13.219h-14.879c-1.617,0-2.109,1.794-2.677,2.988-6.049,12.713-11.641,34.624-1.107,46.084,4.977,5.415,12.14,6.848,15.826,12.971-6.827,1.199-12.537,3.019-8.575,10.78-.184.901-1.852,1.679-1.85,4.315.002,3.397,3.263,5.182,3.266,5.658.004.619-2.23,2.376-1.129,5.928.533,1.719,3.408,3.031,3.535,3.559.099.411-.864,1.758-.945,2.787-.164,2.067.904,3.85,2.387,5.193,3.255,2.949,6.18.837,3.813,7.095-1.909,5.046-8.714,3.75-12.94,6.419-4.539,2.866-3.332,6.569,1.106,8.651,8.255,3.872,27.635,4.372,35.895.472,6.34-2.993,5.197-7.241-.821-9.557-5.375-2.069-10.671-.938-11.459-8.601,5.362-.543,9.605,3.046,14.398,4.722,10.913,3.815,14.594,2.052,25.091.986,4.861-.494,11.755,2.671,16.807,3.873,2.696.641,13.497,2.128,14.772,3.173.56.459.405,2.847,1.825,2.474,1.408-.37,4.186-7.545,4.801-9.107,3.349-8.505,3.494-16.776.719-25.466,8.759,1.531,17.49-.431,26.218-.941,11.792-.69,24.747-1.055,36.021,2.698,1.569.522,7.795,4.208,7.541.827-.18-2.397-11.396-4.653-11.573-5.63ZM282.611,155.112c-.133,5.192-6.522,9.114-7.404,14.31-1.013,5.967,1.431,7.281,2.134,11.794.908,5.831-4.213,6.986-5.246,11.987-1.467,7.103,6.713,14.234-1.961,19.293l-12.399-12.515c1.211-2.213,3.237-3.723,3.999-6.274,1.397-4.672-2.398-7.272,1.082-12.13,2.522-3.52,5.229-5.328,7.636-9.83,1.288-2.409,4.735-12.889,5.233-13.411.896-.939,2.777-.829,3.696-3.151,1.376-3.475-2.504-5.44.675-7.814.717,2.44,2.622,5.105,2.554,7.738ZM259.016,191.915c-.347,2.57-3.28,4.376-3.767,6.882l-20.766-9.197,4.076-6.807c6.182,2.635,13.026,5.102,19.526,1.85-.358,2.512,1.265,4.797.931,7.272ZM131.281,176.166c1.262-18.151,16.229-9.143,22.438-23.824,2.013-5.614-.221-10.438,3.843-15.977,4.812-6.558,11.58-4.603,17.355-9.086,7.316-5.679,5.497-14.535,10.656-20.967,4.905-6.114,11.832-3.784,17.477-8.492,5.831-4.863,5.579-14.28,13.487-17.195,4.54-1.674,8.217.627,12.737-.96,3.025-1.062,5.539-5.264,8.785-5.396,1.192-.049,2.388.781,3.731.919,3.773.389,7.081-1.635,10.799.541,1.183.693,2.622,3.096,3.761,3.134l1.208-.437c.692-2.003-1.177-3.034-1.828-4.65,4.999-.881,9.153,2.66,9.705,7.52,1.05,2.258,2.626.912,4.23.925,6.951.059,9.686,8.313,8.733,14.195-1.629-.867-4.687-5.492-6.601-4.504-2.456,1.877,1.847,3.996,3.288,5.694,2.82,3.324,7.568,15.627,7.568,19.805v6.841l-5.7.785-.351,1.267c1.324,2.706,3.899-.461,5.992.839-.895,3.481-4.029,16.123-5.142,19.284-1.092.227-.755-.13-1.058-.604-.266-.416-1.771-4.116-1.771-4.351v-7.077c-3.581-3.098-3.06,4.192-2.783,6.554.489,4.172,3.145,7.049,4.432,10.685,2.208,6.235-7.081,3.267-8.057,4.666l-.158,1.876,4.203.518c-6.764,23.249-19.58,32.794-40.297,15.444-5.477-.665,2.277,5.968,3.863,6.319l.083.62c-3.278,5.468-7.01,11.39-7.524,17.879,3.231,2.986,3.181-3.121,4.166-5.147.712-1.465,2.102-1.388,2.555-.087.26,18.238-15.504,28.316-30.396,15.221-2.716-2.347-8.751-9.227-8.997-12.725-.568-8.071,5.947-6.488,9.209-11.135,3.783-5.39-.305-11.115,2.41-15.521,2.417-3.922,8.725-3.591,11.271-8.558,2.12-4.137.753-7.777,1.227-11.985.824-7.32,8.885-7.002,11.908-12.167,4.963-11.288-3.512-16.627,12.626-22.773,8.811-7.269.775-15.764,13.591-18.978,2.295-1.295,3.025-3.738,6.459-3.383,1.541.159,7.666,3.811,8.315,1.232.675-2.679-9.629-4.282-11.364-3.879-2.14.497-3.175,2.258-4.828,3.199-2.923,1.665-5.577,1.212-7.813,4.463-3.191,4.639-1.305,11.444-6.365,14.873-3.228,2.187-6.952,2.453-9.508,6.072-4.184,5.924-1.003,12.97-3.948,17.759-1.969,3.202-6.301,3.698-8.854,6.253-5.668,5.671-1.022,12.744-4.365,18.286-1.766,2.927-6.663,3.41-9.311,5.797-6.315,5.691-.203,13.019-4.239,17.94-1.66,2.023-4.039,1.842-5.928,3.515,0,0-3.763,5.431-3.763,5.431-2.114-5.177-6.2-9.455-10.861-12.499,3.057-2.175,6.738-2.831,8.889-6.209,3.194-5.016-.252-10.564,2.989-15.414,3.851-5.762,11.594-3.726,14.328-13.052,1.738-5.929-.843-11.563,5.277-15.959,2.945-2.115,6.526-2.143,9.057-5.108,4.906-5.749.953-15.832,9.335-19.455,2.7-1.167,4.48-.73,7.044-2.872,7.428-8.073-.044-9.868,15.013-17.083,4.527-1.988,11.18,6.018,15.249,6.073,1.864-2.963-6.028-9.525-10.485-9.706-5.072-.206-5.547,1.049-9.213,2.963-9.413,4.915-6.309,4.157-10.467,12.663-2.282,4.669-5.335,3.671-9.169,5.468-9.859,4.622-4.655,17.195-11.626,21.413-2.394,1.448-5.491,1.952-7.856,3.948-6.615,5.585-2.723,14.086-6.444,19.512-3.36,4.9-9.653,4.077-13.049,10.084-2.637,4.664-1.288,6.337-1.503,10.864-.339,7.161-6.799,6.541-10.996,10.617-5.047-1.795-10.432-2.377-15.755-2.758-.445-3.898,4.021-4.969,5.928-7.054,2.929-3.203,1.699-6.792,2.228-10.513,1.397-9.831,11.555-7.371,16.408-13.806,5.266-6.983,1.445-16.393,9.673-21.948,5.274-3.56,9.852-2.031,14.659-8.004,4.972-6.178,2.712-15.095,11.716-18.964,2.461-1.058,4.87-.772,7.31-1.662,5.177-1.889,5.572-7.89,11.224-9.076.961-3.898-3.236-2.365-5.219-.967-2.374,1.673-3.939,5.467-6.042,6.703-3.409,2.004-7.543.821-11.897,4.157-7.354,5.634-5.092,13.167-10.155,18.636-4.504,4.865-11.37,3.371-16.313,9.183-5.335,6.273-3.217,12.403-6.456,18.557-3.229,6.135-10.817,4.685-15.226,10.269-3.312,4.194-2.176,5.942-2.645,10.568-.612,6.042-4.26,5.434-6.812,9.237-.811,1.209-1.481,4.307-1.797,4.578-.962.825-4.362.434-5.733.639-8.392,1.255-16.263,3.927-23.908,7.49-.355-2.898,1.392-5.329,2.136-8.005ZM107.774,288.33c-15.496,5.038-36.694,14.183-49.003-1.556-17.713-22.65,19.127-57.914,34.463-72.179,21.793-20.271,50.141-42.1,81.967-33.259l3.787,1.403c5.496-.56,14.334,17.51,17.499,21.68,14.697,20.817,40.13,17.329,41.769-9.869,27.672,9.413,35.85,25.454,39.668,53.312-8.291-1.057-15.008-6.119-22.421-8.975-19.83-7.639-46.041,3.277-66.618,4.772-1.818-.102-4.724-4.098-6.41-5.429-8.577-6.775-23.697-12.029-34.617-11.066-2.796.247-13.622,3.451-14.634,3.277-.447-.077-.398-1.145-1.068-1.382-1.944-.687-15.269,3.032-18.234,3.839-3.959,1.077-29.727,9.006-30.546,11.492-1.475,5.826,12.414-3.056,14.943-3.487,9.89-3.581,20.142-6.085,30.346-8.607-10.544,17.098-15.714,36.782-20.893,56.032ZM118.276,262.955c3.468-9.964,7.277-19.958,13.091-28.795,9.199-2.789,17.708-5.41,27.356-3.344,18.983,4.064,36.299,17.726,34.179,38.98-.769,7.709-5.232,8.195-6.553-.051-.667-4.159-.535-7.5-1.925-11.759-.498-1.525-3.396-8.852-5.437-8.233-2.544,1.718,2.634,7.984,3.198,10.941,1.302,4.07,2.819,18.692-2.738,19.686-4.172.013-2.885-9.223-3.133-11.934-.306-3.353-2.418-11.459-4.098-14.306-.671-1.137-2.291-2.615-2.869-.775-.471,1.5,2.094,6.972,2.643,9.022,1.382,5.156,2.309,11.223.635,16.407-1.447,4.484-4.945,3.139-6.038-1.103-1.537-4.951-.816-20.613-6.5-22.784-2.739.252.644,5.681,1.145,7.374,1.031,3.488,2.57,13.926-.084,16.603-5.883,3.405-5.156-10.985-6.732-14.512-2.734-8.311-6.806-6.842-10.878-12.253-.746-.991-1.913-4.045-2.403-4.215-2.945-1.018-2.139,3.248-1.129,4.671-19.34,1.412-10.888,5.669-21.728,10.379ZM277.022,275.973c-13.895,12.387-17.288,19.173-37.267,22.222-32.973,6.421-66.471,10.496-99.497,16.679-3.017.39-5.847-.868-7.802-3.095-6.783-7.729-10.702-41.746-6.342-50.66,1.221-2.497,2.766-3.364,5.284-4.158,1.459-.46,9.602-2.069,10.512-1.75.397.139,6.304,4.431,6.828,4.921,5.41,5.06,2.934,17.183,7.304,21.012,2.529,2.216,5.918,1.369,7.813-1.19,2.029,4.821,8.133,6.422,10.889,1.377,4.746,3.512,10.16,1.923,10.605-4.215,10.47,6.291,11.513-8.805,10.331-15.75-.84-5.413-3.29-10.299-6.082-14.914,14.541-1.528,29.286-5.465,43.75-7.023,18.138-1.955,20.504,3.616,35.359,8.914,17.682,6.307,36.957.576,55.036-.954l1.893,13.681c-16.107,3.103-35.157,4.795-48.616,14.902ZM333.666,261.541c-1.785.107-3.717,1.451-4.836-.592-.864-1.576-2.154-9.352-2.266-11.415-.401-7.425,3.78-1.997,8.262-4.519,2.824-.091,5.356,14.257,3.276,15.077M327.283,321.468c-10.217-11.714-2.491-30.813,2.442-43.432l33.387-.847c2.31.795,7.244,19.71,7.738,22.937,4.097,26.454-15.53,23.745-20.16,36.218l-6.611.666c-2.01-8.149-11.365-9.315-16.797-15.542ZM363.412,390.589c6.819,2.36,1.487,4.585-2.454,5.548-7.904,1.977-19.579,1.728-27.397-.738-1.168-.368-5.637-1.729-4.56-3.585,7.256-4.009,16.224-2.077,16.515-13.22l5.115.463c.653,10.05,5.777,8.95,12.78,11.531ZM428.495,384.334c-.633,1.566-1.629,4.567-3.421,4.637-2.589.101-10.952-1.926-13.949-2.633-4.254-1.003-12.256-4.342-15.841-4.502-4.889-.219-10.169,2.495-16.925,1.845-8.216-.79-12.968-5.011-19.727-6.716-4.973-1.255-16.404-.394-19.512-5.043-.772-1.154-.985-3.274.523-3.701,3.436.316,14.376,3.658,18.533,2.259l-.017-2.008-.706-.709c-3.953.257-20.002-1.693-21.658-5.262-.998-2.152.707-3.657,2.814-3.778,0,0,18.906,2.372,18.906,2.372,1.303.033,1.696-1.935.724-2.61-5.782-2.037-18.159-.782-22.924-3.994-2.514-1.694-1.967-4.835.925-5.216,3.933-.519,11.4.125,15.55.556,1.72.178,6.257,1.66,7.372,1.133,1.068-.504,1.139-2.08.131-2.613-1.6-.847-8.586-1.673-10.753-1.878-2.614-.248-13.504.568-14.216-2.338-.83-3.386,5.206-4.053,7.615-4.265,27.59-1.922,33.401.64,55.648,15.172,9.939,5.386,20.282,5.453,31.164,7.559,3.743,5.59,2.174,15.71-.256,21.734Z"/><path d="M349.002,400.715c-7.297,0-14.808-1.071-19.284-3.17-8.521-4.193-2.554-10.44,4.488-11.29,3.102-.695,6.033-1.352,7.142-4.283,1.483-3.92.871-4.182-.764-4.882-3.708-1.293-7.144-5.718-4.51-9.986-4.396-2.532-4.783-6.136-2.433-9.506-3.293-2.745-4.576-6.324-1.387-10.1-4.112-7.323,1.836-9.996,8.318-10.979-3.849-5.733-10.844-7.272-15.472-12.421-10.973-11.938-4.509-34.862,1.04-46.526.631-1.342,1.142-3.192,3.039-3.216,0,0,14.501,0,14.501,0,.241-4.692-.547-8.791-2.345-12.197-1.64,1.254-3.172.831-4.836,1.299-1.635.581-2.377,1.525-4.496,1.734-2.89.336-4.029-.917-6.563-.899-8.53.877-32.696,6.419-38.248,9.549-.36.392-.449.57-.352.988l9,67.102c.279,4.025-4.206,5.13-6.538,7.312l1.122,7.258c-4.076,4.069-3.949-3.114-4.713-5.79-13.274,7.062-28.064,8.108-39.648,2.805-1.132,2.228-.585,8.922-4.778,6.854,0,0-.459-1.786-.459-1.786,0,0,.024-.098.024-.098,4.549-18.44,7.154-37.134,8.915-51.36.083-.701.646-1.256,1.47-1.445,4.396-1.376.969,10.517-1.363,28.057-.847,5.273-1.964,10.551-3.012,15.738,14.581,7.946,33.402,1.946,45.066-6.97l-8.657-66.221c-8.355,3.956-13.147,12.37-20.748,17.395-6.116,4.056-11.98,5.837-18.905,7.265-18.1,3.733-36.737,6.555-54.762,9.283-16.276,2.464-33.107,5.013-49.48,8.223-14.024-.083-17.386-24.464-18.184-34.943-.357-4.774-.555-13.487.433-18.315-1.009.213-4.228,3.051-4.772,3.965-1.018,1.882-5.083,15.842-5.179,17.782-.011,1.407,1.501,1.522,1.365,3.148-3.256,21.444-4.228,42.692-7.766,64.105-.032,5.178-4.858,4.578-3.955-.404,3.013-20.711,5.315-41.529,7.506-62.372-11.514,4.589-43.75,16.948-55.084-6.402-13.09-26.969,23.891-60.807,37.812-73.545,11.784-11.031,22.071-18.544,34.001-25.848.952-1.339-.232-2.837.074-4.352.895-2.485,2.335-4.986,2.565-7.679,2.705-20.463,22.411-7.937,23.286-29.024,1.741-24.217,22.836-9.354,27.035-30.75,1.149-3.904,2.336-7.941,5.361-11.081,4.804-5.111,10.955-3.472,16.12-7.112,6.054-4.66,5.735-13.236,13.062-17.215,6.365-4.041,12.639,1.309,17.871-4.134,3.986-4.202,7.333-3.467,12.316-2.294,2.537.039,5.146-1.423,7.809-.798-3.446-5.17-10.37-9.073-17.232-6.557-5.499,3.533-9.979,4.557-16.106,3.028-17.593-3.83-15.653,8.522-26.526,16.111-6.257,3.469-13.428,1.44-19.287,6.12-10.421,9.273-2.788,21.315-20.343,27.245-20.962,6.828-2.849,24.057-23.858,31.35-2.017.815-4.103,1.658-6.032,3.071-9.597,6.895-2.972,13.25-7.679,21.363-3.549,5.662-10.979,5.548-11.787,13.474-.177,1.366.643,5.131-.093,5.845,0,0-.116.099-.116.099,0,0-1.376.743-1.376.743-.718.182-2.124-1.204-2.101-1.59,0-.661-.03-1.425-.061-2.22-.915-6.665,2.137-11.226,7.18-13.996,8.695-4.399,4.994-10.844,7.046-18.374,2.221-6.761,7.497-9.167,12.6-11.495,20.533-7.506.794-23.108,24.186-31.464,15.269-4.383,9.396-16.838,18.599-26.075,6.614-6.324,13.89-3.812,21.023-7.454,2.947-1.578,4.736-4.269,6.629-7.119,4.389-8.14,12.806-12.034,21.808-9.496,9.048,2.442,10.229-1.469,17.649-3.584,8.143-1.078,16.245,3.057,19.831,10.082,5.771-1.109,11.427,2.355,13.371,8.189,10.059-.274,14.988,10.014,13.524,18.99,12.623,7.869,15.131,17.213,10.24,30.496-1.278,11.708,11.655,16.936,3.64,30.52-6.942,9.982,7.802,14.06,2.919,25.207-2.938,5.748-7.61,8.876-2.619,15.26,1.295,1.981,2.635,4.031,2.529,7.102-.164,1.734-2.201,9.925-5.817,7.963-1.821-1.25,1.145-4.623,1.544-6.306.696-3.313-.66-5.421-2.096-7.653-7.033-8.993,3.253-13.624,3.697-21.698-.275-3.174-4.137-6.679-5.241-9.764-2.886-7.864,2.971-10.995,3.791-17.772.776-7.603-6.385-12.276-6.526-19.79-.108-4.302,2.498-8.922,2.791-13.178.399-6.3-2.7-11.715-8.751-15.351,3.825,10.521,5.04,19.33,3.822,27.644-.762,5.291-3.564,10.443-2.66,15.866,3.524,7.907,4.222,11.866-1.206,18.262-1.597,2.037-3.105,3.96-3.513,6.625-.74,4.752,3.265,8.252,2.683,13.04-.46,4.426-5.416,6.833-5.89,11.095-.285,3.173,2.199,6.101,2.58,9.18.551,4.503-1.619,8.817-5.546,11.096,4.316,9.55,7.38,20.216,9.361,32.585,12.467.2,30.047-1.326,41.756-3.745,2.016-.761,2.421-2.263,5.384-2.316,1.759.221,3.562.668,5.206.19,6.177-1.849,6.425,7.048,7.83,11.286,1.355,1.044,4.659,3.028,5.629,4.193,3.626,4.584,4.83,9.493,4.977,13.649-.002,3.694.067,3.348,3.19,2.709,5.769-.214,9.83.008,10.222.59,9.67,17.503,12.61,41.407,2.137,50.352-3.973,4.205-10.623,6.2-13.348,11.361,33.395-1.26,36.497,18.772,60.864,20.691,11.686-31.985-10.611-26.581,5.765-58.187,2.556-5.254,5.19-10.681,6.017-16.444,0,0,2.472-.347,2.472-.347,0,0,.077.02.077.02,1.816,1.213.553,3.891-1.167,9.412-3.745,11.199-11.018,18.107-9.504,31.239.622,5.384,4.201,11.045,4.244,16.605.094,6.279-3.393,12.209-3.611,18.326l8.497,1.212.469-1.51c4.162-.851,8.256.277,12.407.227,15.072-1.125,30.245-3.257,45.426-.972l14.396-57.362c.518-1.316,2.451-1.076,3.361-.536,0,0,.135.131.135.131.478.761-.141,4.474-2.208,13.242-3.44,15.242-7.737,30.118-11.691,45.107,2.759,1.328,12.014,3.653,11.535,5.688-.058,3.933-5.341.602-8.066-.418-11.266-3.75-24.423-3.346-35.872-2.678-8.575.504-16.988,2.376-25.667,1.042,2.628,8.647,2.325,16.868-.921,25.112-2.89,7.493-4.446,9.332-5.071,9.347-1.731.402-1.679-1.677-2.18-2.551-3.777-1.696-14.858-2.526-19.809-4.635-13.945-5.845-21.891,2.705-36.739-3.329-4.616-1.6-8.8-5.065-13.821-4.734.556,9.553,15.227,4.845,16.485,13.049-.988,6.974-13.498,7.58-21.432,7.804ZM329.178,275.155c-1.033,0-1.503.902-2.056,2.177-5.6,11.702-12.257,34.333-1.435,46.224,4.939,5.404,12.512,6.91,16.167,13.52-4.816.693-12.914,2.717-9.334,8.954.349.703.601,1.211.516,1.628-.568,1.513-1.879,1.93-1.842,4.234.001,2.301,1.657,3.851,2.546,4.683.89.78.895,1.01.317,1.895-.565.905-1.51,2.42-.745,4.89.308,1.405,2.995,2.514,3.542,3.584.124.739-.925,2.077-.935,2.913-.174,3.357,2.596,5.552,4.977,6.498,1.993.853,2.877,1.46,1.197,5.9-2.079,5.344-9.011,4-13.101,6.616-4.134,2.542-3.212,5.975,1.063,7.95,8.397,3.939,27.67,4.196,35.555.472,8.594-3.959,1.493-9.007-4.594-9.922-4.014-.848-7.562-2.124-7.954-8.232,5.657-.751,10.011,2.942,14.969,4.702,14.603,5.922,22.96-2.565,36.721,3.322,4.643,2.041,17.52,3.18,20.07,4.778.585.389.68,2.828,1.47,2.396.058.114,1.727-1.388,4.53-8.866,3.347-8.441,3.47-17,.509-25.828,8.976,1.717,17.846-.307,26.776-.833,12.012-.608,25.934-1.303,37.616,3.342,1.555.718,4.449,2.052,5.321,1.447.073-.051.297-.206.25-.835.09-1.988-11.26-4.066-11.583-5.675,4.268-17,12.032-41.746,14.091-57.924-.575-.267-1.717-.511-2.088.167,0,0-14.546,57.98-14.546,57.98-11.446-1.364-22.736-1.585-34.131-.081-3.964.453-8.063.922-11.889.975-3.945.06-7.868-.982-11.797-.328l-.527,1.7-9.871-1.409c-.037-6.501,3.682-12.504,3.623-19.008-.076-5.523-3.621-11.066-4.239-16.527-1.015-9.138,1.996-15.21,5.184-21.639,1.897-3.396,7.408-16.389,6.131-18.301l-1.699.238c-.927,5.657-3.503,10.956-5.996,16.083-16.323,31.825,6.188,24.93-5.845,58.641-25.483-1.474-27.704-22.24-62.754-20.712,2.471-6.236,9.66-8.178,14.022-12.697,10.193-8.363,7.042-32.699-2.095-49.202.321-.192-2.929-.647-9.667-.386-3.509.987-4.109.324-4.011-3.52-.135-3.97-1.328-8.75-4.779-13.111-.722-1.026-4.874-3.413-5.707-4.299-1.454-3.407-1.384-12.805-7.031-10.915-1.617.467-3.595.095-5.3-.182-1.784.057-2.617.689-3.422,1.3-6.293,3.252-19.805,3.182-27.785,4.244-5.654.513-11.316.693-16.645.496-2-12.797-5.163-23.839-9.71-33.707,4.014-1.999,6.34-6.229,5.788-10.655-.428-3.078-2.925-6.057-2.583-9.351.412-4.439,5.325-6.767,5.893-11.117.495-4.682-3.496-8.18-2.68-13.064.44-2.873,2.085-4.969,3.675-6.998,5.489-6.447,4.291-9.956,1.046-17.633-.946-5.586,1.859-10.738,2.656-16.118,1.331-8.583-.313-18.463-4.539-29.285,7.281,3.591,11.614,9.885,11.058,17.159-.264,4.247-2.87,8.874-2.79,13.108.257,7.505,7.349,12.037,6.522,19.892-.697,6.714-6.613,9.906-3.836,17.412,1.154,3.099,5.064,6.658,5.288,9.985-.104,7.943-10.66,12.9-3.821,21.321,1.459,2.27,2.969,4.616,2.205,8.25-.166,1.347-2.885,4.534-1.866,5.488,2.643,1.191,4.417-5.865,4.556-7.335.097-2.818-1.172-4.76-2.399-6.637-5.109-6.757-.737-9.909,2.543-15.987,4.536-11.002-10.113-14.98-2.872-25.307,7.795-12.937-5.113-18.394-3.733-30.246,4.824-13.072,2.402-22.155-10.161-29.899-.466-1.772.216-3.311.148-5.064-.209-7.455-5.904-14.225-13.54-13.583-1.662-5.958-7.488-9.553-13.232-8.102-3.292-7.057-11.265-11.264-19.284-10.201-3.648.516-6.654,3.832-10.439,4.207-6.97.644-10.915-2.91-18.37-.512-9.038,2.739-9.668,12.264-17.005,16.416-7.164,3.72-14.302,1.15-20.853,7.333-6.618,6.169-4.627,14.093-9.885,20.719-2.423,2.968-5.753,4.264-8.973,5.518-13.198,4.755-11.814,10.63-13.75,22.539-4.887,12.368-24.041,7.132-23.324,26.551.943,15.931-16.014,8.676-13.367,27.628.18.247.869.801,1.158.874l1.043-.59c.422-1.151-.337-4.041-.11-5.379.865-8.312,8.191-8.176,11.902-13.809,1.811-2.935,1.816-5.817,1.821-8.605-.795-7.118,3.938-13.393,12.272-16.152,3.112-1.258,6.052-2.446,8.502-5.577,4.75-5.976,1.385-12.998,5.461-19.048,5.212-7.385,13.788-5.907,19.358-12.785,5.489-7,2.988-14.921,10.678-21.067,5.893-4.796,13.2-2.805,19.396-6.195,6.5-3.616,8.095-12.706,15.056-15.689,8.159-3.517,14.234,2.011,22.143-.563,9.681-6.757,19.609-3.772,24.886,5.882-3.157-1.854-6.451.025-9.668.085-4.817-.971-7.759-2.126-11.747,2.086-5.158,5.636-11.798.38-18.018,4.24-7.19,4.01-6.77,12.47-12.979,17.162-5.202,3.742-11.246,2.045-16.019,7.022-2.888,2.999-4.048,6.94-5.169,10.752-4.211,21.704-25.521,7.239-27.006,30.602-1.018,21.742-20.666,9.138-23.298,29.103-.242,2.633-1.608,5.252-2.56,7.646-.214,1.622.967,3.11-.222,4.705-11.258,7.017-22.687,15.121-34.102,25.961-13.802,12.628-50.462,46.173-37.633,72.606,11.547,23.342,44.187,9.905,55.317,5.51-2.232,17.444-3.235,34.739-6.088,52.115-.684,3.891-1.354,7.831-1.573,11.563-.081.988-.191,2.341.337,2.862,1.513.983,1.922-1.01,2.025-2.605,3.535-21.392,4.513-42.69,7.767-64.109-.03-1.326-1.504-1.485-1.368-3.101.102-2.064,4.193-16.123,5.273-18.123.405-.974,6.724-6.852,6.226-3.231-.928,4.667-.738,13.261-.384,17.901.781,10.257,4.032,34.125,17.312,34.211,16.312-3.206,33.15-5.755,49.435-8.221,18.014-2.728,36.642-5.548,54.72-9.276,6.833-1.409,12.615-3.164,18.624-7.148,7.893-5.261,12.818-14.162,21.845-17.896l8.855,67.74c-11.824,9.165-32.23,16.059-46.77,6.791,2.38-9.728,7.567-44.216,6.479-43.006-.111-.176-.574-.297-1.073-.182-.184.042-.791.222-.854.761-1.761,14.225-4.364,32.909-8.908,51.358l.312,1.213c3.49,1.203,1.734-6.743,4.149-7.136,11.552,5.456,26.33,4.229,39.612-2.807,2.072.016.461,9.549,3.846,6.363l-1.12-7.249c2.056-2.298,6.883-3.359,6.595-6.951,0,0-8.991-67.043-8.991-67.043-.185-.788.139-1.225.55-1.671,1.548-1.684,13.541-4.605,18.625-5.783,6.053-1.413,15.334-3.831,20.182-4.025,3.056.125,6.436,2.04,9.307-.084,2.112-1.537,4.953-.34,6.832-2.513,2.347,3.955,3.285,8.784,2.884,14.26h-15.255ZM333.682,357.652h0ZM348.9,397.843c-4.105.093-22.216-1.25-20.188-6.324,6.858-3.913,16.621-2.191,16.417-13.36l5.881.533c.297,9.965,6.135,9.179,12.542,11.523h0l-.138.375.201-.353c12.102,5.03-10.525,8.12-14.713,7.606ZM329.301,392.107c-.181,1.429,1.557,1.867,4.307,2.888,8.77,2.491,25.154,3.73,32.685-1.767.255-1.081-2.045-1.903-3.019-2.264-6.409-2.434-12.313-1.421-13.017-11.539l-4.356-.395c-.577,11.06-9.807,9.284-16.6,13.076ZM424.881,389.374c-2.936-.028-10.175-1.784-13.848-2.647-4.115-.954-12.236-4.332-15.767-4.492-5.694-.04-10.629,2.544-16.944,1.844-8.044-.729-12.662-4.84-19.787-6.726-5.72-1.29-16.672-.472-19.747-5.208-.848-1.15-1.123-3.821.746-4.308.341-.098,1.62.156,5.841,1.081,4.663,1.123,9.091,1.764,12.399,1.327l-.013-1.605-.465-.467c-4.311-.121-24.768-1.21-21.831-8.209.567-.947,1.734-1.56,3.121-1.64l18.979,2.374c4.068-2.685-6.813-2.986-9.314-3.231-5.088-.369-10.349-.751-13.159-2.645-2.733-1.692-2.201-5.59,1.096-5.944,4.599-.427,12.556-.116,18.247,1.082,1.574.368,3.955.927,4.556.641.796-.393.814-1.519.115-1.898-1.429-.755-7.88-1.575-10.604-1.833-5.46-.361-17.165.945-14.181-4.812,5.194-5.108,31.404-2.909,37.602-1.303,20.419,6.642,22.426,17.69,48.275,20.055,2.838.429,5.798.815,8.735,1.433,1.074.55,1.443,2.442,1.713,3.824,1.332,5.887.736,12.188-1.781,18.417h0c-.762,1.88-1.765,4.963-3.984,4.89ZM394.713,381.423c4.019-.027,11.977,3.478,16.503,4.526,3.471.819,11.177,2.69,13.842,2.622,1.364-.053,2.312-2.469,2.878-3.912,2.577-6.161,3.279-12.569,1.925-18.438-.207-1.06-.55-2.818-1.248-3.24-2.877-.555-5.75-.973-8.53-1.377-7.889-1.147-15.341-2.23-22.686-6.212-8.76-4.752-15.732-11.295-25.675-13.86-6.548-1.641-31.158-3.602-36.751.992-2.233,4.637,10.1,3.106,13.606,3.551.089.009,8.942.885,10.903,1.922,1.308.643,1.172,2.771-.148,3.329-.795.628-5.752-.847-7.584-1.097-4.116-.428-11.597-1.067-15.457-.557-1.118.148-1.913.775-2.125,1.677-.076,7.059,19.402,4.238,24.3,6.808,1.298.802.694,3.468-.962,3.338,0,0-18.946-2.374-18.946-2.374-1.033.066-1.983.545-2.408,1.254-2.247,5.637,17.538,7.029,21.457,6.978l.949.954.02,2.321c-4.402,1.986-14.096-1.493-18.86-2.014-1.181.437-.875,2.117-.264,3.086,2.066,3.09,8.335,3.65,13.372,4.101,10.018.089,15.559,6.457,25.572,7.483,5.974.654,10.814-1.714,16.316-1.86ZM343.774,337.442c-1.884-8.387-11.741-9.653-16.793-15.712h0c-10.406-12.034-2.525-31.264,2.468-44.088l33.725-.855c2.773.852,7.654,20.748,8.072,23.278,4.186,26.781-15.761,24.026-20.248,36.649l-7.224.728ZM327.584,321.205c5.051,5.935,14.512,7.231,16.796,15.373l6.006-.605c5.281-12.672,24.081-9.875,20.068-35.786-.626-4.092-5.458-21.617-7.417-22.595,0,0-33.037.838-33.037.838-4.875,12.482-12.391,31.297-2.417,42.776h0ZM139.167,315.342c-15.485.01-17.578-44.624-13.413-54.399,1.276-2.607,2.926-3.545,5.525-4.364,1.172-.37,9.628-2.146,10.764-1.746.539.188,6.527,4.593,6.969,5.006,5.312,4.438,2.904,16.427,7.294,21.003,2.46,2.254,6.021,1.006,7.646-1.692,1.513,5.074,8.288,6.973,10.662,1.585,4.44,3.765,10.304,2.106,10.363-4.005.821-.134,1.592.265,2.092.706,1.682,1.343,4.368.872,5.664-.394,3.191-2.964,3.275-10.962,2.553-15.615-.942-5.97-3.701-10.945-6.356-15.308,14.851-1.503,29.543-5.48,44.375-7.089,12.929-1.393,17.996,1.043,25.009,4.414,20.389,12.054,43.55,5.923,65.773,3.515l1.997,14.433c-19.993,3.698-42.506,5.659-56.179,21.677-2.464,2.508-5.011,5.102-7.936,7.213-7.581,5.473-13.687,6.662-22.138,8.308-33.668,6.406-66.959,10.811-100.666,16.754ZM141.498,255.558c-4.389.756-12.908.785-15.024,5.736-4.423,9.045-.195,42.838,6.284,50.221,1.967,2.241,4.685,3.317,7.45,2.962,15.617-2.924,31.623-5.42,47.101-7.834,17.214-2.684,35.013-5.46,52.371-8.839,9.187-1.789,14.73-3.051,21.824-8.171,2.869-2.071,5.393-4.641,7.833-7.125,13.63-15.953,35.931-18.163,55.853-21.757l-1.789-12.929c-22.101,2.555-45.124,8.319-65.43-3.656-6.895-3.312-11.875-5.704-24.577-4.338-14.414,1.566-28.691,5.368-43.127,6.957,2.307,3.867,4.943,8.92,5.812,14.522,1.309,6.225-.026,22.837-10.365,16.247-.528,5.865-6.188,7.673-10.842,4.359-2.701,4.621-8.949,3.3-11.106-1.21-2.066,2.375-5.602,2.916-7.984.744-4.656-4.489-2.161-16.559-7.314-21.02-.676-.522-6.346-4.903-6.968-4.866ZM77.785,295.992c-7.284,0-14.085-2.268-19.328-8.971-18.392-23.518,21.422-60.549,34.505-72.718,23.018-21.41,50.801-42.115,82.347-33.351l3.735,1.382c.064-.004.128-.006.192-.006,4.327,0,10.047,9.559,14.249,16.58,4.347,6.934,8.599,13.927,19.995,17.976,14.55,3.888,24.057-8.601,24.403-22.937,29.039,9.996,36.63,26.209,40.509,54.379-5.652-.609-10.687-3.125-15.498-5.564-21.494-13.449-50.147-.692-73.981,1.298-1.423-.077-3.101-1.857-4.724-3.578-8.728-8.715-25.18-13.689-36.297-12.918-1.753-.012-13.655,3.497-14.736,3.273-.705-.089-.663-1.182-1.133-1.399-3.575-.948-44.769,11.115-48.267,15.079-.871,3.809,6.513-.655,9.151-1.666,11.848-5.509,24.248-7.956,36.613-11.176-10.889,17.306-16.18,37.485-21.417,56.968-9.63,3.126-20.142,7.316-30.32,7.348ZM160.343,179.687c-25.148,0-47.651,17.356-66.836,35.201-12.95,12.045-52.36,48.7-34.42,71.639,12.131,15.37,32.608,6.623,48.357,1.49,5.052-18.78,10.175-38.195,20.375-55.097-9.736,2.406-19.798,4.899-29.362,8.361-3.224,1.161-10.309,4.989-13.05,5.478-1.828.258-2.988-.434-2.41-2.492.992-3.015,30.524-11.673,30.82-11.754,0,0,.608-.167.608-.167,11.317-2.757,18.221-5.541,18.914-2.279,2.27-.208,12.372-3.232,14.484-3.302,11.347-.784,28.074,4.281,36.949,13.165,1.373,1.457,3.082,3.269,4.135,3.328,23.933-2.066,52.686-14.764,74.348-1.212,4.46,2.252,9.067,4.579,14.198,5.346-3.612-26.337-11.583-43.112-38.829-52.241-2.994,29.616-29.116,28.564-42.456,9.509-4.109-5.782-12.068-22.019-17.232-21.515-5.827-2.445-12.603-3.471-18.594-3.459ZM169.965,281.978c-6.454-1.314-3.91-15.637-6.387-20.885-1.821-5.38-2.895-6.381-4.035-5.489-.65,1.258,1.55,4.921,2.072,6.564.622,2.743,4.022,17.476-2.212,17.692-6.878-2.439-1.218-18.057-11.381-23.212-1.557-1.039-3.168-2.112-4.805-4.288-.631-.772-1.647-3.407-2.256-4.098-2.682-.816-1.171,3.701-.229,4.649-6.913.552-13.849.831-17.323,7.528-.107.004-4.951,3.825-5.595,2.628,3.237-9.309,7.164-19.957,13.299-29.247,9.198-2.789,17.9-5.495,27.694-3.395,18.727,4.01,36.654,17.75,34.493,39.411-.699,8.341-6.233,8.353-7.346-.027-.666-4.143-.535-7.484-1.911-11.698-.981-3.004-3.578-8.266-4.896-7.985-1.421,1.434.402,3.347,1.44,5.954,3.345,6.13,3.822,13.037,2.662,19.336-.452,2.175-.828,4.951-3.751,5.362-4.934-.514-3.206-8.456-3.585-12.294-.513-3.148-2.403-14.419-5.733-15.586-1.677,1.273,1.784,7.111,2.193,9.386,1.745,6.445,3.186,18.365-2.41,19.695ZM160.189,254.502c6.216,2.743,5.048,17.229,6.784,23.089.925,3.724,3.975,5.198,5.27,1.08,1.359-4.21,1.149-9.503-.641-16.181-.713-2.337-3.271-8.177-2.638-9.245,3.656-5.96,7.75,13.254,7.747,15.165.182,3.086-.559,8.962,1.372,11.015,2.44,1.88,4.086-1.47,4.299-3.762,3.619-15.542-7.673-23.599-3.607-26.25,2.812-1.09,5.99,8.373,6.028,8.449.939,2.879,1.19,5.312,1.456,7.888,3.547,31.482,22.317-24.338-27.621-34.543-9.496-2.034-18.009.561-27.017,3.293-5.769,8.807-9.58,18.894-12.687,27.777,2.338-1.39,4.023-2.022,4.972-3.87,2.773-5.226,10.078-5.688,15.438-6.175-.905-1.849-1.377-5.704,1.918-4.707.565-.019,2.007,3.649,2.592,4.353,6.934,7.453,10.547,5.105,12.154,18.699.422,2.949,1.079,10.231,4.853,8.024,2.427-2.447,1.089-12.47-.016-16.208-.661-2.283-4.291-7.328-.658-7.892ZM330.612,262.474c-.803,0-1.564-.295-2.133-1.333-.921-1.68-2.201-9.483-2.314-11.585-.64-7.659,4.525-2.575,8.574-4.951,2.147.11,2.929,3.583,3.424,5.418.025.096,2.452,9.667.065,10.449l-.249-.76c1.371-.435-.33-13.389-3.077-14.283-3.741,2.356-8.666-2.578-7.938,4.083.118,2.196,1.423,9.796,2.217,11.244.793,1.734,2.908.455,4.462.385l.048.799c-1.009.064-2.053.533-3.078.533ZM218.862,215.312c-9.327.199-20.818-9.625-23.549-19.063-.594-8.265,5.793-6.72,9.281-11.393,3.653-4.965-.416-10.607,2.397-15.501,2.657-4.154,8.916-3.804,11.255-8.531,2.069-4.038.703-7.678,1.185-11.847.774-7.442,8.747-7.142,11.961-12.325,1.58-2.701,1.647-5.681,1.711-8.562-.189-8.592,2.806-10.915,11.03-14.337,6.275-4.087,3.105-12.437,8.292-16.709,2.402-1.718,5.239-1.464,7.164-3.745,3.435-3.944,6.847-.878,11.087.116-.103-.689.181-1.261.826-1.78-.546-.358-1.292-.678-2.136-.957-.068.29-.221.557-.384.804-1.532.026-3.102-.794-4.913-1.93-4.681-1.11-6.164,3.612-10.335,4.306-10.416,2.79-3.165,16.704-14.776,19.957-14.466,5.007-2.014,20.773-14.766,25.693-10.503,4.25-4.425,13.338-8.166,20.674-1.888,3.092-6.788,3.548-9.387,5.887-6.078,5.236-.01,12.38-4.198,17.896-1.701,2.098-4.091,1.924-5.972,3.56,0,0-4.12,5.967-4.12,5.967-1.952-5.203-6.071-9.905-11.479-13.319,3.058-2.385,7.058-2.997,9.262-6.438,4.045-8.163-2.845-15.02,9.283-20.055,14.06-5.425,4.002-17.468,13.415-24.48,2.941-2.131,6.527-2.163,8.986-5.042,4.859-5.94.903-15.868,9.481-19.562,2.66-1.165,4.466-.733,6.946-2.812,7.289-8.038-.078-9.831,15.109-17.142,4.75-1.847,9.844,4.971,15.242,4.979-2.458-6.479-12.016-10.265-17.209-6.145-5.762,3.163-9.576,4.826-10.239,8.495-2.918,8.13-3.655,8.496-11.547,10.859-9.426,4.074-4.218,16.416-11.588,21.394-2.506,1.501-5.511,1.975-7.805,3.911-6.359,5.212-2.52,13.452-6.371,19.433-3.629,5.127-9.788,4.242-13.031,10.055-2.607,4.575-1.209,6.374-1.452,10.686-.374,7.572-7.238,6.888-11.295,11.058-4.889-1.779-10.087-2.417-16.214-2.842-.542-3.032,1.735-4.709,3.795-6.013,9.345-5.717-2.193-16.167,13.287-21.21,15.326-4.367,6.536-19.152,17.291-26.805,5.43-3.633,9.897-2.093,14.572-7.923,5.006-6.444,2.725-15.136,11.87-19.081,2.473-1.074,4.886-.789,7.331-1.67,5-1.856,5.479-7.731,11.026-9.034.629-2.911-2.727-1.599-4.653-.306-2.232,1.531-3.81,5.363-6.07,6.721-3.962,2.153-7.88.97-11.857,4.13-7.115,5.353-4.806,12.59-10.104,18.59-4.863,5.079-11.585,3.533-16.302,9.171-5.187,6.002-3.088,12.021-6.406,18.484-3.453,6.384-11.01,4.885-15.266,10.33-3.288,4.108-2.078,6.149-2.561,10.361-.618,7.238-6.862,6.032-8.05,12.39-.36,1.133-.493,1.514-.696,1.688-.996.932-4.322.53-5.935.731-7.85,1.164-15.939,3.741-24.297,7.689-.614-3.193,1.239-5.832,2.081-8.708l.385.107-.385-.107c1.381-18.398,16.827-9.739,22.447-23.852,2.002-5.797-.219-10.469,3.896-16.078,2.846-3.877,6.423-4.883,9.882-5.856,19.696-3.818,8.417-26.131,27.711-29.344,14.488-2.033,10.642-15.959,21.566-20.679,4.568-1.71,8.265.588,12.743-.962,3.025-1.108,5.503-5.294,8.901-5.418,1.314-.049,2.499.788,3.788.921,4.316.28,9.21-2.165,12.608,2.112.639.693,1.358,1.474,1.859,1.555,0,0,.937-.339.937-.339.442-1.837-1.639-2.963-2.062-4.657,4.984-1.201,10.092,2.316,10.626,7.667.617,1.327,1.341,1.16,2.439.905,8.05-1.84,12.015,8.984,10.467,15-1.83-.789-3.767-3.775-5.581-4.654.186.852-.366,1.642-1.174,1.816,5.86,3.9,10.527,16.747,11.105,23.217,0,0,0,7.189,0,7.189l-5.784.797-.239.862c1.177,2.098,4.141-1.037,6.025.698-.935,3.645-4.121,16.489-5.289,19.812-.908.26-1.517.153-1.708-.732-.205-.321-1.835-4.171-1.835-4.566v-6.89c-2.522-1.982-2.311,2.39-1.986,6.321.365,5.84,11.111,15.952-1.161,15.352-.924.004-2.148-.003-2.474.219l-.114,1.353,4.287.528c-4.66,18.471-17.969,34.416-36.713,19.09-2.286-1.568-3.557-3.399-5.557-2.88-.13,2.167,4.45,5.098,5.686,5.604l.133.995c-3.317,5.537-6.959,11.278-7.523,17.628,2.599,2.329,2.48-3.711,3.391-5.156.715-1.659,2.709-1.779,3.292-.044.791,2.272-1.466,9.886-2.6,12.164-3.071,6.135-7.894,9.53-14.021,9.555ZM263.764,92.085c-3.387.116-4.638,3.902-7.96,4.291-8.697,2.103-3.853,13.463-11.213,18.033-1.692,1.196-3.787,1.565-5.53,2.547-8.452,4.877-2.858,13.214-6.98,20.102-1.31,2.238-3.513,3.482-5.643,4.685-13.169,5.749.925,18.873-13.848,24.529-12.571,4.496,1.206,16.705-11.952,22.591-9.915,4.162-1.43,14.606,4.333,19.781,5.34,4.615,11.425,6.654,16.693,5.596,8.219-1.168,13.623-12.666,13.063-20.383-1.174-2.113-2.284.896-2.439,2.302-.484,2.887-1.775,5.534-4.318,2.963.471-6.634,4.258-12.679,7.523-18.127l-.035-.257c-1.395-.668-5.093-3.349-5.703-5.344-.581-1.72,1.251-1.93,2.341-1.627,1.024.367,2.692,1.671,4.458,3.052,17.792,14.608,30.476-.031,35.189-17.781l-4.118-.507.199-2.367c.461-.741,1.585-.705,3.252-.705,7.073.454,5.436-3.174,2.96-7.588-1.123-2.075-2.285-4.22-2.595-6.871-.414-2.686-.654-10.467,3.581-6.783v7.259c.161.683,1.644,3.974,1.907,4.625.041,0,.106-.004.21-.02,1.043-2.937,4.153-15.479,4.988-18.726-2.012-.696-4.579,2.049-5.952-1.008l.461-1.667,5.615-.773v-6.492c0-4.014-4.679-16.252-7.473-19.546-.978-1.117-3.024-2.358-3.772-3.611-2.139-.042-5.156-2.085-7.243-2.171ZM182.296,180.158c4.651,3.155,8.247,7.264,10.227,11.68,0,0,3.352-4.837,3.352-4.837,1.927-1.793,4.264-1.55,5.947-3.54,3.857-5.585-2.068-12.555,4.281-17.983,2.48-2.335,7.454-2.855,9.236-5.707,3.606-7.569-2.547-16.246,8.493-20.976,12.349-4.862-.378-20.169,14.802-25.709,13.038-4.893,1.529-16.815,17.704-21.161,2.036-1.26,3.437-3.599,6.29-3.303-3.074-2.027-6.488-4.359-8.956-3.247-2.553,1.121-8.038,4.396-9.339,6.388-3.836,8.158-2.466,11.072-12.72,13.568-8.149,3.524-4.204,13.59-9.19,19.348-2.591,3.04-6.113,3.048-9.127,5.172-5.965,4.235-3.38,9.97-5.127,15.747-2.52,9.179-9.865,7.189-14.38,13.162-1.555,2.328-1.501,4.811-1.444,7.44.837,7.997-3.588,10.819-10.049,13.958ZM220.411,80.379c-10.525-.253-10.75,12.26-17.106,17.749-10.529,6.967-17.236,1-21.434,17.559-4.581,22.678-25.776,8.363-26.7,30.195-.122,2.107-.248,4.284-1.077,6.594-3.698,11.491-15.703,7.769-20.688,16.661-1.117,2.346-1.071,4.717-1.74,7.136-.67,2.445-2.239,4.75-2.167,7.292,8.918-3.931,16.811-6.753,25.412-7.358,1.3-.005,3.081-.012,3.614-.469,2.172-9.793,9.03-5.591,8.616-16.656-.718-5.68,4.829-11.092,10.318-12.534,2.99-1.149,5.815-2.234,7.452-5.344,4.204-10.489,1.172-19.765,15.468-23.849,13.574-2.985,8.198-15.345,17.566-22.658,4.12-3.263,7.953-2.111,11.938-4.184,2.159-1.372,3.758-5.19,6.015-6.686,2.221-1.764,7.17-2.799,5.777,1.634-5.696,1.033-6.132,7.247-11.415,9.112-2.467.904-4.887.622-7.29,1.654-8.775,3.746-6.513,12.554-11.562,18.848-4.768,5.993-9.254,4.489-14.747,8.085-10.485,7.635-1.534,22.152-17.445,26.885-14.857,4.62-3.348,15.171-13.14,21.136-1.844,1.213-3.591,2.361-3.503,4.594,5.791.424,10.636,1.056,15.284,2.673,3.883-3.781,10.381-3.317,10.695-10.178.222-4.408-1.166-6.224,1.554-11.042,3.217-5.951,9.454-5.156,13.067-10.113,3.696-6.077-.074-14.288,6.516-19.592,2.339-1.999,5.394-2.499,7.906-3.985,7.015-5.17,1.904-17.235,11.664-21.433,7.847-2.419,8.25-2.46,11.134-10.41.721-3.835,4.536-5.63,10.579-8.906,2.053-1.234,3.293-1.974,7.321-1.816,3.823.306,10.369,4.508,11.14,8.9,1.301.421,2.424.937,3.065,1.527,1.86.112,4.01,3.005,5.59,4.319.76-6.166-2.738-14.255-9.674-12.906-1.093.254-2.454.568-3.344-1.348-.473-4.579-4.4-7.974-8.737-7.367.867,1.406,2.356,2.607,1.539,4.639l-1.46.528c-1.386.051-2.84-2.48-4.027-3.191-3.595-2.098-6.893-.078-10.638-.488-4.029-1.302-5.092-1.279-8.476,1.827-3.452,3.869-8.42,3.327-12.86,2.966ZM272.156,92.203c-.539.2-.824.784-.648,1.26.639-.054,1.16-.54.648-1.26ZM266.254,89.895c.824.421,1.591.709,2.272.772.03-.073.054-.147.071-.223-.755-.215-1.558-.399-2.344-.55ZM270.068,212.999l-12.827-12.946c10.318-12.304-2.392-11.398,8.268-22.321,4.846-3.921,7.508-14.447,9.887-19.669,1.253-1.15,2.828-.958,3.614-3.022,1.266-3.257-2.822-5.843,1.269-8.331.687,2.752,2.802,5.508,2.732,8.413h0c-.074,2.866-1.96,5.353-3.785,7.757-10.189,11.331,4.061,16.731-4.079,25.648-8.421,7.621,6.116,18.217-5.079,24.472ZM258.232,199.917l11.965,12.076c7.993-4.888-.111-12.159,1.506-18.87,1.997-6.71,8.013-7.219,4.063-15.777-6.125-14.777,12.35-15.038,4.093-29.286-2.008,2.22,1.336,4.356-.107,7.274-.9,2.297-2.446,2.218-3.779,3.28-1.013,2.094-4.166,11.62-5.17,13.323-2.386,4.476-4.964,6.166-7.664,9.874-4.481,7.538,3.819,8.073-4.909,18.105ZM255.546,199.366l-21.638-9.583,4.487-7.494c6.553,2.849,13.679,5.321,20.194,1.655-.698,2.727,1.171,5.253.823,8.025h0c-.361,2.803-3.579,4.638-3.866,7.397ZM235.059,189.418l19.919,8.822c.679-2.284,3.302-4.045,3.641-6.378.284-2.201-1.041-4.319-.985-6.563-6.292,2.8-12.777.595-18.911-2.001l-3.664,6.12Z"/><path d="M277.157,137.912c1.341.951,3.545,1.53,5.455,1.382-.323-.826-.375-1.739-.178-2.601-2.433.265-4.677-1.61-5.755-1.337-1.81.459-.412,1.925.478,2.556Z"/><path d="M282.003,139.716c-1.815,0-3.787-.564-5.077-1.479h0c-.788-.427-2.774-2.683-.346-3.27,1.903-.126,4.157,1.877,6.369,1.266-.353,1.14-.284,2.363.232,3.417-.362.028-.816.07-1.179.066ZM277.389,137.585c1.161.823,3,1.34,4.681,1.33-.151-.581-.19-1.188-.116-1.798-1.846.11-3.674-1.299-5.177-1.375-1.168.244-.308,1.138.612,1.842h0Z"/><path d="M552.763,203.58c1.325,6.728-5.757,12.938-12.21,13.622l2.606,1.872c.919,1.924-.574,3.117-1.911,4.244-4.629,3.905-10.581,3.77-16.284,2.848-.304.225,4.494,3.258-2.154,5.157-7.135,2.038-16.197-.306-19.026-7.69l1.965-1.203c3.801,5.467,10.471,8.634,16.844,5.382-1.007-1.064-6.193-6.873-3.474-7.75,1.286-.415,4.086,2.071,5.715,2.689,4.951,1.878,10.611,1.397,14.763-2.016-1.325-1.01-5.981-4.012-6.034-5.574l.443-1.203c1.849-.294,3.471.498,5.366.438,4.323-.135,9.578-3.613,10.153-8.049-23.586-2.169-15.784-43.129-25.103-59.144-7.613-16.219-31.286-35.059-49.8-27.2-15.253-8.062-44.279,13.441-40.292,31.32,0,0,1.827,5.953,1.827,5.953,1.964-9.189,6.681-20.268,14.873-25.485,1.345-.857,10.784-5.455,9.408-1.28-.136.413-8.261,4.113-9.407,5.055-9.596,8.366-12.769,22.373-14.162,34.449l4.023-6.87,1.818.337c1.11,1.745-2.217,6.983-3.471,8.427-2.429,2.797-7.273,4.84-9.018,7.033-3.901,4.901,6.71,5.092,7.305,6.947.603,1.877-1.004,1.746-1.253,2.151-.599.972,1.064,10.437,1.456,12.259,2.457,11.417,6.482,17.289,19.244,14.801,1.645-.321,8.384-3.188,8.991-2.345,2.498,3.472-6.315,3.827-6.549,5.127,2.037,7.863,2.762,16.316,1.061,24.306-4.691,3.702-1.891-3.287-2.59-4.233-3.555.647-4.375,3.619-5.314,6.718-3.324,10.975-1.324,28.827,13.095,29.626,16.281.903,34.098-19.966,41.818-32.565-14.873-4.735-22.555-16.576-19.34-32.228-8.056-3.354-5.317-15.371,3.462-13.955,1.315.858-.056,1.996,1.889,1.799,5.714-.58,9.178-11.59,4.049-14.808-3.851-2.416-5.08,1.096-7.514,1.904-2.997.995-1.984-2.863-.03-3.814-13.264-13.788-29.685-30.791-30.02-51.177.357-1.083,1.849-.766,2.764-.772.413,16.996,11.847,30.501,22.297,42.757,1.181,1.287,6.019,6.494,7.066,7.096,1.618.93,3.75.14,5.803.809,6.397,2.086,5.898,12.313,2.488,16.856-.734.978-3.578,2.963-3.721,3.387-.364,1.076.475,2.399.401,3.634-.213,3.531-3.109,5.639-6.138,6.749-4.284,25.895,16.871,26.955,33.982,37.224,36.691,23.377,28.266,73.124,18.896,108.907-.843,3.219-7.244,26.207-8.451,26.943-1.185.723-2.626.074-2.368-1.378,14.115-44.556,35.86-117.321-23.113-138.498-5.864,9.923-15.334,21.241-25.012,27.637-27.076,17.893-43.835-4.571-34.076-30.964-7.835,2.811-15.445,4.529-22.147,9.72-24.48,22.4-25.659,67.851-43.477,95.027l-1.824-.326c-.258-.919,4.248-10.045,4.484-10.923,1.914-7.149,6.117-15.683,8.658-22.958,6.217-17.793,13.725-47.941,27.381-60.876,9.333-8.839,22.717-10.883,34.516-14.672.127-5.617-.449-11.262-1.936-16.688-20.673,4.246-21.831-16.466-23.595-30.914-.259-.291-1.635-.881-1.883-.701-1.888,6.549-6.569,12.357-13.708,13.211.236,2.095,3.741,3.513,5.549,3.66,2.084.17,4.671-1.569,2.807,2.804l-5.518,3.669c3.018,3.349,7.488,1.582,11.353,1.875,1.732,1.143-2.414,5.058-2.384,6.647,3.156,4.186,8.948,2.625,13.394,1.666,1.994.666-1.106,5.613,5.417,3.886,1.489-.394,4.209-2.825,5.271-2.3,4.033,1.994-5.271,6.158-8.131,5.838-3.546-.397-4.137-3.639-4.429-3.721-1.071-.3-4.466.675-6.51.451-2.267-.248-8.45-2.861-8.688-5.443l1.787-3.936c-3.082.214-5.717-.031-8.261-1.892-1.207-.883-4.031-3.61-2.486-5.075l3.664-1.994c-2.477.13-9.203-6.989-6.639-8.764,6.405.618,13.09-4.444,14.458-10.589.728-3.271-4.004-4.641-.279-9.216,1.168-1.435,4.932-3.36,5.442-4.472.372-.812,1.635-8.074,1.675-9.215.084-2.401-2.632-7.73-3.19-10.954-2.123-12.263,4.177-22.436,14.082-29.083,7.672-5.148,19.733-12.125,28.536-6.586,20.742-7.834,46.19,12.233,53.84,30.851,8.129,15.017,1.173,57.154,24.736,55.729ZM489.955,198.385c-.881-.525-2.317.903-2.777,1.59-4.654,6.952,9.091,10.393,6.589.26-2.939.946-3.267-1.525-3.812-1.85Z"/><path d="M534.356,383.742c-1.139.008-1.991-.955-1.748-2.145,13.9-40.162,34.882-119.772-22.499-138.013-5.253,8.827-14.538,20.635-25.011,27.556-25.603,17.704-44.72-3.624-34.959-30.639-7.428,2.609-14.851,4.411-21.239,9.378-23.161,19.69-26.401,70.111-43.639,95.132l-2.226-.398c-.367-1.007.73-3.042,3.126-8.45,4.481-12.437,9.669-24.033,13.599-36.962,5.639-17.551,12.658-39.393,23.84-49.984,9.376-8.852,22.522-10.902,34.397-14.675.103-5.622-.513-10.979-1.832-15.934-16.658,3.683-22.094-11.53-22.945-25.458-.126-1.955-.336-5.227-.661-5.653-.143-.154-.892-.496-1.278-.58-2.204,7.34-7.224,12.221-13.524,13.164.576,1.613,3.505,2.794,5.093,2.923,3-.267,4.956-.71,3.097,3.47l-5.218,3.468c3.5,4.359,15.907-2.715,9.984,6.011-.542.839-1.151,1.782-1.229,2.318,3.059,3.853,8.662,2.307,13.009,1.377,2.862,1.426-.925,5.522,5.292,3.913,1.442-.379,4.262-2.958,5.551-2.271,4.747,2.976-6.043,6.999-8.353,6.594-3.194-.422-4.026-2.584-4.604-3.756-1.63-.105-4.626.729-6.335.486-2.209-.242-8.771-2.851-9.043-5.804l-.01-.105,1.557-3.429c-3.933.434-9.812-1.55-10.956-6.233-.036-.593.183-1.159.655-1.523,0,0,2.737-1.489,2.737-1.489-2.359-.981-8.724-6.729-5.629-9.33,6.171.671,12.812-4.15,14.174-10.264.27-3.702-3.941-4.854-.198-9.381.922-1.259,4.612-3.175,5.388-4.386.342-.747,1.6-7.939,1.639-9.063-.013-2.624-2.754-7.978-3.184-10.872-1.963-11.342,3.232-22.088,14.253-29.483,12.736-8.039,20.248-11.219,28.759-6.655,21.254-7.953,46.679,12.825,54.211,31.101,7.913,14.827,1.675,57.944,24.688,55.45,1.666,6.709-5.191,13.215-11.497,14.303l1.931,1.448c1.03,2.158-.604,3.535-1.918,4.641-4.623,3.976-10.484,3.933-15.716,3.169,5.426,6.898-19.009,9.298-22.594-3.247l2.571-1.573c3.365,5.04,9.628,8.742,16.07,5.795-1.178-1.301-4.426-5.103-3.941-6.996.816-2.07,3.031-.707,4.921.522,4.993,3.311,11.709,2.824,16.025-.467-2.49-1.754-5.811-4.165-5.774-5.572,0,0-.002-.079-.002-.079l.551-1.496c1.991-.402,3.7.445,5.647.397,4.013-.126,8.868-3.224,9.696-7.262-23.179-2.442-15.772-42.916-24.996-59.366-7.421-15.674-29.301-33.385-46.784-27.743-2.29.934-3.141,1.071-5.369-.081-9.488-3.863-22.202,3.694-30.951,12.992-7.019,8.064-8.094,15.252-4.854,23.195,1.569-7.902,9.686-27.522,24.095-27.175.903-.523,1.988-.222,2.944-.276.617,18.15,11.543,30.1,22.197,42.888,2.352,2.563,6.149,6.547,6.971,7.019,1.674.87,3.868.104,5.728.776,6.716,2.249,6.26,12.73,2.684,17.477-.553.832-2.973,2.506-3.676,3.307-.272.997.552,2.389.435,3.498-.186,3.075-2.375,5.56-6.174,7.016-6.439,42.723,54.998,15.333,60.739,86.708,1.385,20.978-3.809,43.852-7.836,59.232-.068.261-7.106,26.253-8.63,27.184-.388.237-.814.355-1.223.355ZM509.67,242.756c58.694,17.266,37.88,98.569,23.712,139.032,1.941,7.764,8.759-22.311,10.054-25.787,9.441-31.416,16.782-88.469-18.727-108.468-16.859-10.166-38.55-11.29-34.128-37.855,2.236-.803,5.827-2.581,6.102-6.479.058-1.208-.795-2.529-.38-3.738.167-.601,3.341-2.767,3.78-3.499,3.057-4.569,4.219-13.554-2.292-16.236-1.929-.66-4.062.18-5.878-.843-1.193-.685-6.555-6.51-7.162-7.172-10.655-12.792-21.389-24.523-22.395-42.637-.55-.03-1.177-.057-1.521.064.172.352.318,1.456-.392,1.89,1.162,19.751,17.291,36.262,30.23,49.725-1.662.354-3.434,4.172-.766,3.316,2.713-1.135,3.839-4.324,7.852-1.864,5.292,3.184,2.09,14.865-4.221,15.545-1.236.126-1.536-.268-1.639-.989-.043-.302-.081-.566-.441-.827-8.792-1.021-10.577,10.35-2.853,13.331-3.359,15.342,4.13,27.625,19.49,32.245-8.09,13.605-35.868,46.92-53.469,27.183-4.673-6.678-4.538-17.192-2.435-24.134.916-3.137,1.954-6.489,5.871-7.041,1.355,1.059-1.962,7.719,2.055,4.445,1.57-7.303,1.071-15.472-1.093-24.151.5-1.93,8.683-1.683,6.618-4.823-.499-.23-3.856.939-5.658,1.569-13.281,4.77-20.63-1.729-22.643-14.175.246-.034-3.042-12.643-.784-12.975.512-.213.916-.382.591-1.395-.141-.439-1.665-.926-2.889-1.317-12.674-3.66.716-8.841,4.68-13.048,1.409-1.623,4.153-6.236,3.509-7.807l-1.351-.251-4.813,8.221c1.77-13.614,3.3-25.877,14.495-36.554,1.094-.873,6.902-3.567,8.842-4.663.015-.454-.117-.946.029-1.382-15.031.733-22.446,22.433-23.42,29.655,0,0-2.278-7.425-2.278-7.425-4.438-16.964,24.094-38.807,38.29-32.624,2.056,1.067,2.645.902,4.759.06,17.867-5.834,40.229,12.191,47.791,28.159,9.215,16.051,1.885,57.846,25.192,58.917-.356,4.872-5.958,8.693-10.595,8.844-1.788.071-3.35-.652-5.086-.474l-.329.893c.481,1.651,4.598,4.172,6.272,5.508-4.617,4.092-12.156,4.86-17.757,1.166-7.174-4.651-2.289,3.26.766,6.036-6.752,3.814-13.836.328-17.611-4.959l-1.359.832c2.886,6.947,11.567,9.098,18.419,7.14,3.041-.794,4.207-2.19,2.257-4.072-.349-.375-.457-.526-.387-.892l.292-.23c5.324.873,11.394,1.258,16.128-2.731,1.458-1.216,2.516-2.219,1.849-3.675l-3.373-2.422c6.476-.511,13.627-5.342,12.964-12.908-23.156,1.611-16.916-41.228-24.776-56.005-7.158-17.373-30.843-37.226-51.252-31.269-2.21.819-2.283.952-4.131-.143-7.167-3.355-14.807-.039-26.4,7.328-10.747,7.212-15.817,17.666-13.911,28.683.453,2.935,3.256,8.386,3.196,11.036-.04,1.117-1.293,8.455-1.711,9.368-2.413,3.028-9.309,5.098-5.986,10.074,3.833,7.082-7.263,15.389-13.875,14.449-1.412,2.893,5.036,8.085,6.495,7.952,0,0,1.762-.092,1.762-.092l-5.165,2.81c-1.052,1.462,1.282,3.425,2.482,4.428,2.608,1.941,5.473,2.04,8.667,1.769l-2.017,4.444c.369,2.272,6.176,4.748,8.321,4.983,1.686.253,5.055-.748,6.575-.439,1.149,1.127,1.158,3.314,4.366,3.708,2.244.255,8.139-2.285,8.654-4.041.047-.161.172-.588-.745-1.041-.441-.219-1.75.577-2.706,1.159-1.77,1.332-5.101,2.071-6.352,1.116-1.35-.752-.607-3.051-1.491-3.803-4.614,1.007-10.495,2.517-13.755-1.946-.304-1.5,3.549-5.12,2.633-6.393-4.059-.195-8.766,1.499-11.812-2.342l5.804-3.859c1.626-3.687-.533-1.882-2.519-2.139-2.063-.176-5.974-1.804-5.957-4.409,6.508-.608,11.68-5.572,13.804-13.104.523-.552,2.2.341,2.528.68.432.486.607,2.206.859,6.13.926,13.973,6.073,28.604,22.725,24.587,1.526,5.426,2.205,11.292,2.042,17.443-11.902,3.856-25.267,5.826-34.635,14.668-11.033,10.45-18.017,32.184-23.628,49.648-3.265,11.765-8.847,22.709-12.3,33.998-.692,1.881-4.148,8.908-4.452,10.488l1.273.228c16.856-26.089,20.042-74.763,43.365-94.914,6.96-5.409,15.056-7.126,23.065-10.07-10.666,26.451,7.311,49.147,33.183,31.297,10.538-6.98,19.778-18.819,25.012-27.717ZM457.607,238.423c-3.01.711-3.763,3.426-4.65,6.366-2.048,6.764-2.194,16.984,2.326,23.443,16.838,18.692,43.393-12.965,51.597-26.274-15.033-4.991-22.184-16.985-19.188-32.213-8.236-3.861-5.11-16.138,4.137-14.528.727.474.809,1.049.863,1.43.047.327.053.377.766.306,5.397-.778,8.708-10.617,3.877-14.072-2.403-1.507-3.605-.537-4.998.584-3.638,3.449-6.589.393-2.966-2.915-12.741-13.246-28.377-29.597-29.701-49.075-1.484.83-7.552,3.704-8.383,4.398-10.38,10.059-11.676,19.873-13.805,32.305l3.208-5.479,2.265.42c1.562,2.088-2.322,7.761-3.413,9.05-2.243,3.251-9.534,4.981-9.724,9.113.555,2.265,7.23,2.564,8.09,4.482.557,1.933-.606,2.136-1.312,2.507-.42.838.979,9.406,1.525,11.941,1.989,12.219,8.884,18.133,21.598,13.587,5.533-1.768,7.046-2.799,7.004.641-.564,1.991-5.174,2.452-6.883,3.481,2.267,8.838,2.606,17.041.999,24.489-4.317,3.461-3.586-.981-3.232-3.99ZM490.465,206.985c-3.696.011-6.145-3.862-3.619-7.233.553-.825,2.154-2.4,3.314-1.711,1.037,1.162,1.31,2.721,3.894,1.682,1.223,5.298-.635,7.059-3.588,7.262ZM489.518,198.67c-.609,0-1.604.925-2.007,1.528-4.119,6.955,8.232,8.665,5.961.536-2.217.527-3.02-.852-3.464-1.613-.16-.256-.213-.464-.489-.451Z"/><path d="M442.303,203.516c-.797-3.16,2.412-2.856,4.685-4.523.504-.37,2.884-2.436,2.397-3.027-1.521,1.162-12.948,2.931-10.184-.978,2.528-.709,5.231-.49,7.842-1.13,3.291-.806,10.62-5.429,6.215,2.433-2.007,3.583-6.533,7.905-10.955,7.224Z"/><path d="M443.273,203.989c-.425.003-.868-.047-1.293-.119-.807-2.507.86-3.467,2.58-4.088,1.639-.559,3.11-1.667,4.215-3.083-2.44.907-12.782,2.719-9.818-2.059,3.592-.97,7.058-.383,10.538-2.071,2.255-.889,4.387-1.729,5.23-.762,1.342,4.115-6.214,12.381-11.452,12.181ZM442.632,203.155c4.421.957,11.958-6.864,11.49-10.821-.471-.539-2.796.375-4.334.981-3.384,1.647-6.869,1.2-10.339,2.02-1.923,3.18,9.604,1.092,10,.08,1.563,1.147-2.17,3.793-2.224,3.901-1.555,1.349-5.199,1.376-4.593,3.839Z"/><path d="M452.744,154.964c3.732-1.468,9.451.814,11.755,3.969.993,1.36,1.4,2.452-.636,3.025-6.618-7.675-11.957-2.263-11.119-6.995Z"/><path d="M463.742,162.408c-6.58-7.908-12.39-1.972-11.353-7.734,4.073-1.749,10.046.765,12.433,4.024,1.357,1.587,1.195,3.28-1.08,3.71ZM455.303,156.882c3.671.06,6.508,2.376,8.675,4.623,1.405-.34.937-1.399.198-2.335-2.085-2.855-7.424-5.181-11.074-3.911-.351,1.745.769,1.66,2.201,1.624Z"/><path d="M451.591,165.365c4.972-1.439,3.055,8.616-.759,5.342-1.491-1.332-.607-4.891.759-5.342Z"/><path d="M452.252,171.737c-3.32-.006-3.236-5.798-.786-6.752,4.421-1.555,4.667,6.564.786,6.752ZM451.717,165.745c-1.748.78-1.811,5.719.921,5.129,2.195-.746,2.277-6.229-.921-5.129h0Z"/><path d="M254.788,163.413c-.124,3.305,6.734,5.922,7.347,7.068.544,1.018-.762,1.98-1.805,1.829-3.62-.523-7.463-5.551-8.74-8.775-3.551-8.966,3.233-2.984,6.655-1.458,2.308,1.029,6.688,1.584,8.022,2.367,1.647.966.86,2.1-.837,2.298-3.437.402-7.555-1.976-10.643-3.329Z"/><path d="M260.553,172.726c-3.964-.34-7.923-5.549-9.335-9.043-2.606-6.149.066-6.482,4.659-3.38,2.315,1.523,4.102,2.064,6.878,2.671,1.611.379,3.002.707,3.716,1.126,2.119,1.385.978,2.758-.993,3.041-3.317.382-7.027-1.612-10.211-3.073.568,2.51,5.767,4.514,7.221,6.226.676,1.232-.712,2.47-1.936,2.433ZM251.483,159.099c-.136,0-.245.029-.32.094-1.085,3.141,4.991,12.399,9.225,12.722.658.107,1.766-.488,1.396-1.244-.147-.275-1.109-.868-1.959-1.392-2.556-1.58-5.878-3.598-5.414-6.467,3.397,1.436,7.483,3.927,10.974,3.534,1.401-.211,1.926-.826.681-1.555-1.74-.865-6.092-1.424-7.982-2.346-1.764-.737-4.938-3.194-6.6-3.344Z"/><path d="M255.15,118.727c1.78-.191,9.97.613,9.361,3.187-.619,2.619-3.38.084-5.451-.279-1.229-.216-2.311-.304-3.564-.207-2.173.169-6.645,2.938-7.272.618-.538-1.989,5.45-3.161,6.926-3.319Z"/><path d="M263.286,123.487c-1.278,0-2.992-1.235-4.294-1.458-2.344-.393-3.725-.382-5.993.499-1.655.574-3.365,1.167-4.395.623-3.444-3.127,5.249-4.743,6.503-4.822,1.454-.156,7.734.349,9.393,2.229.999,1.029.134,3.014-1.214,2.929ZM256.494,120.988c1.532-.004,3.277.245,4.756,1.021.929.42,1.89.852,2.393.606,2.579-3.029-7.344-3.639-8.451-3.49-1.255.143-8.263,1.432-6.154,3.348,1.886.499,5.36-1.781,7.456-1.484Z"/><path d="M326.601,303.082c22.44,5.652,25.478-3.337,40.394-.521,2.397,9.185-2.347,16.907-9.937,21.744-7.23,4.607-11.615,4.756-19.15.704-8.519-4.581-13.223-12.067-11.307-21.927Z"/><path d="M347.162,328.305c-12.421-.736-24.409-13.191-20.878-25.685,23.039,5.809,25.934-3.48,41.042-.379,4.118,11.534-8.174,25.446-20.164,26.064ZM326.922,303.543c-1.577,8.896,2.38,16.383,11.175,21.113,7.43,3.995,11.635,3.841,18.746-.69,8.276-5.274,11.846-12.949,9.821-21.085-14.693-2.497-18.085,6.135-39.742.662Z"/><path d="M251.842,133.356c1.14-.289,3.585,1.829,6.178,1.271,1.037-.223,1.851-1.356,3.186-.931,1.608.511-.635,2.677-1.393,3.074-2.083,1.092-5.627.465-7.493-.858-.891-.632-2.288-2.097-.478-2.556Z"/><path d="M257.189,137.726c-2.509-.111-6.258-.974-6.612-3.775.062-.329.314-.767,1.165-.983,2.122-.146,4.845,2.472,7.142.835.665-.381,1.417-.815,2.442-.489,2.262.871-.577,3.424-1.328,3.81-.801.42-1.786.603-2.81.603ZM252.081,133.728c-.052,0-.099.005-.141.016-1.26.238-.137,1.305.72,1.917,1.775,1.194,5.145,1.759,7.012.73.543-.343,2.48-2.03,1.328-2.338-.676-.181-1.219.159-1.809.497-2.331,1.538-5.039-.39-7.11-.822Z"/></svg>