<?xml version="1.0" encoding="UTF-8"?><svg id="Capa_1" xmlns="http://www.w3.org/2000/svg" viewBox="0 0 493.174 405.612"><path d="M186.753,215.142c2.974.643,5.543,8.901,6.411,11.622,5.383,16.87,7.292,31.35-9.048,42.241-1.109.739-5.686,2.252-3.977,4.041,1.474,1.541,4.455,1.34,5.425,4.994,1.004,3.782-1.338,5.32-1.288,6.221.037.677,2.003,2.219,1.911,4.816-.061,1.739-1.493,3.195-1.488,4.002,1.813,4.685.317,5.784-1.758,8.101.099,3.917.062,5.514-3.468,7.9.06,9.876,7.403,7.043,13.305,9.43,3.893,1.574,5.49,5.51,2.167,8.607-6.423,5.984-32.203,7.776-39.672,3.65-4.14-2.287-3.909-6.435-.112-8.97,3.634-2.426,9.701-2.147,10.517-7.515,1.076-6.278-4.339.52-5.559,2.055-6.051,5.345-13.317,8.876-21.365,7.482-.598.054-6.251,2.369-6.853,2.771-1.655,1.105-1.22,4.59-3.17,5.679-10.983,2.384-20.606,9.438-31.641,12.407-60.715,17.219-38.562-83.087-28.767-112.512,6.627-19.908,17.961-35.706,39.283-41.068-2.654-8.307,6.391-12.801,5.111-20.939-.793-5.042-2.824-6.29-1.309-12.32,1.962-7.812,8.78-8.789,10.813-14.433,2.287-6.352-1.311-11.238,1.741-18.695,2.427-5.928,5.222-6.031,9.087-9.747,3.444-3.311,2.247-11,3.833-15.802,2.63-7.967,6.536-7.621,12.132-11.511,3.289-2.286,3.127-6.208,4.481-9.544,1.259-3.101,4.074-6.712,7.405-7.624-.22-1.728-7.997.035-9.372.047-10.284,1.781-7.16,9.48-13.258,14.793-3.66,3.189-8.722,2.903-11.821,6.613-4.956,5.932-1.777,13.517-9.223,20.029-3.181,2.782-6.485,3.012-8.988,7.041-4.019,6.471-1.423,13.571-4.973,20.272-2.805,5.295-9.502,7.096-11.48,12.964-2.122,6.297,1.229,11.2-.55,17.482-1.909,6.74-9.823,9.292-10.107,17.567-.089,2.597,1.156,4.809.791,7.582-.229,1.737-3.08,9.263-5.582,6.451-1.772-1.991,1.381-5.523,1.512-7.719.14-2.363-1.03-5.117-.659-8.273,1.042-8.87,10.725-12.471,10.735-20.036.008-6.165-2.38-8.39.371-15.342,2.575-6.506,7.894-7.112,10.97-12.272,4.253-7.133.574-15.042,6.744-22.509,3.034-3.672,7.696-4.693,10.584-8.651,4.072-5.582,1.856-12.9,8.034-18.413,2.884-2.573,5.76-2.78,8.901-4.323,7.377-3.624,4.044-14.071,15.272-16.786,3.267-.79,8.165-1.224,11.495-.914,1.414.132,3.834,1.197,4.712,1.124,1.505-.125,3.219-2.239,4.584-3.062,2.034-1.226,4.535-2.056,6.941-2.079-3.526-6.56-11.511-6.472-16.954-2.323-9.231,4.001-14.244-5.761-25.002.646-4.907,2.922-5.433,7.459-9.151,10.885-5.091,4.692-11.827,3.365-17.827,9.022-6.052,5.707-4.073,9.323-6.503,15.937-3.722,10.132-14.102,10.447-18.411,20.059-3.519,7.851,2.593,16.364-4.532,24.72-3.171,3.719-7.033,4.545-8.81,10.025-2.642,8.147,4.004,14.045-1.493,23.751-2.342,4.136-7.025,5.823-7.839,10.995-.982,6.239,3.347,8.758,2.705,15.126-.593,5.873-6.363,7.88-6.004,14.019.161,2.752,3.071,7.368-1.322,7.746-1.74-.133-2.581-4.985-2.702-6.519-.202-2.549.037-4.679,1.022-7.022,1.291-3.07,4.524-4.99,4.967-8.254.843-6.202-4.556-8.54-2.651-16.277,1.786-7.251,9.18-9.573,9.897-16.551.796-7.75-3.551-12.005.455-20.382,3.51-7.339,11.302-7.983,11.59-17.663.182-6.105-1.836-9.425,1.11-15.719,3.584-7.658,7.978-8.538,13.666-13.183,7.171-5.858,3.935-14.161,9.446-21.008,5.884-7.311,9.443-6.731,17.154-9.695,6.096-2.343,7.158-11.644,16.209-15.048,7.517-2.827,9.444-.61,16.121.919,6.496,1.488,6.517-1.552,11.413-3.042,5.655-1.721,11.899.383,15.861,4.622.642.687,1.589,2.549,2.009,2.8,6.362,1.575,5.966.761,10.794,6.424,7.701-2.855,16.137,3.018,17.2,10.865.181,1.335-.248,2.96.253,4.154.357.85,4.117,3.26,5.206,4.412,4.119,4.356,5.529,9.486,5.019,15.447-.263,3.071-1.959,6.331-1.827,9.415.274,6.419,6.342,12.89,6.255,19.819-.074,5.875-4.681,11.188-4.853,16.453-.129,3.94,3.289,8.151,3.227,12.381-.075,5.09-5.044,8.239-5.585,12.476-.603,4.731,3.466,7.751.694,13.518-.577,1.201-1.907,2.382-2.353,3.658-.82,2.345.432,6.886-3.754,5.401-1.689-1.252-.681-5.066-.027-6.777,1.344-3.513,3.637-3.578,2.902-8.126-.563-3.485-2.09-4.284-1.328-8.732.839-4.899,6.032-8.073,5.339-12.902-3.712-12.033-4.768-8.349-.105-21.535-1.058,1.887-4.65,2.462-5.8,3.417-.769.638-1.407,8.084-1.742,9.879-.871,4.67-1.943,9.365-3.939,13.693-.804,1.743-4.152,6.33-4.331,7.289-.739,3.963,2.752,6.526-.247,10.974-2.18,3.232-4.801,3.077-3.78,8.643,39.978,15.718,39.193,68.974,49.3,104.605.309,1.961-.898,3.137-2.819,2.391l-.819-1.186c-3.153-12.831-5.582-25.832-8.587-38.698-4.415-18.897-7.844-39.673-22.642-53.495-7.937-7.413-18.376-10.139-28.458-13.414,3.379,8.024-.124,16.531-3.206,24.039,1.704.246,4.244-.339,5.811,0ZM113.617,193.909c9.612,12.555.219,14.671,1.385,21.254.32,1.031,3.149,4.2-.424,4.376s-4.151-5.31-3.59-8.026c.486-2.352,3.09-5.068,3.045-7.368-.057-2.941-2.915-7.065-4.834-9.252-39.224,9.132-43.009,59.092-48.073,92.103-5.436,53.039,12.161,69.575,61.699,42.549-6.994-7.977-8.909-18.917-6.005-29.05-8.827,1.338-17.736,2.668-26.146,5.708-1.718.621-6.938,3.721-8.213,2.61-3.885-4.469,17.338-9.475,20.281-9.98l4.444-47.845c.742-.352,2.073-.419,2.365.474.743,7.202-2.178,38.857-2.746,46.623,4.67-.068,10.959-3.433,15.012-.426,14.148-3.123,18.884-20.225,32.971-23.919,0,0,8.111-2.3,8.111-2.3-24.802-10.162-20.106-32.78-11.418-53.099.919-1.782,2.016-2.572,4.013-2.799l19.629-.408c4.405-2.951,7.577-15.687,6.108-20.918-.455-2.087-1.228-5.26-3.895-4.722-.052,1.33-.141,3.536-.672,4.715-.46,1.021-2.389,1.135-2.968.227-1.659-2.599,3.37-22.29,5.988-24.033,1.082-.72,2.55-.303,2.61,1.011.052,1.126-4.599,14.109-4.157,14.471l16.026,4.412c-.135-2.921.257-6.104,2.231-8.391.886-1.027,2.647-1.586,2.919-3.123.348-2.218-1.625-4.474-3.958-4.022,0,0-4.127.678-4.127.678-1.777-.065-14.241-2.333-11.662-4.931.846-.852,11.351,1.111,13.216.97,8.748-.661,12.168-13.872,13.808-20.847-3.768,1.355-7.405.753-11.22,0,1.588,2.398,4.498,3.1,6.632,4.802.499,3.965-5.066,1.631-6.642.213-1.638-1.255-9.589-10.137-4.213-10.251,1.614-.034,6.18,2.174,8.431,2.428,2.323.262,5.041-.191,7.414,0,.004-1.468.865-3.699.824-5.031-.039-1.26-1.492-2.022-.624-3.788.776-1.581,7.938-2.845,7.756-4.936-.127-1.467-8.435-8.385-9.124-13.328-.23-1.652-.589-4.996,1.441-5.309,1.311-.112,1.874,4.549,2.604,6.073,2.274,4.748,7.456,7.233,8.748,12.295.973.126.634-.006.84-.555,1.971-5.245-4.902-13.889-5.62-19.314-1.108-8.376,5.042-15.113-1.246-23.197-.765-.983-4.843-5.344-5.998-3.809,1.778,6.151,6.856,14.829,4.696,21.322-.237.712-3.138,10.402-3.932,10.646-3.761,1.154.514-11.404.471-13.342-.176-7.99-9.562-22.491-15.843-27.493.324-4.349,8.735,2.117,10.613,3.834.399.365,1.236,2.336,1.792,1.426,1.923-3.151-.533-9.385-3.438-11.399-3.654-2.534-5.11-1.211-8.604-1.027-4.291.227-4.246-3.605-7.616-5.232-1.386-.145-1.161,1.1-1.665,1.231-2.906.754-5.028-1.804-9.614-.082-3.151,1.183-4.045,3.789-6.396,5.225-1.98,1.21-4.47,1.394-6.564,3.054-3.928,3.115-3.609,7.678-5.525,11.706-3.036,6.384-9.946,5.227-13.23,11.214-3.791,6.912.167,14.327-6.479,20.369-2.758,2.507-5.029,2.863-6.972,6.652-3.766,7.342.394,12.338-2.173,19.465-2.457,6.82-10.215,8.565-11.19,15.655-.875,6.358,4.069,9.977.767,18-1.571,3.816-5.818,7.521-4.105,11.976M175.727,272.042c.461-4.319,5.267-5.586,8.377-7.856,13.543-9.887,9.069-29.078,3.156-42.337-.451-1.011-.999-2.883-2.108-3.1l-29.593.867c-6.298,12.537-12.585,32.334.13,43.016,3.851,3.17,9.219,4.076,12.025,8.413l8.013.997ZM167.636,274.967c-25.028,1.827-23.197,16.64-40.12,24.797-1.344.56-6.366,1.788-6.884,2.333-3.168,7.467-.663,17.217,4.208,23.47.772.408,9.817-4.826,11.997-5.263,13.75-.764,13.692-.847,23.664-10.399,4.885-3.866,9.95-1.998,15.24-3.595,1.088-.328,4.466-1.945,3.426-3.436-.69-.989-8.9-1.332-10.442-1.175-1.766.179-7.028,2.724-7.762.531-.999-2.982,6.092-3.993,8.144-4.155,3.331-.544,13.946,2.634,12.454-2.793-4.41-2.355-9.704-3.124-14.658-2.216-1.578.289-8.459,3.096-7.44-.599.509-1.844,7.818-3.368,9.707-3.546,4.707-.443,6.981,1.346,10.785,1.561,3.506.198,2.585-3.395.414-4.441-2.873-1.384-10.436-2.292-13.609-1.935-2.845.32-10.072,4.464-9.391-.163,3.49-2.949,9.625-3.721,14.154-3.482,2.185.115,8.778,2.065,10.014.791,3.142-5.475-10.731-6.322-13.899-6.285ZM175.73,310.108l-6.011.801c.641,10.795-6.129,10.891-13.221,14.628-1.444,1.54,1.388,2.125,2.718,2.49,8.408,2.309,19.452,1.337,27.742-1.284,1.105-.35,6.317-2.281,6.006-3.605-2.644-2.095-6.415-1.646-9.536-2.492-5.177-1.402-7.382-5.346-7.699-10.539Z"/><path d="M418.586,173.865c7.504,1.482,1.773,6.591-1.876,8.748-3.623,2.141-7.928,3.059-12.112,2.917-1.358,7.611-13.797,6.69-19.288,4.582-2.556-.981-10.198-6.373-5.015-8.248,2.819,2.05,4.81,4.419,8.375,5.289,3.362.82,8.307,1.191,11.073-1.062-1.515-1.446-4.78-2.41-4.815-4.805-.053-3.661,4.207-.831,6.342-.32,5.683,1.36,10.774.334,15.461-3.055l.25-.829c-1.729-.492-6.56-2.832-6.824-4.637-.451-3.087,3.691-2.01,5.72-2.285,4.124-.558,8.385-3.667,10.327-7.305-27.733-3.512-11.893-51.449-33.061-70.333-11.475-12.74-20.226-9.389-34.759-12.528-9.054-1.955-13.163-4.722-23.243-2.584-4.438.942-19.214,8.245-23.117,10.945-7.896,5.463-14.078,19.016-8.25,27.811,2.623-9.365,9.103-22.25,18.359-26.518,1.271-.586,5.888-1.992,4.821.772-12.225,6.822-19.46,20.696-20.575,34.562.396.441,1.844-1.741,2.346-.134.975,3.123-3.947,8.592-6.167,10.542-6.913,5.171-12.266,7.541-.308,10.349,4.313,2.289.668,8.544,2.098,9.525,2.898.749,8.127.738,11.158-.516,1.259-.375,3.767-2.098,4.89-1.536,4.465,2.409-10.546,18.077-12.264,11.029.512-1.835,6.344-2.823,6.656-5.599-3.383,1.205-6.984.764-10.412,0,1.884,10.55,5.345,21.126,18.178,19.984,2.033-.181,8.063-2.259,9.212-1.518.43.277.7.704.908,1.159.5,1.801-3.133,2.365-3.051,2.61,1.816,2.483,2.744,5.568,3.486,8.536.69,2.756,2.999,13.623.755,15.345-2.784,2.136-3.497-2.575-3.045-4.44-1.347-1.36-2.857,4.473-3.015,5.196-2.492,11.455,2.501,31.622,17.54,29.56,13.904-1.906,27.831-21.405,34.368-32.748-2.232.162-6.118-3.949-2.582-4.423,34.363,7.382,48.475,29.912,52.948,63.247,5.413,29.478,8.55,58.859-1.917,87.587-1.087,1.369-3.515.785-3.444-1.082,1.608-7.023,3.751-13.921,4.962-21.042,3.604-21.191.261-44.362-3.672-65.399-4.929-28.716-12.277-48.042-42.434-56.809-.948.179-4.943,7.434-5.939,8.86-7.57,10.83-22.27,27.548-36.883,25.808-14.92-1.777-21.318-25.405-15.544-37.357.063-.306-.372-.247-.589-.19-19.349,4.288-21.874,12.758-31.475,27.045-6.417.957,1.776-9.927,2.783-12.014-1.242-4.036-3.233-7.666-4.184-11.829-1.428-6.253-.462-12.833-2.399-18.839-1.548-4.8-6.192-8.393-8.943-12.696-2.919-4.567-4.743-9.796-7.674-14.366l-1.242-.006c-2.983,5.932,3.046,13.403,4.821,18.485.67,4.651-3.204,7.81-.584,14.59.89,2.303,4.322,5.084,1.784,6.637-1.514.629-3.782-2.354-4.471-3.549-2.881-4.998-2.117-10.528-.734-15.879-7.674-2.946-14.966-7.669-22.735-10.342-1.641-.565-5.035-1.886-6.511-.7-.988,1.037.062,2.015.902,2.702,2.791,2.279,16.55,7.323,17.348,9.13.572,1.297-.524,2.548-1.926,2.317l-15.899-6.561c-3.764-.942-6.977.625-2.706,3.507,2.692,2.713,18.671,5.766,17.748,9.549-.682,2.565-4.858.337-6.519-.34-3.571-1.619-12.852-4.666-16.094-8.752-2.099-3.389-.594-7.658,3.541-7.749-4.433-18.145,23.694-.342,30.453,1.604-1.603-5.071-5.35-12.343-1.211-17.039,1.295-1.469,2.481-2.176,4.534-1.709,3.264.742,7.733,11.887,9.736,15.111,4.926,7.933,9.824,9.877,11.342,20.315.628,4.318.158,8.707,1.034,12.991.65,3.18,2.191,6.089,3.023,9.202.619.146.641-.096.972-.428,6.158-9.995,20.144-13.285,31.088-15.199.541-.529-2.838-14.132-3.593-14.656-2.573-.068-4.784.754-7.451.647-14.992-.56-21.092-20.61-18.67-33.045-.211-.871-7.203-1.525-8.854-5.144-3.501-7.675,8.256-9.698,9.923-14.709.541-1.627,1.392-7.465.993-8.941-.076-.281-2.807-3.001-3.521-4.584-5.213-11.561,2.794-28.326,14.228-32.88,5.085-2.025,6.602-3.066,11.209-5.622,12.462-7.161,22.66-5.604,35.7-1.391,31.883-.471,46.713,20.664,50.516,50.067,1.307,8.843,1.386,30.11,13.187,32.094,2.288.385,6.26-.965,6.848,1.995.721,3.627-5.257,9.598-8.217,11.253-1.303.729-3.248.866-4.136,2.07Z"/><path d="M239.316,180.514c-4.122.337-5.37,4.688-3.073,7.946,3.48,3.887,12.924,6.374,16.586,7.779l-.559-4.454c-3.987-1.248-8.29-2.352-11.197-4.07-4.436-2.622-1.322-4.378,2.492-3.661l8.084,2.786"/><path d="M239.853,193.105c-.038.594.064,1.209.381,1.719.753,1.211,11.489,6.231,13.768,7.572,6.063,3.57,11.732,7.935,17.928,11.326,3.538,3.709,2.697,12.014,4.233,16.689,0,0,23.567,1.996,23.567,1.996,4.478.474,5.456,6.23,6.533,9.897,6.348,21.569,5.574,35.991-15.916,46.965,7.968.96,15.588,4.095,21.45,9.611,3.596,3.383,6.621,8.707,10.409,11.631,2.845,2.196,13.443,6.881,16.855,6.839,1.525-.019,1.089-1.373,2.456-1.536,11.166-.043,22.266,2.099,33.374,3.101,1.55-8.029,3.348-16.055,4.018-24.234.72-8.795.114-17.636.815-26.433,6.536-10.137,2.873,32.323,2.336,34.393-.702,5.555-2.102,10.953-3.181,16.429,3.405.89,22.815,4.107,20.505,9.295-1.571,2.087-4.911-.869-6.855-1.618-15.373-5.541-32.122-4.738-48.079-7.42,1.986,7.624,1.932,14.002-.299,21.544-.943,3.239-6.239,18.068-9.185,8.888-1.435-.799-5.616-1.635-7.559-2.375-5.332-2.03-6.067-3.072-12-3.194-11.471.053-21.129-5.629-28.864-13.651-.995-.381-.153,2.846-.028,3.236,1.649,5.116,7.012,4.759,10.923,6.708,4.353,2.169,4.659,7.302.134,9.511-8.383,4.092-26.837,2.104-35.684-.81-4.099-1.35-10.685-4.979-6.226-9.84,4.116-4.487,13.424-2,15.927-6.914.48-.943,1.313-4.167.765-4.901-.498-.666-2.099-1.209-2.845-1.994-2.495-2.626-.992-4.681-1.598-7.128-3.181-2.524-3.496-5.079-1.743-8.9-2.802-4.808-2.967-5.065-.271-10.003-2.73-5.169,1.463-9.753,6.815-10.233-.003-.31.055-.648-.05-.948-.276-.789-6.628-4.519-7.97-5.655-14.025-11.879-9.133-31.077-2.343-45.629,2.296-4.921,3.178-7.877,9.563-6.667.417-.421-1.314-10.46-1.718-11.709-1.053-3.254-5.81-4.703-8.669-6.559-3.162-2.052-6.133-4.303-9.382-6.246-3.686-2.205-13.899-6.456-15.577-9.668-1.766-3.379.039-6.837,3.897-7.105,2.626-.182,11.585,2.349,13.915,3.721,1.765,1.039,3.199,3.932.517,3.929-4.002-.665-10.334-4.318-15.042-3.628ZM300.31,236.434l-31.006-2.495c-1.593.006-2.09,1.754-2.671,2.973-7.078,14.876-12.471,33.086,2.909,44.511,3.002,2.23,6.701,3.051,7.636,7.39l8.362-.539c3.089-4.553,8.712-5.303,12.825-8.814,12.862-10.98,5.922-29.463,1.944-43.026ZM340.788,321.382c-6.717-1.002-14.318-3.228-19.95-7.099-5.134-3.529-7.947-9.127-12.452-13.194-8.142-7.351-21.211-9.424-31.881-8.625-1.786.134-9.331,1.428-7.426,4.245,2.228,3.296,11.058,1.12,14.608,1.431,1.407.123,6.005,1.372,7.169,2.043,1.761,1.015,1.215,3.322-.351,3.39s-4.639-1.322-6.756-1.491c-3.055-.244-6.07.456-8.831.448-2.188-.006-6.651-2.233-7.009,1.408-.597,6.056,13.118,3.738,16.593,4.203,1.664.222,6.2,1.425,4.282,3.808-1.07,1.329-3.56-.119-5.053-.232-4.795-.361-9.422,1.152-14.223-.231-4.441,6.77,15.485,4.466,18.447,7.31l-.071,2.074c-.528.243-1.148.475-1.738.463-4.469-.067-9.63-.623-13.974-1.639-2.294,3.03,3.353,5.327,5.67,5.925,4.855,1.254,8.127-.767,12.511,2.717,8.53,7.722,14.91,13.006,27.488,11.468,3.787,0,17.64,7.546,19.798,6.186,4.162-7.088,5.59-16.597,3.15-24.61ZM296.737,344.594c-7.595-2.637-15.106-4.681-14.58-14.474l-5.836-.777c-.27,5.436-2.898,8.372-8.012,9.822-3.283.931-7.536.619-10.004,3.244-.27,1.252,4.274,2.868,5.188,3.169,8.406,2.765,20.171,3.949,28.788,1.929.864-.203,5.603-1.255,4.457-2.912Z"/><path d="M367.338,161.51c-.191.321.413,2.067.373,2.927-.193,4.15-3.923,5.068-4.346,6.51-1.044,6.862.715,15.286,6.325,19.957,1.498,1.386,12.899,8.513,12.405,11.146-.77,4.103-16.625-9.518-17.815-10.945-4.6-5.516-5.703-13.082-4.774-20.064-8.559-1.832-7.401-14.766,1.39-14.216,2.87.18,3.364,2.425,6.003.421,5.118-3.262,6.833-13.727-.616-15.059-3.368-.149-5.814,3.761-7.185,3.652-2.373-.188-1.374-3.706.149-4.682l-.142-.556c-12.007-9.029-30.87-32.406-30.301-47.893.162-1.882.877-3.528,2.615-1.779,3.035,19.413,17.206,35.419,31.474,47.889,15.525-2.502,15.642,16.748,4.446,22.691ZM363.761,163.83c-.019-4.178-6.373-4.178-6.391,0,.019,4.178,6.372,4.178,6.391,0Z"/><path d="M214.858,251.653c1.031-.346,2.106.028,2.357,1.15,1.736,7.89,6.419,15.765,7.002,23.854.75,10.416-5.364,19.935-4.799,30.042.305,5.446,2.572,11.87,2.437,17.235-.053,2.125-1.905,4.167-3.475,2.234-.9-1.108-.773-5.273-1.02-6.991-.748-5.195-2.248-10.876-1.969-16.096.486-9.089,5.674-17.277,4.819-26.825-.529-5.905-3.755-11.97-5.086-17.755-.295-1.282-1.691-6.37-.265-6.848Z"/><path d="M295.435,66.142c1.888-.578,3.07,1,2.342,2.752-3.643,6.607-6.642,14.677-10.717,20.946-2.073,3.189-4.415,3.083-4.143-.931,1.931-2.922,10.592-22.177,12.518-22.767Z"/><path d="M269.375,52.91c3.643-1.198,2.625,6.644,2.553,8.978-.192,6.234-1.056,12.551-1.234,18.801-.243,1.491-1.85,1.847-3.03,1.054-.904-.721-.614-6.323-.578-7.867.349-3.536-.113-19.441,2.289-20.966Z"/><path d="M247.787,73.779c3.91,7.9,8.244,15.802,11.226,24.066-.303,2.091-2.854,1.863-3.878.436l-10.29-21.774c-.799-2.241.791-3.287,2.942-2.729Z"/><path d="M234.341,106.249c.7-.692,1.778-.495,2.59-.194,2.732,1.674,10.348,7.548,12.484,10.395.253.98-.861,2.358-1.814,2.439-1.018.086-7.119-4.909-8.34-5.938-1.491-1.255-6.853-4.789-4.92-6.702Z"/><path d="M321.273,115.429c2.575-3.003,12.507,1.901,10.177,5.172-1.214,1.705-4.076-1.699-5.442-2.224-2.244-.862-5.575.271-4.735-2.948Z"/><path d="M321.91,126.682c1.282,1.773.336,7.004-2.321,6.159-2.989-.951-1.94-8.85,2.321-6.159Z"/><path d="M191.279,76.578c1.873-.156,3.668,1.237,2.695,3.132-.435.848-3.143,1.088-4.418,1.995-2.056,1.463-2.46,4.142-4.192,5.826-2.445,2.377-6.537,2.915-7.826,6.601-1.418,4.053.296,8.007-1.734,12.291-2.42,5.105-8.57,6.591-10.512,12.329-2.411,7.123,2.986,12.313-1.416,19.822-1.97,3.359-5.881,5.749-7.093,9.337-2.646,7.83,4.965,12.736-1.562,22.08-1.719,2.46-4.027,3.291-5.025,6.596-2.188,7.243,4.703,12.323-.58,20.257-1.392,2.091-4.397,3.635-5.166,6.055-1.444,4.542,1.575,7.486,1.186,11.597-.199,2.105-2.531,9.085-5.367,6.247-1.401-1.403,1.362-4.831,1.41-7.019.077-3.516-2.334-5.905-1.52-10.706,1.103-6.502,8.689-6.862,7.422-14.827-.677-4.252-2.542-5.396-1.803-10.81.757-5.54,4.143-6.444,6.475-10.355,4.27-7.158-1.02-10.48-.123-17.753,1.016-8.236,10.155-10.331,9.565-18.873-.383-5.55-2.409-7.274.105-13.532,2.88-7.169,10.82-8.73,11.518-16.532.48-5.364-1.147-8.261,3.823-12.205,1.221-.969,2.682-1.424,3.773-2.238,3.866-2.886,4.393-8.814,10.361-9.312Z"/><path d="M194.736,79.604c-1.189,1.191-5.996-4.787-7.276-5.014-3.152-.569-11.665,1.836-14.107,4.346-2.638,3.68-2.224,9.27-5.233,12.475-2.785,2.967-7.002,2.264-9.38,7.165-3.158,6.509.807,12.151-4.844,18.798-2.95,3.47-6.841,4.029-8.338,9.294-1.631,5.735,1.578,10.746-.889,17.143-1.735,4.5-5.174,6.022-7.799,9.432-5.048,6.557.117,11.616-.916,18.719-.955,6.567-8.288,9.066-7.013,16.44.378,2.184,2.234,4.483,2.267,6.949.027,2.053-1.774,8.173-4.771,6.371-1.564-.94.027-3.005.292-4.132.93-3.949-2.58-7.641-1.857-13.068.746-5.606,6.331-8.529,7.084-12.952,1.131-6.638-3.66-10.289.145-18.288,2.584-5.431,9.015-7.405,9.585-13.658.622-6.819-2.574-12.464,2.398-18.84,2.454-3.147,6.797-4.94,8.355-8.476,2.924-6.639-1.07-13.992,5.873-19.773,3.06-2.548,6.436-2.125,8.113-6.313,1.68-4.194,1.985-9.193,6.219-12.214,2.79-1.991,10.262-3.575,13.705-3.517,4.55.077,10.732,6.761,8.387,9.111Z"/><path d="M183.79,117.731c-2.717-4.791,10.334-9.946,12.186-6.779,1.88,3.152-3.585,2.726-5.235,3.193-1.854.525-5.792,4.392-6.951,3.586Z"/><path d="M193.246,120.64c3.761-1.143,3.734,5.987.658,6.261-2.945.262-3.163-5.499-.658-6.261Z"/><path d="M157.402,245.851l29.671-1.038c.738-.038,1.443.561,1.502,1.301.741,8.27-6.109,16.571-13.825,18.737-11.143,4.163-29.728-16.199-17.349-19Z"/><path d="M268.534,261.055l28.243,1.55c11.871,2.884-6.796,23.371-18.274,19.075-5.22-1.455-14.205-9.32-14.205-15.048-.385-2.799,1.079-5.742,4.236-5.578Z"/></svg>