<?xml version="1.0" encoding="UTF-8"?><svg id="Capa_1" xmlns="http://www.w3.org/2000/svg" viewBox="0 0 577.358 370.259"><path d="M107.582,199.431c3.788,5.885,6.99,12.082,11.251,17.67,14.532,19.057,39.138,38.963,62.48,20.33,10.282-8.208,18.278-24.459,15.831-37.821-.592-3.23-5.915-4.475-8.706-5.261v7.836c-5.423,1.856-4.246-8.165-3.862-11.448.789-6.752,2.872-14.285,5.824-20.376-2.443-.698-11.766-4.398-10.749-7.539,1.6-2.162,4.468,1.08,6.313,1.921,4.678,2.132,14.264,5.15,19.264,4.502,6.193-.803,11.556-6.276,9.453-12.637-.491-1.485-1.687-.773-3.179-1.701-3.144-1.956-.345-4.756,2.426-2.675l-.048-2.888c-3.979-.698-10.795-1.567-11.19-6.6.725-2.268,6.026,1.566,7.788,1.918.993.199,1.953.328,2.964.224-.173-2.177.266-3.352,2.103-4.512,2.544-1.607,15.277-4.491,15.938-5.388,1.767-6.187.156-11.882-.9-17.993-2.53.137-6.124.145-5.907-3.203.156-2.4,4.746,1.031,6.194-1.207l1.675-13.045-.465-.934c-.858-.197-1.937-.67-2.777-.705-2.032-.084-2.989,1.804-4.04-.373.003-2.317,2.616-2.968,4.584-3.102.985-.067,1.971,1.101,2.639-.207-.658-2.834-.911-5.772-1.632-8.594-1.126-4.408-3.997-13.101-5.881-17.143-1.249-2.681-4.812-4.301-6.032-7.1,1.98-2.914,4.442.02,6.758.738-.264-4.193-3.864-9.893-8.201-10.658-1.81-.319-3.628.227-5.399-.484-3.345-1.343-2.899-6.514-8.68-6.997-1.737-.145-4.563.628-5.675.319-1.521-.422-3.758-3.592-6.23-4.104-6.085-1.26-8.225,2.43-13.105,2.845-7.059.6-11.74-4.364-19.379-1.722-6.612,2.287-8.415,10.262-14.384,13.547-6.421,3.534-12.818,1.696-19.129,5.87-11.417,7.551-7.282,17.368-14.557,25.618-5.234,5.934-13.817,6.721-19.028,13.316-6.867,8.69-2.926,14.015-5.34,23.071-3.162,11.862-14.174,12.383-19.662,21.499-5.15,8.556-.171,12.203-1.122,20.428-1.339,11.578-14.672,15.813-15.17,26.487-.224,4.812,2.435,8.417,1.277,13.997-.446,2.151-6.012,12.498-7.132,6.562-.654-3.463,3.218-6.133,3.396-9.841.133-2.773-1.922-6.665-1.97-9.73-.207-13.425,13.581-17.27,15.121-27.049,1.193-7.574-2.97-11.34.236-19.843,4.603-12.208,19.947-13.497,21.401-25.638.982-8.202-.975-12.565,4.064-20.427,6.081-9.487,15.308-9.276,20.984-16.26,6.21-7.641,2.564-15.125,12.264-23.501,6.733-5.814,9.524-4.501,17.287-6.24,9.675-2.167,9.823-9.98,17.522-14.331,10.728-6.063,16.507,2.149,24.794-.211,4.88-1.39,5.747-3.425,12.116-2.357,3.321.557,5.502,3.72,7.08,4.192,2.821.845,5.486-.651,9.156,1.14,3.133,1.529,3.572,4.35,5.012,5.278,1.319.85,4.717.477,7.052,1.282,3.627,1.25,6.816,4.913,8.227,8.433,1.02,2.543,1.037,6.141,1.848,7.949,1.147,2.557,7.22,6.525,9.478,11.592,4.288,9.621-.713,12.454.053,20.016.339,3.35,4.34,7.726,4.879,11.789.904,6.812-1.403,7.109-2.668,11.941-1.156,4.416,2.521,6.876,1.731,11.278,4.857-.697,10.492-5.015,14.716-1.232,6.451,5.779,17.206,20.395,20.669,28.329,7.454,17.079,2.194,24.313-7.639,37.596-.314.424-1.646,2.06-1.27,2.4,4.749-1.13,11.884-1.882,15.124,2.769,1.63,2.34.541,3.905,1.129,5.728.333,1.033,3.765,1.371,4.307,5.003.205,1.373-.248,3.012.129,4.279.278.932,2.16,2.053,2.611,3.756.792,2.989-.847,5.598-.652,6.559.112.551,1.154,1.165,1.483,1.921,2.485,5.706-2.91,15.015-7.45,18.716,3.026,4.473,13.368.862,16.179,4.528,3.603,4.7-3.972,8.756-7.356,10.664-6.226,3.512-13.145,6.031-20.172,7.374-.787,4.625-1.966,9.19-2.741,13.816-1.865,11.129-2.862,21.842-5.197,33.008-.684,3.272-2.579,14.434-4.04,16.533-1.275,1.832-4.158,1.257-4.127-1.134,4.861-14.837,6.432-30.219,8.89-45.53.86-5.353,2.344-10.614,2.857-15.996-6.823,2.042-13.083-1.519-7.841-8.571,2.412-3.245,7.458-4.976,8.215-9.422.311-1.827-.188-7.357-1.315-8.735-.622-.761-2.925-1.265-3.981-2.39-1.286-1.37-.989-2.693-1.715-3.674-.611-.825-2.28-1.065-3.147-1.754-3.42-2.723-.878-6.979-1.233-7.593-.301-.519-2.228-1.192-2.919-1.973-2.969-3.354-1.467-6.101.701-9.26-2.084-.33-3.461-3.722-3.387-5.599.086-2.195,1.691-3.59-.056-6.163-5.627,1.223-3.516,8.698-4.526,13.34-1.189,5.462-4.226,8.365-3.788,14.81.209,3.068,6.268,14.404,4.457,15.713-1.75,1.266-3.995-1.2-4.56-2.392-2.188-4.61-4.179-11.177-3.846-16.272.349-5.344,3.633-9.857,4.302-14.8.384-2.838-.18-5.16.756-8.06.699-2.167,2.108-2.869,2.801-4.788-9.832-1.011-18.844-5.191-24.761-13.223-1.622,2.29.456,4.922.228,7.529-.188,2.152-3.42,7.571-3.192,8.672,2.963,3.182,6.169,5.76,8.808,9.305,9.876,13.265,10.841,32.131,13.531,47.949.958-.119,2.077-17.366,3.47-17.248.973.083,3.006,1.082,2.851,2.118-1.697,13.24-6.942,38.203-12.457,51.862-2.896,7.174-4.387,15.709-6.981,22.913-1.738,4.827-4.975,2.215-3.93-1.983l14.576-47.67c-4.1-18.785-3.235-43.399-16.895-58.479-6.376-7.039-15.239-12.071-24.277-14.685v10.529c0,11.294-10.685,26-19.657,32.278-29.898,20.917-62.08-12.499-75.24-37.398-.872-1.649-1.436-3.664-2.231-5.373-12.125,3.418-24.169,7.011-34.016,15.16-16.049,13.281-24.002,28.795-27.157,49.273-2.643,17.151-5.997,41.17-4.968,58.204.157,2.592,1.715,8.883,1.477,10.751-.203,1.597-1.739,2.329-2.976,1.028s-2.287-10.518-2.424-12.758c-.988-16.173,2.48-42.72,4.965-59.187,3.263-21.623,12.798-37.415,29.577-51.217-1.002-3.436.545-6.384.772-9.557.3-4.201-1.196-6.41.451-10.817,1.806-4.832,8.825-8.509,9.715-13.312,1.538-8.297-5.192-13.307,2.315-22.665,4.081-5.087,11.74-6.379,12.035-13.978.151-3.898-.895-5.653.607-10.124,1.698-5.053,6.852-6.904,7.832-9.318,1.579-3.888-.109-6.892,3.593-11.103,2.079-2.365,5.575-3.226,6.942-4.575,1.401-1.382,2.452-6.719,4.77-9.193,3.846-4.105,11.166-3.724,12.881-9.661,1.2-4.152.495-6.824,3.159-11.047,4.181-6.629,9.418-6.207,15.731-8.774,6.554-2.665,5.839-7.428,9.69-12.359,5.084-6.51,11.357-7.534,19.356-6.624,2.171.247,3.95,2.052,5.356,1.956,2-.136,6.843-3.4,9.121-4.146,3.291-1.078,8.212-1.574,8.785,2.87-.482,1.617-3.385.248-4.614.276-2.683.06-13.266,6.012-15.623,7.944-4.676,3.832-3.907,6.742-6.608,11.03-3.492,5.542-10.608,5.513-15.06,9.445-6.079,5.37-2.841,12.918-8.077,18.728-4.043,4.487-10.478,3.735-12.778,10.885-.669,2.08-.65,4.419-1.297,6.54-2.47,8.104-9.495,7.135-13.79,12.671-5.863,7.556-.721,12.887-3.427,20.084-1.958,5.205-8.905,8.523-10.738,14.74-1.814,6.153,2.603,10.636.704,16.866-2.412,7.911-13.546,8.155-9.662,18.504,0,0,4.249-1.166,6.903,3.121ZM179.366,51.836c-1.808-.449-7.466,0-9.806,0-7.415,0-10.405,12.905-14.72,16.64-5.989,5.184-14.966,2.149-18.878,11.508-1.618,3.871-.723,8.163-3.424,11.762-3.464,4.615-9.747,3.765-13.153,8.9-1.495,2.254-1.942,6.097-3.681,7.832-1.213,1.21-3.282,1.522-4.702,2.405-5.994,3.726-2.98,7.343-4.983,12.163-1.399,3.368-5.672,4.484-7.32,8.361-2.329,5.479.663,10.719-2.836,16.267-3.32,5.263-11.615,7.357-13.094,13.857-1.569,6.898,3.224,12.247.12,19.22-2.655,5.965-9.84,7.463-9.712,15.322.023,1.406.567,2.651.567,3.907,0,.84-1.512,7.613-.771,7.596,7.34-4.136,15.198-7.303,23.217-9.868.342-3.905-.691-7.616,1.269-11.221,2.486-4.572,7.849-4.952,9.166-10.431,1.436-5.975-3.106-11.139.04-18.573,3.109-7.347,10.988-8.543,10.697-17.761-.217-6.871-1.667-9.873,3.161-15.902,3.382-4.223,6.331-4.449,10.026-7.127,4.945-3.584,2.884-8.584,5.174-13.442,3.119-6.618,10.94-6.595,13.968-11.515,2.182-3.546,1.651-7.76,3.064-11.631,3.916-10.728,15.36-8.643,19.109-15.195,2.38-4.16,2.711-9.576,8.001-12.092.458-.262-.367-.95-.498-.983ZM236.482,91.012c2.317-6.909,1.387-12.4-3.223-18.076-.418-.515-3.045-3.54-3.636-2.975l6.859,21.051ZM235.509,133.618c8.114-1.056,3.075-5.427,2.494-9.589-.873-6.245,2.829-8.219,2.938-12.691.101-4.128-2.467-7.438-3.968-11.015-.707-.1-.751,1.335-.835,1.847-.541,3.292-1.443,7.926-1.629,11.108-.409,7.001,3.101,13.403,1.001,20.34ZM254.512,132.23l-36.672,11.417-.488.992c1.796,17.524,5.459,45.948,25.117,52.305,5.705,1.845,12.984,1.155,15.848,7.691l6.857-3.918c.131-5.961,5.214-9.209,8.198-13.849,13.746-21.375-5.042-37.857-17.261-53.994l-1.598-.644ZM216.872,167.412c-1.295-.316-1.027.953-1.929,1.736-.682.593-3.227,1.905-3.301,2.394,1.489,3.371-1.803,7.262-1.665,10.311.113,2.49,2.399,4.07,2.009,7.849-.258,2.5-4.603,6.734-1.681,9.003,2.117,1.644,6.846,3.184,9.255,4.95.321-.064,2.09-5.444,2.178-6.171.345-2.857-1.056-6.023-.349-9.155.262-1.163,1.936-2.457,1.761-3.443-.132-.74-3.195-6.091-3.843-7.906-1.051-2.944-1.874-6.48-2.437-9.569ZM208.047,172.803c-5.019,1.481-9.682-.719-14.647-.922-1.985,6.183-3.873,12.485-4.437,19.007l16.631,5.91c-.828-2.798,2.26-5.614,2.453-7.641.188-1.972-1.932-4.749-1.999-7.295-.083-3.185,1.918-5.921,1.999-9.058ZM283.07,239.421c.228,1.064.916,4.482,2.461,3.673,2.215-1.159,5.613-8.504,5.756-10.917.158-2.665-2.564-3.963-2.624-5.747-.05-1.48,1.747-3.323,1.186-5.28-.406-1.417-2.961-1.978-3.289-3.15-.371-1.326,1.269-4.729.193-6.519-1.036-1.049-2.938-.877-3.915-1.966-1.663-1.853.466-3.603-.134-5.233-2.437-6.62-16.674-.666-20.463,2.322-1.722,1.358-4.644,4.052-3.403,6.409,2.638,1.875,9.654-2.975,12.617-4.061,2.336-.856,4.547-1.837,7.122-1.305,2.063,3.26-3.112,3.757-5.492,4.892-3.416,1.63-12.496,5.837-13.308,9.684-.11.522.03.98.368,1.382.889.423,1.919,1.175,2.947,1.028,1.634-.235,6.849-3.788,9.011-4.748,1.928-.856,6.816-3.042,8.676-2.448,1.933.618.165,2.604-.974,3.284-2.761,1.649-7.272,2.874-10.479,4.716-1.161.667-4.118,2.198-4.857,2.985-2.029,2.162-1.001,5.88,1.945,5.403,1.706-.277,7.835-4.681,10.433-5.772,1.188-.499,6.532-2.412,7.383-2.249,1.355.26,1.636,1.761.568,2.848-1.988,2.024-15.464,5.763-15.476,9.04-.017,4.723,11.872-1.676,14.356-1.58,3.339.128,1.963,3.145-.61,3.311ZM279.609,241.373l-5.167,1.933c.98,5.6,2.403,9.836-1.421,14.713-3.277,4.18-14.834,10.364-.628,8.188,9.443-1.446,20.405-5.881,27.826-11.865.036-1.274-8.84-1.205-9.914-1.351-6.528-.889-8.942-5.965-10.695-11.617Z"/><path d="M520.405,197.294c-2.033,8.124-12.59,5.575-18.164,2.931-.699,6.041-8.118,2.73-11.295.259-2.006-1.56-7.485-7.755-4.684-10.098,2.301-1.53,3.269,2.392,4.495,3.92,1.367,1.704,4.125,4.127,6.33,4.457,1.782.267-.441-2.447-.621-3.3-.506-2.394-.373-5.894,2.835-4.303.472.234,2.561,3.282,3.671,4.168,1.56,1.245,4.385,2.722,6.373,2.94.917.101,6.485.422,5.891-.981-2.335-2.282-6.183-4.159-4.201-8.115,1.054-.758,4.26,1.768,5.582,2.322,4.299,1.8,7.543,2.647,12.204,1.249,1.121-.336,3.55-1.279,3.811-2.55-.195-.834-6.873-1.553-6.909-4.902s4.294-.937,6.172-.733c5.007.544,10.493-1.022,13.48-5.156l-4.739-2.105c-15.266-8.981-11.169-26.899-11.413-41.491-.343-20.486-5.331-43.535-21.588-57.285-11.302-9.558-39.512-19.919-54.204-18.868-7.615.545-15.677,4.603-22.475,7.915-10.679,5.204-21.565,19.903-14.277,31.77,2.983-8.222,6.318-16.785,13.225-22.537,2.31-1.923,9.6-6.325,12.386-5.015,4.258,2.002-5.028,5.024-6.574,5.923-7.683,4.471-12.128,13.517-14.416,21.84,2.146.729,6.444,2.376,4.709,5.179-2.118,1.802-3.852-1.564-6.126-.963l-2.239,12.744,4.821,2.362c.718-.18,3.441-6.825,4.687-3.048,1.672,5.066-7.962,14.242-11.692,17.064,3.941,3.196,12.891,6.311,12.775,12.242-.038,1.933-1.126,3.676-1.014,5.631,2.185.375,4.353-2.303,5.771.241-.356,3.084-6.136,3.148-7,4.168-.594.701-2.214,7.28-2.812,8.945-.451,1.257-2.9,5.602-2.748,6.412,7.27,10.13,21.002,6.804,30.685,2.343.754-.25,1.877.52,2.013,1.225.518,2.688-7.383,4.743-9.276,5.364,1.583,7.584,3.245,15.065,2.426,22.911-.199,1.907-1.626,8.364-3.719,8.548-3.343.294-.57-5.03-1.128-5.794l-5.568,1.913c-5.065,11.536-8.175,24.039-2.847,36.126,7.847,17.803,24.613,10.98,36.804,2.31,10.794-7.676,19.599-17.67,28.482-27.372-.007-.515-18.389-13.021-17.833-15.44.37-2.018,17.262,11.221,18.317,11.538,1.274.382,2.506.074,3.815.597,3.014,1.203,15.162,9.517,18.008,11.887,25.325,21.087,21.424,56.497,17.347,85.868-.367,2.645-2.168,15.909-3.564,17.008-1.714,1.349-3.537-.271-3.28-2.239,4.592-31.125,15.156-76.603-14.506-98.598-4.564-3.384-9.755-5.896-14.624-8.788-10.584,11.687-21.368,24.246-35.093,32.409-34.893,20.751-48.704-15.975-36.242-43.785-6.373.617-13.513,1.663-19.308,4.462-14.851,7.174-23.923,31.052-31.601,44.835-1.395,2.504-8.459,12.46-8.79,13.748-1.12,4.359,1.692,13.277,2.271,18.062.308,2.548.641,6.245.57,8.777-.047,1.668-.406,8.735-3.45,6.863-1.374-.845-.372-6.86-.47-8.865-.642-13.069-3.563-23.943-2.957-37.685.266-6.025.916-17.265,2.068-22.911.766-3.756,7.637-12.249,9.068-18.365,1.055-4.512-.541-6.554-.861-10.624-.294-3.724.802-7.32.503-11.036-1.742,1.529-2.793,4.071-5.38,4.435,1.57,4.351,1.849,9.024-3.934,9.28,1.082,3.287-.284,7.112-3.915,7.852.092,1.7,2.294,4.463.742,5.863-1.98,1.786-3.253-1.334-3.921-1.351-.127-.003-1.482.879-2.313,1.056-.8.171-1.872-.21-2.35.029-1.272.637-2.571,5.4-2.493,6.886.276,5.303,7.242,7.16,6.419,14.2-.749,6.405-9.133,2.827-12.753,1.213-.86,15.287-5.28,30.109-6.864,45.305-1.031,9.885-1.459,19.371,1.338,29.018,7.005,24.161,36.9,7.509,46.202-6.021,2.623-10.618-1.644-21.134.735-31.589,1.946-8.554,8.252-16.37,12.285-23.97,1.097-2.067,4.866-11.426,5.59-12.046,1.48-1.268,2.315-.909,2.524,1.003.948,8.679-15.149,26.32-16.578,36.87-.971,7.17,1.042,13.9.88,20.456-.144,5.831-2.309,12.539-2.573,18.5-.972,8.23-3.177.619-4.072-1.12-8.578,7.186-20.514,15.534-32.308,14.141-22.836-2.698-19.586-35.755-17.396-52.041,1.802-13.403,5.77-26.548,6.33-40.14-5.173-2.833-17.612-9.55-19.738-15.154-3.708-9.772,10.335-6.618,15.306-6.235-2.719-4.339-5.817-11.114-3.042-16.012.79-1.395,2.761-2.301,2.965-2.916.312-.943-.061-2.268.103-3.325.424-2.738,2.944-3.092,4.133-4.687,1.133-1.52,1.052-3.962,2.706-5.623,1.643-1.649,4.513-1.665,5.281-2.313.324-.274.613-1.876,1.076-2.603,2.708-4.252,8.88-4.838,13.253-3.167-1.196-3.481-3.29-6.663-4.169-10.278-3.401-13.994,5.249-24.769,14.951-33.557,3.659-3.314,18.268-15.091,22.681-14.361,1.915.317,8.23,5.455,9.173,4.798.787-3.156,3.295-5.675,4.3-8.686,1.179-3.532,1.093-7.75,1.752-11.473.44-2.484,1.494-4.997,1.815-7.502.063-.494,3.989-1.195,3.52-.465l-3.27,3.006c-5.027-2.009-6.906-12.948-5.913-17.493,1.684-7.705,11.372-18.508,18.565-21.615,3.815-1.648,7.135-2.953,10.951-4.733,15.846-7.393,34.075-1.701,49.336,4.452,32.57,13.132,42.288,36.254,43.528,70.142.476,13.016-4.294,33.38,10.776,40.169,3.807,1.715,8.175,1.072,5.468,6.951-1.115,2.421-3.778,4.452-6.127,5.632-.976.49-4.798,1.54-5.035,1.857-.305.408.228,1.361.077,1.999-1.331,5.608-12.931,8.704-17.9,6.84ZM421.335,121.873l-4.914-.776c-1.531,3.141-4.067,5.959-4.397,9.584l7.618-6.341,1.693-2.467ZM398.166,127.325c-14.939,9.655-38.221,24.504-31.505,45.479,1.298,4.055,4.729,7.506,5.528,11.133.148.672-.436,1.367-.144,2.074.309.749,3.327,3.191,3.93,4.334,4.962-3.437,11.716-1.27,17.532-1.999,13.263-1.662,21.384-14.258,25.751-25.701,1.461-3.83,4.476-12.874,4.912-16.674.082-.714.293-1.381-.135-2.056l-25.868-16.59ZM439.92,180.684c-7.701.146-16.687.42-21.281-6.895-4.549,8.628-11.237,15.252-20.843,17.861-6.043,1.641-10.545.932-16.663.742,1.424,4.629-.414,9.375.003,13.951.189,2.075,1.258,4.362,1.411,6.434.652,8.82-6.741,18.461-10.022,26.111l-1.688,24.509c1.25.28.857-.334,1.268-.918,13.117-18.628,18.731-48.279,43.955-55.527,5.582-1.604,11.398-1.872,17.055-3.044,3.184-.66,6.117-1.965,9.303-2.217.454-7.14-.62-14.15-2.497-21.008ZM373.212,196.233c2.71-4.29-8.275-11.701-11.936-11.722-2.102-.012-7.289,2.274-4.667,4.214.559.414,4.727,1.206,6.323,2.007,2.17,1.09,6.7,5.536,7.892,5.873.613.173,2.126.044,2.388-.372ZM351.092,191.003c-1.818.363-4.338,3.388-2.819,5.062,1.148,1.266,5.55.837,7.967,1.839,3.105,1.288,9.622,7.726,11.405,7.753,4.369.067-.953-7.401-2.457-8.855-2.603-2.517-10.613-6.495-14.097-5.8ZM345.21,198.84c-2.366.472-3.119,4.041-1.346,5.062.586.338,4.069.802,5.523,1.338,1.819.671,4.566,2.064,6.255,3.057,1.463.861,6.278,4.932,6.712,5.061,2.192.654,2.912-.445,2.495-2.487-1.006-4.921-14.994-12.958-19.639-12.032ZM359.558,218.835c.425-4.427-5.97-7.651-9.471-9.396-2.34-1.166-6.628-3.449-8.968-2.403-4.531,2.025-.026,10.851,2.012,13.749l2.146-2.798c.226-1.577-2.293-2.199-1.196-4.078,1.486-2.11,9.034,3.647,10.921,4.334,1.555.566,2.907.738,4.557.592ZM356.611,243.811c.79-4.007-3.103-5.62-4.815-8.655-2.805-4.971-1.617-8.843.855-13.577l-3.843-2.229c-1.954,4.973-6.913,7.058-12.07,6.85-2.848-.115-6.64-2.092-9.047-.238-.699,2.407,9.05,9.117,11.121,10.41,2.141,1.336,16.558,8.705,17.8,7.44Z"/><path d="M147.746,129.214c2.952-2.563,6.901-5.929,7.351-10.038.643-5.863-1.731-9.062,1.226-15.426,3.02-6.498,10.366-7.025,12.857-14.093,2.1-5.957,1.046-11.842,6.838-16.188,2.473-1.856,5.874-2.596,8.025-4.717,3.022-2.98,3.166-8.008,5.65-11.498,3.653-5.133,11.505-7.83,17.574-6.351,2.057.501,4.998,1.771,4.688,4.338-2.238,1.077-4.339-.275-6.61-.457-3.77-.302-7.418.451-10.502,2.717-3.996,2.936-3.959,9.938-7.622,13.936-4.484,4.894-9.895,2.62-12.374,11.148-1.171,4.029-.968,7.616-3.177,11.519-3.048,5.384-9.48,6.787-11.758,11.763-2.238,4.888-.346,9.23-.892,14.291-.747,6.927-8.093,9.738-10.04,15.438-1.54,4.509.566,7.875.247,12.494-.671,9.704-10.236,12.63-9.279,21.968.499,4.866,2.268,6.485.784,12.15-1.521,5.805-7.25,8.42-8.45,13.108-.712,2.779.527,5.825-.961,8.344-3.225,3.321-3.419-7.315-3.161-9.033.801-5.333,6.864-8.298,8.452-13.105,2.049-6.207-2.27-10.412-.585-16.747,1.601-6.02,8.01-9.9,9.046-14.962.885-4.32-.786-9.001-.275-13.497.251-2.213,1.457-3.602,1.958-5.63"/><path d="M481.148,133.623l.453-1.752c2.605-1.017,3.151,1.614,2.984,3.71,15.568-.8,13.956,20.845,2.04,25.053.465,5.269-1.442,9.552-6.963,10.518-1.24,9.353-3.127,22.268,2.747,30.511,1.445,2.027,6.784,4.854,3.336,6.787-4.646-.905-7.657-5.6-9.145-9.8-3.233-9.132-2.662-18.407,0-27.59-1.15-1.14-2.442-1.256-3.507-2.699-4.196-5.682.535-14.312,7.785-13.159,3.302.525,3.264,3.779,7.382-.036,5.624-5.211,5.077-18.407-3.945-15.2-1.957.695-3.396,3.518-5.399,1.997l.551-3.931c-2.654-1.59-4.494-4.059-6.268-6.506-5.685-7.845-13.647-21.109-18.289-29.727-3.222-5.982-8.898-18.634-9.091-25.227-.028-.948.158-5.43,2.003-4.425,1.109.604,2.615,9.32,3.28,11.417,4.116,12.981,16.746,32.365,24.452,44.139.517.79,4.605,6.868,5.592,5.919ZM479.071,159.179c-4.593.385-5.109,8.265-.125,8.261,5.065-.004,5.424-8.705.125-8.261Z"/><path d="M208.421,57.353c1.975-.27,5.395-.28,6.726,1.351,3.029,3.712-3.922,1.918-5.635,2.142-9.584,1.251-6.064,10.295-12.085,14.417-1.588,1.087-3.981,1.656-5.525,2.807-4.098,3.052-2.453,5.898-3.196,10.03-1.659,9.228-9.86,8.288-12.271,15.169-2.049,5.847,2.063,10.888-2.708,17.374-2.298,3.125-6.497,4.565-7.234,8.932-.896,5.311,2.523,9.348.395,15.58-1.962,5.745-8.81,8.487-9.714,13.805-.96,5.646,2.375,10.694,1.138,16.808-1.324,6.54-10.777,8.438-10.608,16.865.053,2.653,1.683,5.329,1.944,7.89.569,5.561-3.794,8.197-5.31,13.198-3.105,2.125-3.321-.653-2.751-3.24.59-2.676,3.969-5.852,4.185-8.096.44-4.575-3.17-7.537-1.219-14.403,2.271-7.989,10.763-8.469,10.048-17.381-.386-4.811-2.318-7.156-1.149-12.91,1.487-7.313,8.672-9.036,10.133-14.855,1.314-5.234-2.195-9.825-.426-15.608,1.935-6.325,9.282-7.143,9.489-14.91.138-5.21-1.915-6.682.846-12.478,2.64-5.541,8.045-5.26,10.442-10.139,2.724-5.545-.86-10.197,6.004-15.062,1.737-1.231,5.014-2.022,6.355-3.447,1.682-1.786,2.123-5.414,3.224-7.554,1.633-3.172,5.382-5.805,8.902-6.286Z"/><path d="M216.268,253.728l5.041,29.976c1.062,11.618-4.382,21.684-7.236,32.482-.538,2.036-1.956,11.209-2.786,11.907-.844.71-2.114.621-2.792-.25-1.066-1.37-.089-4.977.2-6.745,2.212-13.524,9.634-24.012,8.665-38.348-.433-6.394-5.44-23.182-3.545-28.037.197-.505.693-.993,1.085-1.378l1.368.391Z"/><path d="M489.814,278.143c2.738-.719,1.706,4.124,1.502,5.451-.848,5.498-2.649,11.302-3.634,16.936-1.712,9.791-2.393,21.608-4.78,30.977-.339,1.333-.898,2.258-2.406,2.303-2.218-.468-1.902-2.193-1.786-4.042.725-11.587,4.764-32.65,7.976-43.945.453-1.594,1.694-7.304,3.128-7.681Z"/><path d="M108.49,274.2c.699,2.301.251,4.755.522,7.071.799,6.831,2.573,13.666,2.957,20.554.469,8.405-.7,16.988-.532,25.507.03,1.514,1.098,3.13.066,4.431-3.512,2.703-4.303-3.39-4.447-5.925-.438-7.685,1.393-16.359.991-24.501-.36-7.289-2.413-15.302-2.487-22.528-.019-1.822.566-5.629,2.931-4.607Z"/><path d="M222.261,108.157c.492,4.43.809,7.757,2.528,11.927,1.891,4.588,8.18,11.107,1.425,14.786-1.634.89-8.219,3.098-8.759.392-.613-3.077,7.722-2.489,8.173-4.89-2.674-6.166-7.322-13.325-5.704-20.394.282-1.234.941-2.087,2.336-1.821Z"/><path d="M452.54,110.779c-1.066-.919-3.247-2.251-4.598-2.508-1.524-.29-7.447.428-6.156-2.426,2.761-3.387,8.911-1.253,11.922,1.075,1.906,1.474,5.558,5.253,1.703,6.638-1.34-.007-2.112-2.124-2.871-2.778Z"/><path d="M207.917,93.101c.307.319.629,1.185.615,1.611-.084,2.62-5.142.233-6.608.225-3.622-.019-7.063,2.687-9.363,2.928-2.118.222-2.831-.814-1.459-2.475,2.738-3.314,13.616-5.609,16.815-2.289Z"/><path d="M438.073,121.937c3.117-.99,3.002,2.65,5.674,3.255,2.273.514,9.019-2.068,7.914,1.728-1.232,4.233-17.245,2.665-13.588-4.982Z"/><path d="M194.176,111.17c1.59-.404,5,2.551,8.617,1.773,1.446-.311,2.582-1.891,4.443-1.299,2.243.713-.886,3.733-1.943,4.287-2.906,1.523-7.848.648-10.45-1.196-1.242-.881-3.191-2.924-.667-3.565Z"/><path d="M229.173,174.315c7.929-1.587,16.121-.997,24.17-2.065,4.994-.662,13.351-3.477,17.737-3.39,3.589.072,2.105,7.077,1.547,9.428-1.128,4.748-8.185,14.921-12.74,16.655-2.046.779-8.769-.633-11.241-1.23-10.029-2.423-18.305-8.551-19.473-19.399Z"/><path d="M371.647,161.586c.746-.208,12.195,3.188,15.103,3.397,7.761.558,13.837-.989,21.108-1.478,1.256-.085,3.444-.443,4.093.792,1.004,3.012-3.819,9.376-5.83,11.671-11.002,12.557-31.889,12.26-35.228-6.411-.297-1.663-1.261-7.409.754-7.972Z"/></svg>